<svg viewBox="0 0 18 19" fill="none" xmlns="http://www.w3.org/2000/svg">
<g clip-path="url(#clip0)">
<path d="M17.46 17.46H0.359985V18.36H17.46V17.46Z" fill="#37C5D9"/>
<path d="M1.85999 16.86H5.60999C5.81708 16.86 5.98499 16.6921 5.98499 16.485V9.735C5.98499 9.52791 5.81708 9.36 5.60999 9.36H1.85999C1.65289 9.36 1.48499 9.52791 1.48499 9.735V16.485C1.48499 16.6921 1.65289 16.86 1.85999 16.86ZM2.23499 10.11H5.23499V16.11H2.23499V10.11Z" fill="#37C5D9"/>
<path d="M12.36 16.86H16.11C16.3171 16.86 16.485 16.6921 16.485 16.485V5.235C16.485 5.02791 16.3171 4.86 16.11 4.86H12.36C12.1529 4.86 11.985 5.02791 11.985 5.235V16.485C11.985 16.6921 12.1529 16.86 12.36 16.86ZM12.735 5.61H15.735V16.11H12.735V5.61Z" fill="#37C5D9"/>
<path d="M7.10999 16.86H10.86C11.0671 16.86 11.235 16.6921 11.235 16.485V0.735001C11.235 0.527907 11.0671 0.360001 10.86 0.360001H7.10999C6.90289 0.360001 6.73499 0.527907 6.73499 0.735001V16.485C6.73499 16.6921 6.90289 16.86 7.10999 16.86ZM7.48499 1.11H10.485V16.11H7.48499V1.11Z" fill="#37C5D9"/>
</g>
<defs>
<clipPath id="clip0">
<rect width="17.1" height="18" fill="white" transform="translate(0.359985 0.360001)"/>
</clipPath>
</defs>
</svg>
