<svg viewBox="0 0 18 18" fill="none" xmlns="http://www.w3.org/2000/svg">
<g clip-path="url(#clip0_1226_36907)">
<path d="M7.54741 14.1618C6.67451 14.1618 5.96436 14.872 5.96436 15.7449C5.96436 16.6178 6.67451 17.3279 7.54741 17.3279C8.42031 17.3279 9.13046 16.6178 9.13046 15.7449C9.13043 14.872 8.42027 14.1618 7.54741 14.1618ZM7.54741 16.444C7.16188 16.444 6.84826 16.1303 6.84826 15.7448C6.84826 15.3593 7.16192 15.0457 7.54741 15.0457C7.9329 15.0457 8.24656 15.3593 8.24656 15.7448C8.24656 16.1304 7.9329 16.444 7.54741 16.444Z" fill="#37C5D9"/>
<path d="M13.1006 14.1618C12.2277 14.1618 11.5176 14.872 11.5176 15.7449C11.5176 16.6178 12.2277 17.3279 13.1006 17.3279C13.9735 17.3279 14.6837 16.6178 14.6837 15.7449C14.6837 14.872 13.9735 14.1618 13.1006 14.1618ZM13.1006 16.444C12.7151 16.444 12.4015 16.1303 12.4015 15.7448C12.4015 15.3593 12.7151 15.0457 13.1006 15.0457C13.4862 15.0457 13.7998 15.3593 13.7998 15.7448C13.7998 16.1304 13.4861 16.444 13.1006 16.444Z" fill="#37C5D9"/>
<path d="M13.4899 5.82747H7.15655C6.91246 5.82747 6.7146 6.02532 6.7146 6.26942C6.7146 6.51351 6.91249 6.71137 7.15655 6.71137H13.4899C13.734 6.71137 13.9319 6.51351 13.9319 6.26942C13.9319 6.02529 13.734 5.82747 13.4899 5.82747Z" fill="#37C5D9"/>
<path d="M13.1457 8.12244H7.50176C7.25767 8.12244 7.05981 8.3203 7.05981 8.56439C7.05981 8.80848 7.25767 9.00634 7.50176 9.00634H13.1457C13.3897 9.00634 13.5876 8.80848 13.5876 8.56439C13.5876 8.32034 13.3897 8.12244 13.1457 8.12244Z" fill="#37C5D9"/>
<path d="M17.8006 3.85814C17.632 3.65128 17.3823 3.53267 17.1154 3.53267H3.34915L3.07113 2.18305C3.01309 1.90152 2.82106 1.66513 2.55736 1.55062L0.617539 0.70863C0.393594 0.611353 0.133332 0.714115 0.0361955 0.93799C-0.0610467 1.16194 0.041715 1.42223 0.265555 1.51937L2.20541 2.3614L4.34382 12.7417C4.42806 13.1505 4.79213 13.4472 5.20954 13.4472H15.7974C16.0415 13.4472 16.2394 13.2493 16.2394 13.0053C16.2394 12.7612 16.0415 12.5633 15.7974 12.5633H5.20958L4.94946 11.3006H15.8793C16.2966 11.3006 16.6607 11.0039 16.7449 10.5951L17.9811 4.59481C18.035 4.33353 17.9692 4.06497 17.8006 3.85814ZM15.8793 10.4168H4.76738L3.53125 4.41653L17.1154 4.41657L15.8793 10.4168Z" fill="#37C5D9"/>
</g>
<defs>
<clipPath id="clip0_1226_36907">
<rect width="18" height="18" fill="white"/>
</clipPath>
</defs>
</svg>
