<svg viewBox="0 0 19 19" fill="none" xmlns="http://www.w3.org/2000/svg">
<g clip-path="url(#clip0)">
<path d="M13.5362 1.62916C12.0347 1.62114 10.6072 2.28059 9.63999 3.42914C8.67884 2.27274 7.24742 1.61141 5.74378 1.62916C2.92504 1.62916 0.640015 3.91419 0.640015 6.73293C0.640015 11.5633 9.07038 16.2798 9.41217 16.4621C9.55007 16.5542 9.72992 16.5542 9.86786 16.4621C10.2096 16.2798 18.64 11.6317 18.64 6.73293C18.64 3.91419 16.3549 1.62916 13.5362 1.62916ZM9.63999 15.5507C8.31848 14.776 1.55141 10.6519 1.55141 6.73293C1.55141 4.41755 3.4284 2.54051 5.74383 2.54051C7.16173 2.52189 8.48865 3.23707 9.25268 4.43164C9.4078 4.64555 9.70702 4.69322 9.92094 4.53805C9.9618 4.50839 9.99774 4.4725 10.0274 4.43164C11.2945 2.49376 13.8927 1.95001 15.8306 3.21714C17.0169 3.99286 17.7309 5.31547 17.7286 6.73289C17.7286 10.6975 10.9615 14.7988 9.63999 15.5507Z" fill="#37C5D9"/>
</g>
<defs>
<clipPath id="clip0">
<rect width="18" height="18" fill="white" transform="translate(0.640015 0.0799999)"/>
</clipPath>
</defs>
</svg>
