<svg viewBox="0 0 10 10" fill="none" xmlns="http://www.w3.org/2000/svg">
<path d="M9.21053 6.58422C8.59367 6.58422 7.98948 6.4879 7.41684 6.29894C7.13737 6.20263 6.82 6.27684 6.63632 6.46422L5.50106 7.32158C4.19842 6.62633 3.36474 5.79316 2.67896 4.5L3.51316 3.39158C3.72316 3.18158 3.79843 2.8742 3.70843 2.58632C3.5179 2.01 3.42106 1.40526 3.42106 0.789474C3.42106 0.354203 3.06686 0 2.63159 0H0.789474C0.354203 0 0 0.354203 0 0.789474C0 5.86789 4.13211 10 9.21053 10C9.6458 10 10 9.6458 10 9.21053V7.37369C10 6.93842 9.6458 6.58422 9.21053 6.58422Z" fill="white"/>
</svg>
