<svg viewBox="0 0 10 12" fill="none" xmlns="http://www.w3.org/2000/svg">
<mask id="mask0_1226_53240" style="mask-type:alpha" maskUnits="userSpaceOnUse" x="0" y="0" width="10" height="12">
<path d="M4.83956 0.00305421C2.59838 0.0867081 0.736516 1.94678 0.521419 4.32107C0.477474 4.79593 0.502916 5.25602 0.581553 5.69644C0.581553 5.69644 0.588492 5.7481 0.611621 5.84652C0.681007 6.17622 0.785086 6.49607 0.914607 6.79624C1.36562 7.93295 2.40872 9.83484 4.74935 11.904C4.89275 12.032 5.10322 12.032 5.24894 11.904C7.58957 9.8373 8.63267 7.93541 9.086 6.79378C9.21783 6.49361 9.3196 6.17622 9.38898 5.84406C9.4098 5.74811 9.41905 5.69398 9.41905 5.69398C9.47225 5.39873 9.5 5.0961 9.5 4.78609C9.5 2.08456 7.3976 -0.0929017 4.83956 0.00305421ZM4.99915 7.16776C3.79182 7.16776 2.81348 6.12701 2.81348 4.84268C2.81348 3.55834 3.79182 2.51759 4.99915 2.51759C6.20647 2.51759 7.18481 3.55834 7.18481 4.84268C7.18481 6.12701 6.20647 7.16776 4.99915 7.16776Z" fill="white"/>
</mask>
<g mask="url(#mask0_1226_53240)">
<path d="M4.83956 0.00305421C2.59838 0.0867081 0.736516 1.94678 0.521419 4.32107C0.477474 4.79593 0.502916 5.25602 0.581553 5.69644C0.581553 5.69644 0.588492 5.7481 0.611621 5.84652C0.681007 6.17622 0.785086 6.49607 0.914607 6.79624C1.36562 7.93295 2.40872 9.83484 4.74935 11.904C4.89275 12.032 5.10322 12.032 5.24894 11.904C7.58957 9.8373 8.63267 7.93541 9.086 6.79378C9.21783 6.49361 9.3196 6.17622 9.38898 5.84406C9.4098 5.74811 9.41905 5.69398 9.41905 5.69398C9.47225 5.39873 9.5 5.0961 9.5 4.78609C9.5 2.08456 7.3976 -0.0929017 4.83956 0.00305421ZM4.99915 7.16776C3.79182 7.16776 2.81348 6.12701 2.81348 4.84268C2.81348 3.55834 3.79182 2.51759 4.99915 2.51759C6.20647 2.51759 7.18481 3.55834 7.18481 4.84268C7.18481 6.12701 6.20647 7.16776 4.99915 7.16776Z" fill="white"/>
</g>
</svg>
