<svg viewBox="0 0 19 19" fill="none" xmlns="http://www.w3.org/2000/svg">
<path d="M9.50195 5.01322C7.01896 5.01322 5.01617 7.01646 5.01617 9.5C5.01617 11.9835 7.01896 13.9868 9.50195 13.9868C11.9849 13.9868 13.9877 11.9835 13.9877 9.5C13.9877 7.01646 11.9849 5.01322 9.50195 5.01322ZM9.50195 12.417C7.89738 12.417 6.58561 11.1088 6.58561 9.5C6.58561 7.89116 7.89348 6.58301 9.50195 6.58301C11.1104 6.58301 12.4183 7.89116 12.4183 9.5C12.4183 11.1088 11.1065 12.417 9.50195 12.417ZM15.2175 4.82969C15.2175 5.41152 14.749 5.87621 14.1712 5.87621C13.5895 5.87621 13.1249 5.40762 13.1249 4.82969C13.1249 4.25176 13.5934 3.78316 14.1712 3.78316C14.749 3.78316 15.2175 4.25176 15.2175 4.82969ZM18.1885 5.89183C18.1221 4.48996 17.802 3.24819 16.7752 2.22509C15.7524 1.202 14.5109 0.881792 13.1093 0.811503C11.6648 0.729499 7.33519 0.729499 5.89069 0.811503C4.49303 0.877887 3.25153 1.19809 2.22476 2.22119C1.19799 3.24428 0.881762 4.48605 0.811489 5.88793C0.729504 7.33276 0.729504 11.6633 0.811489 13.1082C0.877858 14.51 1.19799 15.7518 2.22476 16.7749C3.25153 17.798 4.48912 18.1182 5.89069 18.1885C7.33519 18.2705 11.6648 18.2705 13.1093 18.1885C14.5109 18.1221 15.7524 17.8019 16.7752 16.7749C17.7981 15.7518 18.1182 14.51 18.1885 13.1082C18.2705 11.6633 18.2705 7.33666 18.1885 5.89183ZM16.3224 14.6584C16.0178 15.4238 15.4283 16.0134 14.6592 16.3219C13.5075 16.7788 10.7747 16.6734 9.50195 16.6734C8.22923 16.6734 5.49247 16.7749 4.34467 16.3219C3.57948 16.0173 2.98996 15.4277 2.68154 14.6584C2.22476 13.5065 2.33017 10.773 2.33017 9.5C2.33017 8.22699 2.22867 5.48962 2.68154 4.34157C2.98606 3.5762 3.57557 2.98656 4.34467 2.67807C5.49637 2.22119 8.22923 2.32662 9.50195 2.32662C10.7747 2.32662 13.5114 2.22509 14.6592 2.67807C15.4244 2.98265 16.0139 3.5723 16.3224 4.34157C16.7791 5.49353 16.6737 8.22699 16.6737 9.5C16.6737 10.773 16.7791 13.5104 16.3224 14.6584Z" fill="white"/>
</svg>
