<svg viewBox="0 0 21 15" fill="none" xmlns="http://www.w3.org/2000/svg">
<path d="M20.58 2.68694C20.4654 2.26346 20.2408 1.87727 19.9286 1.56702C19.6164 1.25677 19.2276 1.03335 18.8011 0.919108C17.2311 0.5 10.9375 0.5 10.9375 0.5C10.9375 0.5 4.64395 0.5 3.07393 0.916879C2.64721 1.03075 2.2582 1.25405 1.94595 1.56436C1.6337 1.87466 1.40921 2.26105 1.29502 2.68471C0.875 4.24522 0.875 7.5 0.875 7.5C0.875 7.5 0.875 10.7548 1.29502 12.3131C1.52637 13.1736 2.20918 13.8513 3.07393 14.0809C4.64395 14.5 10.9375 14.5 10.9375 14.5C10.9375 14.5 17.2311 14.5 18.8011 14.0809C19.6681 13.8513 20.3486 13.1736 20.58 12.3131C21 10.7548 21 7.5 21 7.5C21 7.5 21 4.24522 20.58 2.68694ZM8.93848 10.4873V4.51274L14.1494 7.47771L8.93848 10.4873Z" fill="white"/>
</svg>
