<svg viewBox="0 0 263 263" fill="none" xmlns="http://www.w3.org/2000/svg">
<path d="M201.316 110.728C201.316 72.0461 169.832 40.6182 131.206 40.6182C92.581 40.6182 61.0967 72.0461 61.0967 110.728C61.0967 149.353 92.5246 180.838 131.206 180.838C169.888 180.838 201.316 149.353 201.316 110.728ZM131.206 170.85C98.045 170.85 71.0282 143.889 71.0282 110.672C71.0282 77.4561 98.0444 50.5496 131.206 50.5496C164.368 50.5496 191.385 77.5113 191.385 110.728C191.385 143.944 164.368 170.85 131.206 170.85Z" fill="white" stroke="white"/>
<mask id="path-2-outside-1_185_5384" maskUnits="userSpaceOnUse" x="17" y="1" width="229" height="262" fill="black">
<rect fill="white" x="17" y="1" width="229" height="262"/>
<path d="M216.502 182.738C219.014 181.454 221.247 179.779 222.978 177.435C227.499 171.239 226.439 163.144 225.434 155.274C224.764 150.194 224.094 144.891 225.266 141.318C226.327 137.969 229.9 134.229 233.305 130.656C238.608 125.074 244.581 118.766 244.581 110.784C244.581 102.801 238.664 96.3815 233.36 90.7994C229.955 87.171 226.383 83.4867 225.322 80.1374C224.15 76.5648 224.82 71.2617 225.49 66.182C226.494 58.3111 227.499 50.2169 223.033 44.0207C218.512 37.7687 210.418 36.2615 202.603 34.7543C197.579 33.8053 192.387 32.8564 189.429 30.6793C186.47 28.5581 184.014 23.9807 181.614 19.5149C177.985 12.8163 173.799 5.22457 166.374 2.76841C159.229 0.423895 151.916 3.88485 144.827 7.23415C140.082 9.46702 135.226 11.7557 131.318 11.7557C127.411 11.7557 122.554 9.46702 117.809 7.23415C110.72 3.88485 103.407 0.423895 96.2621 2.76841C88.782 5.16875 84.8745 12.4814 81.0228 19.5149C78.6225 23.9249 76.1105 28.5581 73.2078 30.6793C70.1934 32.8564 65.0578 33.8611 60.0338 34.7543C52.2188 36.2057 44.1246 37.7687 39.603 44.0207C35.0815 50.2169 36.1421 58.3111 37.1469 66.182C37.8167 71.2617 38.4866 76.5648 37.3143 80.1374C36.2537 83.4867 32.6811 87.2268 29.276 90.7994C23.9729 96.3815 18 102.689 18 110.672C18 118.654 24.0288 124.962 29.276 130.544C32.6811 134.173 36.2537 137.857 37.3143 141.206C38.4866 144.779 37.8167 150.082 37.1469 155.162C36.1421 163.033 35.1373 171.127 39.603 177.323C41.3335 179.668 43.5664 181.398 46.0784 182.626L21.7401 224.772C20.8469 226.335 20.9586 228.288 22.075 229.74C23.1914 231.191 25.0335 231.805 26.764 231.359L62.7133 221.701L72.3704 257.651C72.817 259.381 74.3242 260.665 76.1105 260.944C76.3338 260.944 76.5012 261 76.6687 261C78.2317 261 79.7389 260.163 80.5204 258.767L103.352 219.189C108.208 218.631 113.12 216.343 117.865 214.11C122.61 211.877 127.467 209.588 131.374 209.588C135.282 209.588 140.138 211.877 144.883 214.11C149.628 216.343 154.54 218.687 159.397 219.189L182.228 258.767C183.009 260.163 184.516 261 186.079 261C186.247 261 186.47 261 186.638 260.944C188.424 260.721 189.875 259.437 190.378 257.651L200.035 221.701L235.984 231.359C237.715 231.805 239.557 231.191 240.673 229.74C241.79 228.288 241.901 226.335 241.008 224.772L216.502 182.738ZM78.0084 245.035L70.0259 215.17C69.4119 212.77 66.9557 211.374 64.5554 211.988L34.6907 219.971L54.5633 185.529C56.2937 185.92 58.08 186.255 59.8663 186.59C64.8903 187.539 70.0817 188.487 73.0403 190.665C75.9988 192.786 78.455 197.363 80.8553 201.829C84.093 207.802 87.7214 214.445 93.7502 217.571L78.0084 245.035ZM131.207 200.712C125.289 200.712 119.484 203.448 113.902 206.071C108.375 208.695 102.682 211.374 98.9416 210.146C94.8666 208.807 91.7964 203.113 88.782 197.642C85.8793 192.339 82.9207 186.869 78.3434 183.519C73.7101 180.17 67.5139 178.998 61.541 177.881C55.4564 176.709 49.1486 175.537 46.6366 172.188C44.2362 168.894 45.0177 162.53 45.7992 156.446C46.5808 150.361 47.3623 144.109 45.576 138.583C43.8455 133.336 39.603 128.814 35.528 124.516C31.1739 119.938 26.6524 115.193 26.6524 110.784C26.6524 106.374 31.1739 101.629 35.528 97.0514C39.6589 92.6973 43.9013 88.2316 45.576 82.9843C47.3623 77.458 46.5808 71.2059 45.7992 65.1213C45.0177 58.9809 44.2362 52.6731 46.6366 49.3796C49.0927 45.9745 55.4006 44.8022 61.541 43.6858C67.5139 42.5693 73.7101 41.3971 78.3434 38.0478C82.9207 34.7543 85.8793 29.2279 88.782 23.9249C91.7964 18.3985 94.8666 12.7605 98.9416 11.4208C102.737 10.1927 108.431 12.8722 113.902 15.4958C119.484 18.1194 125.289 20.8547 131.207 20.8547C137.124 20.8547 142.929 18.1194 148.511 15.4958C154.038 12.8722 159.732 10.1927 163.472 11.4208C167.547 12.7605 170.617 18.4543 173.631 23.9249C176.534 29.2279 179.492 34.6985 184.07 38.0478C188.703 41.3971 194.899 42.5693 200.872 43.6858C206.957 44.858 213.265 46.0303 215.777 49.3796C218.177 52.6731 217.395 59.0368 216.614 65.1213C215.832 71.2059 215.051 77.458 216.837 82.9843C218.568 88.2316 222.81 92.7531 226.885 97.0514C231.239 101.629 235.761 106.374 235.761 110.784C235.761 115.193 231.239 119.938 226.885 124.516C222.754 128.87 218.512 133.336 216.837 138.583C215.051 144.109 215.832 150.361 216.614 156.446C217.395 162.586 218.177 168.894 215.777 172.188C213.32 175.593 207.013 176.765 200.872 177.881C194.899 178.998 188.703 180.17 184.07 183.519C179.492 186.813 176.534 192.339 173.631 197.642C170.617 203.169 167.547 208.807 163.472 210.146C159.676 211.374 153.982 208.695 148.511 206.071C142.929 203.448 137.124 200.712 131.207 200.712ZM197.858 211.988C195.457 211.374 193.001 212.77 192.387 215.17L184.405 245.035L168.607 217.682C174.58 214.612 178.097 208.193 181.502 201.941C183.902 197.531 186.414 192.897 189.317 190.776C192.331 188.599 197.467 187.594 202.491 186.701C204.277 186.366 206.064 186.031 207.794 185.641L227.667 220.083L197.858 211.988Z"/>
</mask>
<path d="M216.502 182.738C219.014 181.454 221.247 179.779 222.978 177.435C227.499 171.239 226.439 163.144 225.434 155.274C224.764 150.194 224.094 144.891 225.266 141.318C226.327 137.969 229.9 134.229 233.305 130.656C238.608 125.074 244.581 118.766 244.581 110.784C244.581 102.801 238.664 96.3815 233.36 90.7994C229.955 87.171 226.383 83.4867 225.322 80.1374C224.15 76.5648 224.82 71.2617 225.49 66.182C226.494 58.3111 227.499 50.2169 223.033 44.0207C218.512 37.7687 210.418 36.2615 202.603 34.7543C197.579 33.8053 192.387 32.8564 189.429 30.6793C186.47 28.5581 184.014 23.9807 181.614 19.5149C177.985 12.8163 173.799 5.22457 166.374 2.76841C159.229 0.423895 151.916 3.88485 144.827 7.23415C140.082 9.46702 135.226 11.7557 131.318 11.7557C127.411 11.7557 122.554 9.46702 117.809 7.23415C110.72 3.88485 103.407 0.423895 96.2621 2.76841C88.782 5.16875 84.8745 12.4814 81.0228 19.5149C78.6225 23.9249 76.1105 28.5581 73.2078 30.6793C70.1934 32.8564 65.0578 33.8611 60.0338 34.7543C52.2188 36.2057 44.1246 37.7687 39.603 44.0207C35.0815 50.2169 36.1421 58.3111 37.1469 66.182C37.8167 71.2617 38.4866 76.5648 37.3143 80.1374C36.2537 83.4867 32.6811 87.2268 29.276 90.7994C23.9729 96.3815 18 102.689 18 110.672C18 118.654 24.0288 124.962 29.276 130.544C32.6811 134.173 36.2537 137.857 37.3143 141.206C38.4866 144.779 37.8167 150.082 37.1469 155.162C36.1421 163.033 35.1373 171.127 39.603 177.323C41.3335 179.668 43.5664 181.398 46.0784 182.626L21.7401 224.772C20.8469 226.335 20.9586 228.288 22.075 229.74C23.1914 231.191 25.0335 231.805 26.764 231.359L62.7133 221.701L72.3704 257.651C72.817 259.381 74.3242 260.665 76.1105 260.944C76.3338 260.944 76.5012 261 76.6687 261C78.2317 261 79.7389 260.163 80.5204 258.767L103.352 219.189C108.208 218.631 113.12 216.343 117.865 214.11C122.61 211.877 127.467 209.588 131.374 209.588C135.282 209.588 140.138 211.877 144.883 214.11C149.628 216.343 154.54 218.687 159.397 219.189L182.228 258.767C183.009 260.163 184.516 261 186.079 261C186.247 261 186.47 261 186.638 260.944C188.424 260.721 189.875 259.437 190.378 257.651L200.035 221.701L235.984 231.359C237.715 231.805 239.557 231.191 240.673 229.74C241.79 228.288 241.901 226.335 241.008 224.772L216.502 182.738ZM78.0084 245.035L70.0259 215.17C69.4119 212.77 66.9557 211.374 64.5554 211.988L34.6907 219.971L54.5633 185.529C56.2937 185.92 58.08 186.255 59.8663 186.59C64.8903 187.539 70.0817 188.487 73.0403 190.665C75.9988 192.786 78.455 197.363 80.8553 201.829C84.093 207.802 87.7214 214.445 93.7502 217.571L78.0084 245.035ZM131.207 200.712C125.289 200.712 119.484 203.448 113.902 206.071C108.375 208.695 102.682 211.374 98.9416 210.146C94.8666 208.807 91.7964 203.113 88.782 197.642C85.8793 192.339 82.9207 186.869 78.3434 183.519C73.7101 180.17 67.5139 178.998 61.541 177.881C55.4564 176.709 49.1486 175.537 46.6366 172.188C44.2362 168.894 45.0177 162.53 45.7992 156.446C46.5808 150.361 47.3623 144.109 45.576 138.583C43.8455 133.336 39.603 128.814 35.528 124.516C31.1739 119.938 26.6524 115.193 26.6524 110.784C26.6524 106.374 31.1739 101.629 35.528 97.0514C39.6589 92.6973 43.9013 88.2316 45.576 82.9843C47.3623 77.458 46.5808 71.2059 45.7992 65.1213C45.0177 58.9809 44.2362 52.6731 46.6366 49.3796C49.0927 45.9745 55.4006 44.8022 61.541 43.6858C67.5139 42.5693 73.7101 41.3971 78.3434 38.0478C82.9207 34.7543 85.8793 29.2279 88.782 23.9249C91.7964 18.3985 94.8666 12.7605 98.9416 11.4208C102.737 10.1927 108.431 12.8722 113.902 15.4958C119.484 18.1194 125.289 20.8547 131.207 20.8547C137.124 20.8547 142.929 18.1194 148.511 15.4958C154.038 12.8722 159.732 10.1927 163.472 11.4208C167.547 12.7605 170.617 18.4543 173.631 23.9249C176.534 29.2279 179.492 34.6985 184.07 38.0478C188.703 41.3971 194.899 42.5693 200.872 43.6858C206.957 44.858 213.265 46.0303 215.777 49.3796C218.177 52.6731 217.395 59.0368 216.614 65.1213C215.832 71.2059 215.051 77.458 216.837 82.9843C218.568 88.2316 222.81 92.7531 226.885 97.0514C231.239 101.629 235.761 106.374 235.761 110.784C235.761 115.193 231.239 119.938 226.885 124.516C222.754 128.87 218.512 133.336 216.837 138.583C215.051 144.109 215.832 150.361 216.614 156.446C217.395 162.586 218.177 168.894 215.777 172.188C213.32 175.593 207.013 176.765 200.872 177.881C194.899 178.998 188.703 180.17 184.07 183.519C179.492 186.813 176.534 192.339 173.631 197.642C170.617 203.169 167.547 208.807 163.472 210.146C159.676 211.374 153.982 208.695 148.511 206.071C142.929 203.448 137.124 200.712 131.207 200.712ZM197.858 211.988C195.457 211.374 193.001 212.77 192.387 215.17L184.405 245.035L168.607 217.682C174.58 214.612 178.097 208.193 181.502 201.941C183.902 197.531 186.414 192.897 189.317 190.776C192.331 188.599 197.467 187.594 202.491 186.701C204.277 186.366 206.064 186.031 207.794 185.641L227.667 220.083L197.858 211.988Z" fill="white"/>
<path d="M216.502 182.738C219.014 181.454 221.247 179.779 222.978 177.435C227.499 171.239 226.439 163.144 225.434 155.274C224.764 150.194 224.094 144.891 225.266 141.318C226.327 137.969 229.9 134.229 233.305 130.656C238.608 125.074 244.581 118.766 244.581 110.784C244.581 102.801 238.664 96.3815 233.36 90.7994C229.955 87.171 226.383 83.4867 225.322 80.1374C224.15 76.5648 224.82 71.2617 225.49 66.182C226.494 58.3111 227.499 50.2169 223.033 44.0207C218.512 37.7687 210.418 36.2615 202.603 34.7543C197.579 33.8053 192.387 32.8564 189.429 30.6793C186.47 28.5581 184.014 23.9807 181.614 19.5149C177.985 12.8163 173.799 5.22457 166.374 2.76841C159.229 0.423895 151.916 3.88485 144.827 7.23415C140.082 9.46702 135.226 11.7557 131.318 11.7557C127.411 11.7557 122.554 9.46702 117.809 7.23415C110.72 3.88485 103.407 0.423895 96.2621 2.76841C88.782 5.16875 84.8745 12.4814 81.0228 19.5149C78.6225 23.9249 76.1105 28.5581 73.2078 30.6793C70.1934 32.8564 65.0578 33.8611 60.0338 34.7543C52.2188 36.2057 44.1246 37.7687 39.603 44.0207C35.0815 50.2169 36.1421 58.3111 37.1469 66.182C37.8167 71.2617 38.4866 76.5648 37.3143 80.1374C36.2537 83.4867 32.6811 87.2268 29.276 90.7994C23.9729 96.3815 18 102.689 18 110.672C18 118.654 24.0288 124.962 29.276 130.544C32.6811 134.173 36.2537 137.857 37.3143 141.206C38.4866 144.779 37.8167 150.082 37.1469 155.162C36.1421 163.033 35.1373 171.127 39.603 177.323C41.3335 179.668 43.5664 181.398 46.0784 182.626L21.7401 224.772C20.8469 226.335 20.9586 228.288 22.075 229.74C23.1914 231.191 25.0335 231.805 26.764 231.359L62.7133 221.701L72.3704 257.651C72.817 259.381 74.3242 260.665 76.1105 260.944C76.3338 260.944 76.5012 261 76.6687 261C78.2317 261 79.7389 260.163 80.5204 258.767L103.352 219.189C108.208 218.631 113.12 216.343 117.865 214.11C122.61 211.877 127.467 209.588 131.374 209.588C135.282 209.588 140.138 211.877 144.883 214.11C149.628 216.343 154.54 218.687 159.397 219.189L182.228 258.767C183.009 260.163 184.516 261 186.079 261C186.247 261 186.47 261 186.638 260.944C188.424 260.721 189.875 259.437 190.378 257.651L200.035 221.701L235.984 231.359C237.715 231.805 239.557 231.191 240.673 229.74C241.79 228.288 241.901 226.335 241.008 224.772L216.502 182.738ZM78.0084 245.035L70.0259 215.17C69.4119 212.77 66.9557 211.374 64.5554 211.988L34.6907 219.971L54.5633 185.529C56.2937 185.92 58.08 186.255 59.8663 186.59C64.8903 187.539 70.0817 188.487 73.0403 190.665C75.9988 192.786 78.455 197.363 80.8553 201.829C84.093 207.802 87.7214 214.445 93.7502 217.571L78.0084 245.035ZM131.207 200.712C125.289 200.712 119.484 203.448 113.902 206.071C108.375 208.695 102.682 211.374 98.9416 210.146C94.8666 208.807 91.7964 203.113 88.782 197.642C85.8793 192.339 82.9207 186.869 78.3434 183.519C73.7101 180.17 67.5139 178.998 61.541 177.881C55.4564 176.709 49.1486 175.537 46.6366 172.188C44.2362 168.894 45.0177 162.53 45.7992 156.446C46.5808 150.361 47.3623 144.109 45.576 138.583C43.8455 133.336 39.603 128.814 35.528 124.516C31.1739 119.938 26.6524 115.193 26.6524 110.784C26.6524 106.374 31.1739 101.629 35.528 97.0514C39.6589 92.6973 43.9013 88.2316 45.576 82.9843C47.3623 77.458 46.5808 71.2059 45.7992 65.1213C45.0177 58.9809 44.2362 52.6731 46.6366 49.3796C49.0927 45.9745 55.4006 44.8022 61.541 43.6858C67.5139 42.5693 73.7101 41.3971 78.3434 38.0478C82.9207 34.7543 85.8793 29.2279 88.782 23.9249C91.7964 18.3985 94.8666 12.7605 98.9416 11.4208C102.737 10.1927 108.431 12.8722 113.902 15.4958C119.484 18.1194 125.289 20.8547 131.207 20.8547C137.124 20.8547 142.929 18.1194 148.511 15.4958C154.038 12.8722 159.732 10.1927 163.472 11.4208C167.547 12.7605 170.617 18.4543 173.631 23.9249C176.534 29.2279 179.492 34.6985 184.07 38.0478C188.703 41.3971 194.899 42.5693 200.872 43.6858C206.957 44.858 213.265 46.0303 215.777 49.3796C218.177 52.6731 217.395 59.0368 216.614 65.1213C215.832 71.2059 215.051 77.458 216.837 82.9843C218.568 88.2316 222.81 92.7531 226.885 97.0514C231.239 101.629 235.761 106.374 235.761 110.784C235.761 115.193 231.239 119.938 226.885 124.516C222.754 128.87 218.512 133.336 216.837 138.583C215.051 144.109 215.832 150.361 216.614 156.446C217.395 162.586 218.177 168.894 215.777 172.188C213.32 175.593 207.013 176.765 200.872 177.881C194.899 178.998 188.703 180.17 184.07 183.519C179.492 186.813 176.534 192.339 173.631 197.642C170.617 203.169 167.547 208.807 163.472 210.146C159.676 211.374 153.982 208.695 148.511 206.071C142.929 203.448 137.124 200.712 131.207 200.712ZM197.858 211.988C195.457 211.374 193.001 212.77 192.387 215.17L184.405 245.035L168.607 217.682C174.58 214.612 178.097 208.193 181.502 201.941C183.902 197.531 186.414 192.897 189.317 190.776C192.331 188.599 197.467 187.594 202.491 186.701C204.277 186.366 206.064 186.031 207.794 185.641L227.667 220.083L197.858 211.988Z" stroke="white" stroke-width="2" mask="url(#path-2-outside-1_185_5384)"/>
<path d="M125.141 138.434L125.141 138.434L173.426 90.0364C175.352 88.1107 175.352 84.9472 173.426 83.0215C171.501 81.0957 168.337 81.0957 166.411 83.0215L121.549 127.884L96.0574 102.392C94.1317 100.466 90.9682 100.466 89.0424 102.392C87.1167 104.317 87.1167 107.481 89.0424 109.407L118.07 138.434C119.006 139.37 120.252 139.864 121.605 139.864C122.959 139.864 124.204 139.37 125.141 138.434Z" fill="white" stroke="white"/>
</svg>
