<svg viewBox="0 0 221 220" fill="none" xmlns="http://www.w3.org/2000/svg">
<path opacity="0.35" d="M213.479 199.437H165.083L134.664 137.531V128.635H187.044V135.051H183.82C182.04 135.051 180.597 136.488 180.597 138.261C180.597 140.034 182.04 141.471 183.82 141.471H187.044V147.89H183.82C182.04 147.89 180.597 149.328 180.597 151.1C180.597 152.873 182.04 154.31 183.82 154.31H196.714C198.494 154.31 199.937 152.873 199.937 151.1C199.937 149.328 198.494 147.89 196.714 147.89H193.49V141.471H196.714C198.494 141.471 199.937 140.034 199.937 138.261C199.937 136.488 198.494 135.051 196.714 135.051H193.49C193.491 131.576 193.489 123.382 193.489 119.962C193.489 114.686 190.413 109.78 185.653 107.464L134.664 82.6593V75.0032H153.652C155.433 75.0032 156.876 73.5661 156.876 71.7934C156.876 70.0207 155.433 68.5836 153.652 68.5836H134.664V36.173L182.823 59.6004C185.386 60.8475 187.042 63.489 187.042 66.3299V68.5836H168.704C166.923 68.5836 165.48 70.0207 165.48 71.7934C165.48 73.5661 166.923 75.0032 168.704 75.0032H187.044V81.4224H183.82C182.04 81.4224 180.597 82.8596 180.597 84.6322C180.597 86.4049 182.04 87.8421 183.82 87.8421H196.714C198.494 87.8421 199.937 86.4049 199.937 84.6322C199.937 82.8596 198.494 81.4224 196.714 81.4224H193.49V71.7934C193.49 71.7848 193.489 71.7771 193.489 71.7686V66.3299C193.489 61.0538 190.413 56.1483 185.653 53.8321L133.886 28.65L123.585 6.42482L144.286 6.4244C144.878 6.4244 145.359 6.90416 145.36 7.49391L145.362 12.856H142.14C140.359 12.856 138.917 14.2932 138.917 16.0658C138.917 17.8385 140.359 19.2757 142.14 19.2757H155.033C156.814 19.2757 158.257 17.8385 158.257 16.0658C158.257 14.2932 156.814 12.856 155.033 12.856H151.809L151.807 7.49134C151.805 3.36309 148.431 0.00433281 144.285 0.00476078L77.6678 0.00604471C73.5208 0.00647269 70.147 3.36651 70.147 7.49562V12.8453H66.9237C65.1435 12.8453 63.7003 14.2825 63.7003 16.0551C63.7003 17.8278 65.1435 19.2649 66.9237 19.2649H79.8172C81.5973 19.2649 83.0405 17.8278 83.0405 16.0551C83.0405 14.2825 81.5973 12.8453 79.8172 12.8453H76.5938V7.49562C76.5938 6.90587 77.076 6.42568 77.6682 6.42568L98.3662 6.42525L88.0656 28.6487L67.3143 38.7443C65.7147 39.5223 65.0515 41.4444 65.8333 43.0373C66.6146 44.6298 68.5444 45.2906 70.1445 44.5121L87.2842 36.1734V68.5832H34.9087V66.3303C34.9087 63.4894 36.5651 60.8479 39.1283 59.6008L56.6295 51.0867C58.2292 50.3086 58.8923 48.3866 58.111 46.7936C57.3296 45.2007 55.3995 44.5403 53.7998 45.3184L36.2982 53.8334C31.5379 56.1496 28.462 61.0551 28.462 66.3307V71.7921V71.793V81.422H25.2386C23.4584 81.422 22.0152 82.8591 22.0152 84.6318C22.0152 86.4045 23.4584 87.8416 25.2386 87.8416H38.1321C39.9122 87.8416 41.3554 86.4045 41.3554 84.6318C41.3554 82.8591 39.9122 81.422 38.1321 81.422H34.9087V75.0028H87.2846V82.6601L36.2982 107.465C31.5379 109.781 28.462 114.687 28.462 119.962V135.051H25.2386C23.4584 135.051 22.0152 136.488 22.0152 138.261C22.0152 140.034 23.4584 141.471 25.2386 141.471H28.462V147.89H25.2386C23.4584 147.89 22.0152 149.328 22.0152 151.1C22.0152 152.873 23.4584 154.31 25.2386 154.31H38.1321C39.9122 154.31 41.3554 152.873 41.3554 151.1C41.3554 149.328 39.9122 147.89 38.1321 147.89H34.9087V141.471H38.1321C39.9122 141.471 41.3554 140.034 41.3554 138.261C41.3554 136.488 39.9122 135.051 38.1321 135.051H34.9087V128.635H58.1857C59.9659 128.635 61.4091 127.197 61.4091 125.425C61.4091 123.652 59.9659 122.215 58.1857 122.215H34.9087V119.962C34.9087 117.122 36.5651 114.48 39.1283 113.233L87.2842 89.8052V122.215H73.2918C71.5116 122.215 70.0684 123.652 70.0684 125.425C70.0684 127.197 71.5116 128.635 73.2918 128.635H87.2842V137.536L56.8685 199.437H8.47231C4.32534 199.437 0.951111 202.797 0.951111 206.927V211.634C0.951111 215.764 4.32534 219.124 8.47231 219.124H213.479C217.626 219.124 221 215.764 221 211.634V206.927C221 202.797 217.626 199.437 213.479 199.437ZM150.455 199.437L137.742 185.454C136.546 184.139 134.508 184.039 133.189 185.229C131.869 186.419 131.768 188.448 132.963 189.763L141.759 199.438H80.1936L110.976 165.576L122.848 178.636C123.484 179.336 124.36 179.692 125.239 179.692C126.011 179.692 126.785 179.418 127.401 178.862C128.721 177.672 128.823 175.643 127.628 174.328L115.323 160.793L130.639 143.945L157.905 199.437H150.455ZM128.217 128.635V135.068H93.7309V128.635H128.217ZM98.2909 122.215L110.976 109.584L123.661 122.215H98.2909V122.215ZM115.534 105.045L128.217 92.415V117.675L115.534 105.045ZM128.217 75.0032V81.4545H93.7309V75.0032H128.217ZM98.2918 68.5836L110.976 55.9536L123.659 68.5836H98.2918ZM123.661 87.8742L110.976 100.505L98.2905 87.8742H123.661ZM115.534 51.4145L128.217 38.7849V64.0445L115.534 51.4145ZM110.976 46.8754L98.2892 34.2428H123.662L110.976 46.8754ZM106.417 51.4145L93.7309 64.0466V38.7824L106.417 51.4145ZM106.417 105.045L93.7309 117.677V92.4124L106.417 105.045ZM124.177 141.488L110.976 156.01L97.7739 141.488H124.177ZM187.042 119.962V122.215H134.664V89.8039L182.823 113.232C185.386 114.479 187.042 117.121 187.042 119.962ZM116.485 6.42482L126.403 27.8228H95.5485L105.466 6.42525L116.485 6.42482ZM91.3126 143.945L106.628 160.793L71.4983 199.437H64.0458L91.3126 143.945ZM214.553 211.634C214.553 212.224 214.071 212.704 213.479 212.704H8.47231C7.88007 212.704 7.39786 212.224 7.39786 211.634V206.927C7.39786 206.337 7.88007 205.857 8.47231 205.857H213.479C214.071 205.857 214.553 206.337 214.553 206.927V211.634Z" fill="white"/>
</svg>
