<svg viewBox="0 0 221 220" fill="none" xmlns="http://www.w3.org/2000/svg">
<g opacity="0.35" clip-path="url(#clip0)">
<path d="M110.976 30.9375C111.888 30.9375 112.762 30.5753 113.407 29.9307C114.052 29.286 114.414 28.4117 114.414 27.5V3.4375C114.414 2.52582 114.052 1.65148 113.407 1.00682C112.762 0.362164 111.888 0 110.976 0C110.064 0 109.189 0.362164 108.544 1.00682C107.9 1.65148 107.537 2.52582 107.537 3.4375V27.5C107.537 28.4117 107.9 29.286 108.544 29.9307C109.189 30.5753 110.064 30.9375 110.976 30.9375Z" fill="white"/>
<path d="M79.524 33.6531C79.7654 34.3162 80.2051 34.8889 80.7833 35.2937C81.3614 35.6984 82.0501 35.9156 82.7559 35.9157C83.157 35.9156 83.5549 35.8445 83.9311 35.7056C84.3557 35.5516 84.7457 35.3154 85.0788 35.0105C85.4119 34.7056 85.6816 34.338 85.8724 33.9287C86.0633 33.5195 86.1715 33.0767 86.191 32.6256C86.2105 32.1744 86.1407 31.7239 85.9858 31.2998L81.8678 19.9938C81.5452 19.1515 80.9044 18.4696 80.0835 18.0954C79.2626 17.7211 78.3275 17.6844 77.4798 17.9932C76.6321 18.302 75.9398 18.9316 75.5522 19.7461C75.1645 20.5606 75.1126 21.4948 75.4077 22.3472L79.524 33.6531Z" fill="white"/>
<path d="M27.3728 65.712L37.7949 71.7276C38.5847 72.1834 39.5234 72.3069 40.4043 72.0708C41.2852 71.8347 42.0363 71.2585 42.4922 70.4688C42.9481 69.6791 43.0716 68.7406 42.8355 67.8599C42.5994 66.9792 42.023 66.2283 41.2331 65.7725L30.8111 59.7568C30.4199 59.5311 29.9882 59.3847 29.5405 59.3258C29.0927 59.2669 28.6378 59.2967 28.2016 59.4136C27.7654 59.5305 27.3565 59.7321 26.9983 60.007C26.64 60.2819 26.3395 60.6246 26.1137 61.0157C25.8879 61.4067 25.7414 61.8383 25.6825 62.286C25.6236 62.7336 25.6535 63.1884 25.7704 63.6245C25.8873 64.0606 26.089 64.4694 26.3639 64.8276C26.6389 65.1857 26.9817 65.4863 27.3728 65.712Z" fill="white"/>
<path d="M17.857 129.853C18.0585 129.853 18.2595 129.835 18.458 129.801L30.3073 127.711C31.2055 127.552 32.0039 127.044 32.527 126.297C33.05 125.55 33.2548 124.625 33.0962 123.727C32.9377 122.829 32.4289 122.031 31.6816 121.508C30.9344 120.985 30.01 120.781 29.1118 120.939L17.2625 123.029C16.4154 123.178 15.6549 123.638 15.131 124.32C14.6071 125.002 14.3578 125.856 14.4325 126.713C14.5071 127.569 14.9002 128.367 15.5341 128.948C16.1681 129.529 16.9969 129.852 17.857 129.852V129.853Z" fill="white"/>
<path d="M55.3018 170.989L47.5658 180.204C47.2667 180.548 47.0391 180.949 46.8964 181.382C46.7537 181.815 46.6987 182.272 46.7345 182.727C46.7703 183.182 46.8964 183.625 47.1052 184.031C47.314 184.436 47.6015 184.796 47.9509 185.089C48.3002 185.383 48.7045 185.604 49.1401 185.739C49.5758 185.875 50.034 185.922 50.4882 185.879C50.9424 185.836 51.3834 185.703 51.7856 185.487C52.1878 185.272 52.5431 184.979 52.8308 184.625L60.5669 175.41C60.866 175.065 61.0935 174.665 61.2362 174.231C61.3789 173.798 61.434 173.341 61.3981 172.886C61.3623 172.431 61.2362 171.988 61.0274 171.583C60.8186 171.177 60.5311 170.817 60.1817 170.524C59.8324 170.231 59.4281 170.01 58.9925 169.874C58.5568 169.739 58.0986 169.691 57.6444 169.734C57.1902 169.778 56.7492 169.911 56.347 170.126C55.9448 170.341 55.5895 170.635 55.3018 170.989Z" fill="white"/>
<path d="M55.3019 49.0112C55.5895 49.3653 55.9448 49.6585 56.347 49.8739C56.7492 50.0893 57.1902 50.2225 57.6444 50.2657C58.0986 50.309 58.5569 50.2614 58.9925 50.1259C59.4281 49.9903 59.8324 49.7694 60.1818 49.476C60.5311 49.1826 60.8186 48.8227 61.0274 48.4171C61.2363 48.0116 61.3623 47.5685 61.3981 47.1138C61.434 46.6591 61.3789 46.2017 61.2362 45.7685C61.0935 45.3352 60.866 44.9347 60.5669 44.5902L45.0947 26.1573C44.807 25.8033 44.4517 25.51 44.0495 25.2947C43.6474 25.0793 43.2063 24.9461 42.7521 24.9028C42.2979 24.8596 41.8397 24.9071 41.4041 25.0427C40.9684 25.1783 40.5642 25.3992 40.2148 25.6926C39.8654 25.9859 39.5779 26.3459 39.3691 26.7514C39.1603 27.157 39.0343 27.6 38.9984 28.0548C38.9626 28.5095 39.0176 28.9668 39.1603 29.4001C39.303 29.8333 39.5306 30.2339 39.8297 30.5783L55.3019 49.0112Z" fill="white"/>
<path d="M29.7129 99.1117C30.5726 99.111 31.4009 98.7883 32.0345 98.2073C32.668 97.6262 33.0608 96.8289 33.1354 95.9725C33.21 95.1162 32.9611 94.263 32.4376 93.5812C31.9141 92.8993 31.154 92.4383 30.3073 92.289L6.60532 88.1093C5.70711 87.9509 4.78273 88.1556 4.03554 88.6786C3.28835 89.2015 2.77954 89.9998 2.62106 90.8978C2.46257 91.7958 2.66739 92.72 3.19045 93.467C3.71351 94.2141 4.51197 94.7227 5.41018 94.8812L29.1105 99.0598C29.3094 99.0944 29.5109 99.1118 29.7129 99.1117Z" fill="white"/>
<path d="M37.7948 148.272L16.9503 160.304C16.1604 160.76 15.584 161.51 15.3479 162.391C15.1118 163.272 15.2353 164.21 15.6912 165C16.1472 165.79 16.8982 166.366 17.7791 166.602C18.6601 166.838 19.5987 166.715 20.3886 166.259L41.233 154.228C41.6242 154.002 41.967 153.701 42.2419 153.343C42.5168 152.985 42.7185 152.576 42.8355 152.14C42.9524 151.704 42.9822 151.249 42.9233 150.802C42.8644 150.354 42.7179 149.922 42.4921 149.531C42.2664 149.14 41.9658 148.798 41.6076 148.523C41.2493 148.248 40.8404 148.046 40.4042 147.929C39.968 147.812 39.5131 147.782 39.0654 147.841C38.6176 147.9 38.1859 148.047 37.7948 148.272Z" fill="white"/>
<path d="M138.022 35.7043C138.398 35.8431 138.796 35.9143 139.197 35.9143C139.903 35.9142 140.591 35.6971 141.169 35.2923C141.748 34.8876 142.187 34.3148 142.429 33.6517L146.543 22.3472C146.838 21.4948 146.786 20.5606 146.399 19.7461C146.011 18.9316 145.319 18.302 144.471 17.9932C143.624 17.6844 142.688 17.7211 141.868 18.0954C141.047 18.4696 140.406 19.1515 140.083 19.9938L135.967 31.2984C135.812 31.7226 135.742 32.1731 135.762 32.6242C135.781 33.0753 135.889 33.5181 136.08 33.9274C136.271 34.3366 136.541 34.7042 136.874 35.0091C137.207 35.314 137.597 35.5502 138.022 35.7043Z" fill="white"/>
<path d="M179.459 70.4688C179.915 71.2582 180.666 71.8342 181.547 72.0702C182.428 72.3062 183.366 72.183 184.156 71.7276L194.578 65.712C194.969 65.4863 195.312 65.1857 195.587 64.8276C195.862 64.4694 196.064 64.0606 196.181 63.6245C196.298 63.1884 196.328 62.7336 196.269 62.286C196.21 61.8383 196.063 61.4067 195.837 61.0157C195.612 60.6246 195.311 60.2819 194.953 60.007C194.595 59.7321 194.186 59.5305 193.75 59.4136C193.313 59.2967 192.858 59.2669 192.411 59.3258C191.963 59.3847 191.531 59.5311 191.14 59.7568L180.718 65.7725C180.327 65.9981 179.984 66.2986 179.709 66.6568C179.434 67.0149 179.232 67.4237 179.115 67.8599C178.998 68.296 178.969 68.7508 179.028 69.1985C179.087 69.6461 179.233 70.0778 179.459 70.4688Z" fill="white"/>
<path d="M204.689 123.03L192.841 120.94C191.942 120.782 191.018 120.986 190.271 121.509C189.524 122.032 189.015 122.83 188.856 123.729C188.698 124.627 188.902 125.551 189.425 126.298C189.948 127.045 190.747 127.554 191.645 127.712L203.494 129.802C203.693 129.837 203.894 129.854 204.095 129.854C204.956 129.854 205.784 129.531 206.418 128.95C207.052 128.369 207.445 127.571 207.52 126.715C207.595 125.858 207.345 125.005 206.821 124.323C206.298 123.641 205.537 123.18 204.69 123.031L204.689 123.03Z" fill="white"/>
<path d="M166.649 170.989C166.362 170.635 166.006 170.341 165.604 170.126C165.202 169.911 164.761 169.778 164.307 169.734C163.853 169.691 163.394 169.739 162.959 169.874C162.523 170.01 162.119 170.231 161.769 170.524C161.42 170.817 161.133 171.177 160.924 171.583C160.715 171.988 160.589 172.431 160.553 172.886C160.517 173.341 160.572 173.798 160.715 174.231C160.858 174.665 161.085 175.065 161.384 175.41L169.12 184.625C169.712 185.306 170.547 185.727 171.447 185.798C172.346 185.869 173.237 185.584 173.928 185.003C174.619 184.423 175.054 183.595 175.139 182.697C175.225 181.799 174.954 180.904 174.385 180.204L166.649 170.989Z" fill="white"/>
<path d="M164.013 50.2381C164.516 50.2392 165.012 50.1299 165.468 49.9179C165.923 49.7059 166.327 49.3964 166.649 49.0112L182.121 30.5783C182.421 30.2339 182.648 29.8333 182.791 29.4001C182.934 28.9668 182.989 28.5095 182.953 28.0548C182.917 27.6 182.791 27.157 182.582 26.7514C182.373 26.3459 182.086 25.9859 181.736 25.6926C181.387 25.3992 180.983 25.1783 180.547 25.0427C180.111 24.9071 179.653 24.8596 179.199 24.9028C178.745 24.9461 178.304 25.0793 177.902 25.2947C177.499 25.51 177.144 25.8033 176.856 26.1573L161.384 44.5902C160.964 45.0912 160.695 45.7017 160.609 46.3502C160.523 46.9986 160.624 47.6581 160.9 48.2511C161.176 48.8441 161.616 49.346 162.167 49.698C162.719 50.0499 163.359 50.2373 164.013 50.2381Z" fill="white"/>
<path d="M215.346 88.1093L191.644 92.2889C190.797 92.4382 190.037 92.8993 189.514 93.5811C188.99 94.263 188.741 95.1162 188.816 95.9725C188.89 96.8288 189.283 97.6261 189.917 98.2072C190.55 98.7883 191.379 99.111 192.238 99.1117C192.44 99.1117 192.641 99.0943 192.839 99.0598L216.541 94.8805C217.439 94.722 218.238 94.2133 218.761 93.4663C219.284 92.7193 219.489 91.7951 219.33 90.8971C219.172 89.9991 218.663 89.2008 217.916 88.6779C217.168 88.1549 216.244 87.9501 215.346 88.1086V88.1093Z" fill="white"/>
<path d="M205.001 160.304L184.156 148.272C183.765 148.047 183.333 147.9 182.886 147.841C182.438 147.782 181.983 147.812 181.547 147.929C181.111 148.046 180.702 148.248 180.343 148.523C179.985 148.798 179.685 149.14 179.459 149.531C179.233 149.922 179.087 150.354 179.028 150.802C178.969 151.249 178.999 151.704 179.116 152.14C179.232 152.576 179.434 152.985 179.709 153.343C179.984 153.701 180.327 154.002 180.718 154.228L201.562 166.259C202.352 166.715 203.291 166.838 204.172 166.602C205.053 166.366 205.804 165.79 206.26 165C206.716 164.21 206.839 163.272 206.603 162.391C206.367 161.51 205.791 160.76 205.001 160.304Z" fill="white"/>
<path d="M110.976 37.8125C92.7442 37.8331 75.2654 45.0829 62.3739 57.9716C49.4824 70.8603 42.2309 88.3352 42.2103 106.562C42.1817 115.785 44.0288 124.918 47.6392 133.405C51.2496 141.893 56.548 149.558 63.2126 155.935C66.3211 158.849 68.8052 162.364 70.5142 166.267C72.2232 170.17 73.1215 174.379 73.1547 178.639V195.938C73.1547 196.849 73.5169 197.724 74.1617 198.368C74.8065 199.013 75.681 199.375 76.5929 199.375H87.1828C88.0033 205.099 90.8609 210.336 95.2313 214.123C99.6016 217.911 105.192 219.997 110.976 219.997C116.76 219.997 122.35 217.911 126.72 214.123C131.09 210.336 133.948 205.099 134.768 199.375H145.358C146.27 199.375 147.145 199.013 147.789 198.368C148.434 197.724 148.796 196.849 148.796 195.938V178.639C148.83 174.379 149.728 170.17 151.437 166.267C153.146 162.364 155.63 158.849 158.739 155.935C165.403 149.558 170.702 141.893 174.312 133.405C177.922 124.918 179.769 115.785 179.741 106.562C179.72 88.3352 172.469 70.8603 159.577 57.9716C146.686 45.0829 129.207 37.8331 110.976 37.8125ZM110.976 213.125C107.014 213.12 103.176 211.749 100.107 209.245C97.0388 206.74 94.9278 203.254 94.1301 199.375H127.821C127.023 203.254 124.912 206.74 121.844 209.245C118.775 211.749 114.937 213.12 110.976 213.125ZM80.0312 192.5V182.188H141.92V192.5H80.0312ZM97.2225 127.188H88.6269C86.9268 127.188 85.2649 126.683 83.8514 125.739C82.4378 124.795 81.3361 123.453 80.6855 121.882C80.0349 120.312 79.8647 118.584 80.1964 116.917C80.528 115.25 81.3467 113.719 82.5488 112.517C83.7509 111.315 85.2825 110.497 86.9499 110.165C88.6173 109.834 90.3456 110.004 91.9163 110.654C93.4869 111.305 94.8294 112.406 95.7739 113.819C96.7184 115.233 97.2225 116.894 97.2225 118.594V127.188ZM117.852 175.312H104.099V134.062H117.852V175.312ZM153.964 150.986C147.192 157.391 142.973 166.034 142.092 175.312H124.729V134.062H133.324C136.384 134.062 139.376 133.155 141.92 131.456C144.465 129.756 146.448 127.34 147.619 124.513C148.79 121.687 149.096 118.577 148.499 115.576C147.902 112.575 146.429 109.819 144.265 107.656C142.101 105.492 139.344 104.019 136.343 103.422C133.341 102.825 130.231 103.132 127.403 104.302C124.576 105.473 122.16 107.456 120.46 110C118.76 112.544 117.852 115.534 117.852 118.594V127.188H104.099V118.594C104.099 115.534 103.192 112.544 101.492 110C99.7914 107.456 97.375 105.473 94.5478 104.302C91.7206 103.132 88.6097 102.825 85.6084 103.422C82.6071 104.019 79.8502 105.492 77.6864 107.656C75.5225 109.819 74.049 112.575 73.452 115.576C72.855 118.577 73.1614 121.687 74.3324 124.513C75.5035 127.34 77.4866 129.756 80.031 131.456C82.5753 133.155 85.5667 134.062 88.6269 134.062H97.2225V175.312H79.8593C78.9778 166.034 74.7596 157.391 67.9873 150.986C61.9902 145.249 57.2222 138.352 53.9731 130.715C50.7241 123.079 49.0616 114.861 49.0868 106.562C49.0868 90.1522 55.6072 74.4141 67.2136 62.8103C78.82 51.2065 94.5617 44.6875 110.976 44.6875C127.389 44.6875 143.131 51.2065 154.738 62.8103C166.344 74.4141 172.864 90.1522 172.864 106.562C172.89 114.861 171.227 123.079 167.978 130.715C164.729 138.352 159.961 145.249 153.964 150.986ZM124.729 127.188V118.594C124.729 116.894 125.233 115.233 126.177 113.819C127.122 112.406 128.464 111.305 130.035 110.654C131.606 110.004 133.334 109.834 135.001 110.165C136.669 110.497 138.2 111.315 139.402 112.517C140.604 113.719 141.423 115.25 141.755 116.917C142.086 118.584 141.916 120.312 141.266 121.882C140.615 123.453 139.513 124.795 138.1 125.739C136.686 126.683 135.024 127.188 133.324 127.188H124.729Z" fill="white"/>
<path d="M163.852 91.3687C160.515 79.9175 153.562 69.8529 144.032 62.6783C134.502 55.5038 122.906 51.6043 110.976 51.5625C110.064 51.5625 109.189 51.9247 108.544 52.5693C107.9 53.214 107.537 54.0883 107.537 55C107.537 55.9117 107.9 56.786 108.544 57.4307C109.189 58.0753 110.064 58.4375 110.976 58.4375C121.415 58.4741 131.562 61.8862 139.901 68.1641C148.24 74.4421 154.324 83.2488 157.244 93.269C157.506 94.1333 158.098 94.8597 158.892 95.2913C159.685 95.7229 160.617 95.8249 161.485 95.5753C162.353 95.3257 163.088 94.7445 163.531 93.9574C163.974 93.1703 164.09 92.2405 163.852 91.3691V91.3687Z" fill="white"/>
</g>
<defs>
<clipPath id="clip0">
<rect width="220.049" height="220" fill="white" transform="translate(0.951111)"/>
</clipPath>
</defs>
</svg>
