<svg viewBox="0 0 221 220" fill="none" xmlns="http://www.w3.org/2000/svg">
<g opacity="0.35">
<path d="M110.92 6.87501C86.5805 6.86643 63.0229 15.4702 44.4178 31.1631C25.8128 46.8561 13.3604 68.6259 9.26523 92.6185C5.17007 116.611 9.69628 141.279 22.0426 162.255C34.3888 183.231 53.7588 199.161 76.7232 207.227L75.5682 214.686C75.4762 215.283 75.5427 215.893 75.761 216.455C75.9793 217.018 76.3417 217.513 76.8119 217.891C77.282 218.269 77.8434 218.517 78.4397 218.61C79.0359 218.703 79.6461 218.637 80.2088 218.419L112.163 206.019C112.726 205.8 113.221 205.438 113.6 204.968C113.978 204.497 114.225 203.935 114.318 203.339C114.41 202.743 114.343 202.132 114.125 201.57C113.907 201.007 113.544 200.512 113.073 200.134L86.3589 178.657C85.8886 178.278 85.3268 178.03 84.7301 177.937C84.1334 177.845 83.5229 177.911 82.96 178.13C82.3971 178.348 81.9018 178.711 81.5239 179.182C81.1461 179.653 80.899 180.216 80.8076 180.812L79.9366 186.442C66.0679 180.82 53.9898 171.531 44.9961 159.57C36.0023 147.609 30.4317 133.427 28.8808 118.542C27.33 103.658 29.8573 88.6319 36.1922 75.0738C42.527 61.5157 52.4307 49.9363 64.8425 41.5758C77.2543 33.2152 91.7066 28.3885 106.652 27.6126C121.596 26.8368 136.471 30.1409 149.682 37.1712C162.892 44.2016 173.942 54.6932 181.647 67.5224C189.352 80.3515 193.421 95.035 193.42 110C193.42 110.912 193.782 111.786 194.427 112.431C195.072 113.075 195.946 113.438 196.858 113.438H210.608C211.519 113.438 212.394 113.075 213.038 112.431C213.683 111.786 214.045 110.912 214.045 110C214.014 82.659 203.139 56.4468 183.806 37.1138C164.473 17.7808 138.261 6.90594 110.92 6.87501ZM200.23 106.563C199.608 90.3147 194.566 74.5442 185.647 60.9494C176.727 47.3547 164.268 36.4507 149.61 29.4119C134.953 22.3731 118.654 19.4661 102.467 21.004C86.28 22.5419 70.8194 28.4664 57.75 38.1395C44.6805 47.8125 34.4975 60.8677 28.2976 75.8989C22.0976 90.9302 20.1156 107.368 22.5651 123.442C25.0145 139.516 31.8026 154.618 42.1982 167.12C52.5938 179.622 66.2031 189.052 81.5605 194.393C82.0364 194.559 82.543 194.618 83.0444 194.566C83.5457 194.515 84.0295 194.353 84.4614 194.093C84.8933 193.833 85.2627 193.482 85.5434 193.063C85.8241 192.644 86.0092 192.169 86.0856 191.671L86.693 187.747L104.127 201.762L83.2723 209.855L83.9598 205.414C84.0856 204.604 83.9179 203.777 83.487 203.08C83.0561 202.383 82.3904 201.863 81.61 201.614C64.8303 196.242 49.8475 186.367 38.2954 173.064C26.7432 159.762 19.0652 143.542 16.0984 126.176C13.1316 108.809 14.9901 90.9604 21.471 74.5772C27.952 58.194 38.8067 43.9046 52.8516 33.2672C66.8965 22.6298 83.5924 16.0528 101.119 14.2532C118.645 12.4535 136.329 15.5005 152.243 23.0618C168.156 30.623 181.688 42.4083 191.363 57.1326C201.039 71.857 206.485 88.955 207.11 106.563H200.23Z" fill="white"/>
<path d="M157.769 100.638L126.316 95.1991C127.585 90.1252 129.756 85.321 132.726 81.0163C133.998 79.1766 135.15 77.562 136.185 76.1117C141.158 69.1494 143.895 65.3159 143.895 58.4374C143.895 48.5179 132.067 37.8124 112.958 37.8124C107.539 37.5306 102.127 38.4886 97.1341 40.6136C92.1412 42.7387 87.6988 45.9747 84.1451 50.0754C81.2305 53.2633 79.2458 57.1893 78.4069 61.4264C77.568 65.6636 77.9069 70.0497 79.3869 74.1076L90.4037 104.066C85.3746 105.499 80.1298 106.02 74.9171 105.606C72.6913 105.428 70.7209 105.237 68.9499 105.062C60.4318 104.237 55.7355 103.786 49.7769 107.224C41.1866 112.185 37.8296 127.78 47.3834 144.328C49.8491 149.162 53.3852 153.37 57.7225 156.632C62.0598 159.894 67.0841 162.123 72.4129 163.15C74.0943 163.47 75.8018 163.633 77.5134 163.637C80.9636 163.68 84.3796 162.95 87.5102 161.499C90.6409 160.049 93.4066 157.915 95.604 155.255L116.04 130.735C119.8 134.371 122.875 138.653 125.117 143.378C126.075 145.396 126.896 147.202 127.633 148.823C131.176 156.611 133.128 160.901 139.087 164.339C141.334 165.595 143.873 166.236 146.447 166.195C149.73 166.135 152.96 165.362 155.914 163.929C162.948 160.413 168.715 154.798 172.417 147.86C175.371 143.307 177.247 138.14 177.904 132.753C178.56 127.366 177.978 121.9 176.204 116.771C174.899 112.654 172.491 108.973 169.241 106.128C165.991 103.284 162.023 101.385 157.769 100.638ZM110.92 123.75C108.201 123.75 105.542 122.944 103.281 121.433C101.02 119.922 99.2575 117.774 98.2168 115.262C97.1761 112.749 96.9038 109.985 97.4343 107.317C97.9649 104.65 99.2744 102.2 101.197 100.277C103.12 98.3543 105.57 97.0447 108.238 96.5141C110.905 95.9836 113.67 96.2559 116.182 97.2966C118.694 98.3373 120.842 100.1 122.353 102.361C123.864 104.622 124.67 107.28 124.67 110C124.666 113.646 123.216 117.141 120.639 119.718C118.061 122.296 114.566 123.746 110.92 123.75ZM89.3618 54.5531C92.2874 51.2246 95.9327 48.6063 100.021 46.8969C104.11 45.1875 108.534 44.4319 112.958 44.6874C128.452 44.6874 137.02 52.8178 137.02 58.4374C137.02 63.1124 135.139 65.749 130.592 72.1187C129.538 73.5968 128.365 75.2372 127.071 77.1103C124.047 81.5575 121.707 86.4321 120.127 91.5722C115.972 89.4787 111.229 88.8587 106.676 89.8138C102.122 90.769 98.0284 93.2425 95.065 96.8292L85.8384 71.7392C84.7991 68.8261 84.5781 65.6838 85.1993 62.6539C85.8205 59.624 87.2601 56.8222 89.3618 54.5531ZM90.3243 150.85C88.3213 153.206 85.7113 154.969 82.7775 155.946C79.8437 156.924 76.6982 157.079 73.6824 156.396C69.3367 155.526 65.2463 153.677 61.7215 150.99C58.1967 148.304 55.3302 144.85 53.3392 140.89C45.5914 127.472 48.3493 115.988 53.2151 113.179C57.2714 110.836 60.493 111.15 68.2862 111.907C70.0905 112.081 72.0963 112.276 74.3619 112.461C79.7251 112.857 85.1175 112.447 90.3587 111.242C90.6431 115.88 92.485 120.286 95.5862 123.747C98.6873 127.207 102.866 129.519 107.445 130.309L90.3243 150.85ZM166.463 144.422C163.416 150.099 158.727 154.725 153.01 157.695C151.433 158.609 149.667 159.147 147.848 159.266C146.03 159.386 144.208 159.083 142.526 158.383C138.474 156.045 137.133 153.099 133.892 145.973C133.141 144.325 132.305 142.489 131.33 140.431C128.992 135.593 125.943 131.133 122.285 127.197C126.177 124.645 129.085 120.845 130.531 116.422C131.978 111.998 131.877 107.214 130.245 102.856L156.6 107.413C159.641 107.97 162.472 109.349 164.785 111.401C167.098 113.452 168.805 116.098 169.72 119.052C171.139 123.25 171.583 127.717 171.018 132.113C170.454 136.508 168.896 140.718 166.462 144.422H166.463Z" fill="white"/>
</g>
</svg>
