<svg width="221" height="220" viewBox="0 0 221 220" fill="none" xmlns="http://www.w3.org/2000/svg">
<g opacity="0.35" clip-path="url(#clip0)">
<path d="M97.2225 55.2148H59.4016C57.621 55.2148 56.1782 56.6573 56.1782 58.4375V161.562C56.1782 163.343 57.621 164.785 59.4016 164.785H162.55C164.33 164.785 165.773 163.343 165.773 161.562V104.844C165.773 103.064 164.33 101.621 162.55 101.621C160.769 101.621 159.326 103.064 159.326 104.844V158.34H62.625V61.6602H97.2225C99.0031 61.6602 100.446 60.2177 100.446 58.4375C100.446 56.6573 99.0031 55.2148 97.2225 55.2148Z" fill="white"/>
<path d="M162.55 93.0273C164.33 93.0273 165.773 91.5849 165.773 89.8047V58.4375C165.773 56.6573 164.33 55.2148 162.55 55.2148H112.48C110.699 55.2148 109.256 56.6573 109.256 58.4375C109.256 60.2177 110.699 61.6602 112.48 61.6602H159.326V89.8047C159.326 91.5849 160.769 93.0273 162.55 93.0273Z" fill="white"/>
<path d="M82.2638 116.87C83.3963 119.136 85.6728 120.543 88.2055 120.543H103.026L94.3403 140.629C93.1558 143.368 93.427 146.492 95.0662 148.986C96.7049 151.48 99.4654 152.969 102.451 152.969C105.216 152.969 107.858 151.649 109.518 149.437L115.202 141.866C116.27 140.443 115.982 138.422 114.559 137.353C113.135 136.285 111.113 136.574 110.045 137.997L104.362 145.568C103.913 146.166 103.199 146.523 102.451 146.523C101.287 146.523 100.667 145.77 100.454 145.446C100.241 145.123 99.7959 144.254 100.258 143.186L110.89 118.599C111.321 117.603 111.222 116.457 110.626 115.55C110.029 114.643 109.017 114.097 107.932 114.097H88.2055C88.1458 114.097 88.0844 114.097 88.0302 113.989C87.976 113.88 88.013 113.831 88.0491 113.783L117.588 74.4313C118.036 73.8332 118.751 73.4761 119.498 73.4761C120.662 73.4761 121.283 74.2294 121.495 74.5534C121.708 74.8769 122.153 75.7453 121.692 76.8131L111.059 101.401C110.628 102.397 110.727 103.542 111.324 104.45C111.92 105.356 112.932 105.903 114.017 105.903H133.744C133.803 105.903 133.865 105.903 133.919 106.011C133.973 106.119 133.936 106.169 133.9 106.217L119.075 125.967C118.007 127.39 118.295 129.411 119.719 130.479C121.142 131.547 123.163 131.258 124.232 129.836L139.057 110.086C140.577 108.06 140.818 105.395 139.685 103.13C138.553 100.864 136.276 99.4572 133.744 99.4572H118.923L127.609 79.3714C128.793 76.6322 128.522 73.5079 126.883 71.014C125.244 68.5201 122.484 67.0312 119.498 67.0312C116.733 67.0312 114.091 68.3512 112.431 70.5628L82.8926 109.914C81.3724 111.94 81.1318 114.605 82.2638 116.87Z" fill="white"/>
<path d="M209.033 144.368C203.633 144.368 199.071 148.008 197.664 152.961H190.183C189.896 152.961 189.627 152.85 189.423 152.646L178.666 141.892V113.223H197.812C199.219 118.176 203.782 121.816 209.181 121.816C215.698 121.816 221 116.515 221 110C221 103.485 215.698 98.1836 209.181 98.1836C203.782 98.1836 199.219 101.824 197.812 106.777H178.666V78.5374L189.424 67.7823C189.627 67.5795 189.897 67.4682 190.184 67.4682H197.665C199.072 72.4217 203.634 76.062 209.033 76.062C215.55 76.062 220.852 70.7609 220.852 64.2456C220.852 57.7302 215.55 52.4292 209.033 52.4292C203.634 52.4292 199.072 56.0695 197.665 61.0229H190.184C188.174 61.0229 186.285 61.8054 184.866 63.2255L178.666 69.4229V51.9922C178.666 46.6615 174.328 42.3242 168.996 42.3242H151.421L157.768 35.9786C159.189 34.558 159.971 32.67 159.971 30.6612V23.1825C164.925 21.7757 168.566 17.2146 168.566 11.8164C168.566 5.30105 163.264 0 156.747 0C150.231 0 144.928 5.30105 144.928 11.8164C144.928 17.2146 148.57 21.7757 153.524 23.1825V30.6616C153.524 30.9444 153.409 31.2215 153.209 31.4213C153.057 31.5863 142.5 42.1042 142.316 42.3246H114.414V23.1215C119.259 21.6455 122.795 17.1368 122.795 11.8164C122.795 5.30105 117.492 0 110.976 0C104.459 0 99.1565 5.30105 99.1565 11.8164C99.1565 17.2928 102.903 21.9098 107.967 23.2435V42.3242H80.0647C79.9225 42.1446 69.2845 31.5468 69.1714 31.4209C68.9716 31.2211 68.8568 30.9444 68.8568 30.6612V23.1825C73.8114 21.7757 77.4525 17.2146 77.4525 11.8164C77.4525 5.30105 72.1503 0 65.6335 0C59.1167 0 53.8144 5.30105 53.8144 11.8164C53.8144 17.2146 57.4555 21.7757 62.4101 23.1825V30.6616C62.4101 32.6704 63.1923 34.5585 64.6127 35.979L70.9598 42.3242H52.9549C47.623 42.3242 43.2847 46.6615 43.2847 51.9922V69.5711L36.9381 63.2264C35.5177 61.8054 33.6288 61.0229 31.6191 61.0229H24.1388C22.7317 56.0695 18.1695 52.4292 12.7701 52.4292C6.25334 52.4292 0.951111 57.7302 0.951111 64.2456C0.951111 70.7609 6.25334 76.062 12.7701 76.062C18.1695 76.062 22.7317 72.4217 24.1388 67.4682H31.6196C31.9067 67.4682 32.1761 67.58 32.3799 67.7832C32.5445 67.9353 43.0655 78.4902 43.2852 78.6732V85.9375C43.2852 87.7177 44.7279 89.1602 46.5085 89.1602C48.2891 89.1602 49.7319 87.7177 49.7319 85.9375V51.9922C49.7319 50.215 51.1777 48.7695 52.9553 48.7695H168.997C170.774 48.7695 172.22 50.215 172.22 51.9922V168.008C172.22 169.785 170.774 171.23 168.997 171.23H52.9549C51.1773 171.23 49.7315 169.785 49.7315 168.008V100.977C49.7315 99.1964 48.2887 97.7539 46.5081 97.7539C44.7275 97.7539 43.2847 99.1964 43.2847 100.977V106.777H24.1388C22.7317 101.824 18.1695 98.1836 12.7701 98.1836C6.25334 98.1836 0.951111 103.485 0.951111 110C0.951111 116.515 6.25334 121.816 12.7701 121.816C18.1695 121.816 22.7317 118.176 24.1388 113.223H43.2847V141.756C43.1059 141.898 32.5036 152.535 32.3786 152.647C32.1757 152.85 31.9062 152.961 31.6191 152.961H24.1388C22.7317 148.008 18.1695 144.368 12.7701 144.368C6.25334 144.368 0.951111 149.669 0.951111 156.184C0.951111 162.699 6.25334 168.001 12.7701 168.001C18.1695 168.001 22.7317 164.36 24.1388 159.407H31.6196C33.6292 159.407 35.5181 158.624 36.9377 157.204L43.2847 150.859V168.008C43.2847 173.339 47.623 177.676 52.9549 177.676H70.9598L64.6127 184.021C63.1923 185.442 62.4101 187.33 62.4101 189.339V196.818C57.4555 198.225 53.8144 202.786 53.8144 208.184C53.8144 214.699 59.1167 220 65.6335 220C72.1503 220 77.4525 214.699 77.4525 208.184C77.4525 202.786 73.8114 198.225 68.8568 196.818V189.339C68.8568 189.056 68.9716 188.779 69.1714 188.579C69.324 188.414 79.8812 177.896 80.0647 177.676H107.967V196.756C102.903 198.09 99.1565 202.707 99.1565 208.184C99.1565 214.699 104.459 220 110.976 220C117.492 220 122.795 214.699 122.795 208.184C122.795 202.864 119.259 198.354 114.414 196.879V177.676H142.316C142.458 177.855 153.096 188.453 153.209 188.579C153.41 188.779 153.524 189.056 153.524 189.339V196.818C148.57 198.225 144.928 202.786 144.928 208.184C144.928 214.699 150.231 220 156.747 220C163.264 220 168.566 214.699 168.566 208.184C168.566 202.786 164.925 198.225 159.971 196.818V189.339C159.971 187.33 159.189 185.442 157.768 184.021L151.421 177.676H168.996C174.328 177.676 178.666 173.339 178.666 168.008V151.007L184.865 157.203C186.285 158.624 188.174 159.407 190.184 159.407H197.665C199.072 164.36 203.634 168.001 209.033 168.001C215.55 168.001 220.852 162.699 220.852 156.184C220.852 149.669 215.549 144.368 209.033 144.368ZM209.181 104.629C212.143 104.629 214.553 107.038 214.553 110C214.553 112.962 212.143 115.371 209.181 115.371C206.218 115.371 203.809 112.962 203.809 110C203.809 107.038 206.218 104.629 209.181 104.629ZM209.033 58.8745C211.995 58.8745 214.405 61.2837 214.405 64.2456C214.405 67.2074 211.995 69.6167 209.033 69.6167C206.07 69.6167 203.66 67.2074 203.66 64.2456C203.66 61.2837 206.071 58.8745 209.033 58.8745ZM151.375 11.8164C151.375 8.85457 153.785 6.44531 156.747 6.44531C159.71 6.44531 162.12 8.85457 162.12 11.8164C162.12 14.7782 159.71 17.1875 156.747 17.1875C153.785 17.1875 151.375 14.7782 151.375 11.8164ZM105.603 11.8164C105.603 8.85457 108.013 6.44531 110.976 6.44531C113.938 6.44531 116.348 8.85457 116.348 11.8164C116.348 14.7782 113.938 17.1875 110.976 17.1875C108.013 17.1875 105.603 14.7782 105.603 11.8164ZM60.2612 11.8164C60.2612 8.85457 62.671 6.44531 65.6335 6.44531C68.5959 6.44531 71.0057 8.85457 71.0057 11.8164C71.0057 14.7782 68.5959 17.1875 65.6335 17.1875C62.671 17.1875 60.2612 14.7782 60.2612 11.8164ZM12.7701 69.6167C9.80765 69.6167 7.39786 67.2074 7.39786 64.2456C7.39786 61.2837 9.80765 58.8745 12.7701 58.8745C15.7326 58.8745 18.1424 61.2837 18.1424 64.2456C18.1424 67.2074 15.7326 69.6167 12.7701 69.6167ZM12.7701 115.371C9.80765 115.371 7.39786 112.962 7.39786 110C7.39786 107.038 9.80765 104.629 12.7701 104.629C15.7326 104.629 18.1424 107.038 18.1424 110C18.1424 112.962 15.7326 115.371 12.7701 115.371ZM12.7701 161.555C9.80765 161.555 7.39786 159.146 7.39786 156.184C7.39786 153.222 9.80765 150.813 12.7701 150.813C15.7326 150.813 18.1424 153.222 18.1424 156.184C18.1424 159.146 15.7326 161.555 12.7701 161.555ZM71.0057 208.184C71.0057 211.145 68.5959 213.555 65.6335 213.555C62.671 213.555 60.2612 211.145 60.2612 208.184C60.2612 205.222 62.671 202.812 65.6335 202.812C68.5959 202.812 71.0057 205.222 71.0057 208.184ZM116.348 208.184C116.348 211.145 113.938 213.555 110.976 213.555C108.013 213.555 105.603 211.145 105.603 208.184C105.603 205.222 108.013 202.812 110.976 202.812C113.938 202.812 116.348 205.222 116.348 208.184ZM162.12 208.184C162.12 211.145 159.71 213.555 156.747 213.555C153.785 213.555 151.375 211.145 151.375 208.184C151.375 205.222 153.785 202.812 156.747 202.812C159.71 202.812 162.12 205.222 162.12 208.184ZM209.033 161.555C206.07 161.555 203.66 159.146 203.66 156.184C203.66 153.222 206.07 150.813 209.033 150.813C211.995 150.813 214.405 153.222 214.405 156.184C214.405 159.146 211.995 161.555 209.033 161.555Z" fill="white"/>
</g>
<defs>
<clipPath id="clip0">
<rect width="220.049" height="220" fill="white" transform="translate(0.951111)"/>
</clipPath>
</defs>
</svg>
