<svg width="221" height="220" viewBox="0 0 221 220" fill="none" xmlns="http://www.w3.org/2000/svg">
<g opacity="0.35" clip-path="url(#clip0)">
<path d="M179.818 72.0005C179.21 70.7405 177.938 69.943 176.54 69.943H124.017L154.332 5.9539C154.868 4.82503 154.788 3.50315 154.117 2.4471C153.455 1.3947 152.293 0.753784 151.043 0.753784H78.1963C76.4407 0.753784 74.9327 2.00647 74.6158 3.73256L56.4041 102.054C56.2074 103.117 56.4915 104.214 57.1872 105.044C57.8756 105.878 58.9027 106.358 59.9845 106.358H102.021L60.2286 214.29C59.5802 215.969 60.2541 217.87 61.8166 218.762C62.3812 219.09 63.0077 219.246 63.6232 219.246C64.705 219.246 65.7649 218.766 66.4788 217.87L179.392 75.8496C180.259 74.7535 180.426 73.2605 179.818 72.0005ZM75.6576 194.618L110.733 104.032C111.167 102.91 111.021 101.65 110.344 100.656C109.663 99.6689 108.537 99.0754 107.335 99.0754H64.3626L81.2267 8.03686H145.288L114.973 72.026C114.438 73.1549 114.518 74.4768 115.188 75.5328C115.851 76.5852 117.013 77.2261 118.262 77.2261H168.993L75.6576 194.618Z" fill="white"/>
<path d="M38.1304 106.358H1.70691V113.641H38.1304V106.358Z" fill="white"/>
<path d="M220.248 106.358H183.824V113.641H220.248V106.358Z" fill="white"/>
<path d="M215.847 1.82539L190.353 27.3143L195.504 32.4642L220.998 6.97526L215.847 1.82539Z" fill="white"/>
<path d="M26.4591 183.897L0.964539 209.385L6.11555 214.535L31.6102 189.046L26.4591 183.897Z" fill="white"/>
<path d="M195.499 187.54L190.348 192.69L215.843 218.179L220.994 213.029L195.499 187.54Z" fill="white"/>
<path d="M6.10206 1.81828L0.95105 6.96814L26.4457 32.4571L31.5967 27.3072L6.10206 1.81828Z" fill="white"/>
</g>
<defs>
<clipPath id="clip0">
<rect width="220.049" height="220" fill="white" transform="translate(0.951111)"/>
</clipPath>
</defs>
</svg>
