<svg width="221" height="220" viewBox="0 0 221 220" fill="none" xmlns="http://www.w3.org/2000/svg">
<g opacity="0.35" clip-path="url(#clip0)">
<path d="M152.768 130.322H144.413C143.774 126.848 142.86 123.429 141.681 120.105L148.909 115.933C149.65 115.506 150.19 114.802 150.412 113.976C150.633 113.15 150.517 112.271 150.09 111.531L141.12 96.0016C140.23 94.4604 138.259 93.9327 136.718 94.8222L129.474 99.0026C127.182 96.3205 124.68 93.8193 121.997 91.5282L126.179 84.2888C126.606 83.5484 126.722 82.6684 126.501 81.843C126.28 81.0176 125.739 80.3133 124.999 79.8862L109.464 70.9204C107.922 70.0296 105.951 70.5581 105.06 72.0994L100.887 79.3259C97.5598 78.1468 94.1388 77.2329 90.664 76.594V68.2443C90.664 66.4641 89.2207 65.0216 87.4406 65.0216H69.5019C67.7217 65.0216 66.2785 66.4641 66.2785 68.2443V76.594C62.8041 77.2329 59.3826 78.1468 56.0557 79.3259L51.8821 72.0994C50.9915 70.5586 49.0197 70.0313 47.4789 70.9204L31.9436 79.8862C31.203 80.3133 30.6628 81.0176 30.4415 81.843C30.2201 82.6689 30.3362 83.5489 30.7638 84.2888L34.9452 91.5282C32.262 93.8193 29.7603 96.32 27.4682 99.0026L20.2247 94.8222C18.683 93.9314 16.7116 94.4599 15.8215 96.0012L6.85197 111.531C6.42434 112.271 6.30872 113.151 6.52963 113.976C6.75097 114.802 7.29121 115.506 8.03172 115.933L15.2607 120.105C14.0814 123.43 13.1668 126.849 12.5281 130.322H4.17442C2.39426 130.322 0.95105 131.765 0.95105 133.545V151.476C0.95105 153.257 2.39426 154.699 4.17442 154.699H12.5281C13.1672 158.172 14.0818 161.591 15.2607 164.917L8.03172 169.088C7.29121 169.516 6.75097 170.22 6.52963 171.045C6.30829 171.871 6.42434 172.751 6.85197 173.491L15.8215 189.02C16.7121 190.561 18.6826 191.088 20.2247 190.199L27.4682 186.019C29.7603 188.701 32.2625 191.202 34.9452 193.493L30.7638 200.733C30.3362 201.474 30.2206 202.353 30.4415 203.179C30.6628 204.004 31.203 204.708 31.9436 205.135L47.4789 214.101C49.0197 214.99 50.9911 214.463 51.8821 212.922L56.0557 205.696C59.3822 206.875 62.8033 207.789 66.2785 208.428V216.777C66.2785 218.558 67.7217 220 69.5019 220H87.4406C89.2207 220 90.664 218.558 90.664 216.777V208.428C94.1392 207.789 97.5603 206.875 100.887 205.696L105.06 212.922C105.951 214.463 107.923 214.991 109.464 214.101L124.999 205.135C125.739 204.708 126.28 204.004 126.501 203.179C126.722 202.353 126.606 201.473 126.179 200.733L121.997 193.493C124.68 191.202 127.182 188.702 129.474 186.019L136.718 190.199C138.259 191.089 140.23 190.561 141.12 189.02L150.09 173.491C150.517 172.75 150.633 171.871 150.412 171.045C150.19 170.22 149.65 169.516 148.909 169.088L141.681 164.917C142.86 161.592 143.774 158.173 144.413 154.699H152.768C154.548 154.699 155.991 153.257 155.991 151.476V133.545C155.991 131.765 154.548 130.322 152.768 130.322ZM149.544 148.254H141.672C140.066 148.254 138.704 149.437 138.48 151.027C137.799 155.866 136.53 160.612 134.708 165.134C134.107 166.623 134.695 168.327 136.086 169.129L142.895 173.059L137.149 183.007L130.327 179.07C128.937 178.267 127.17 178.609 126.18 179.871C123.165 183.712 119.689 187.186 115.847 190.199C114.584 191.189 114.243 192.957 115.045 194.346L118.983 201.165L109.031 206.908L105.1 200.101C104.296 198.711 102.592 198.124 101.104 198.723C96.5795 200.545 91.8313 201.814 86.9915 202.495C85.4004 202.718 84.2168 204.079 84.2168 205.686V213.555H72.7248V205.686C72.7248 204.08 71.5416 202.719 69.9501 202.495C65.1099 201.814 60.3617 200.545 55.8378 198.724C54.3482 198.124 52.6449 198.712 51.8421 200.101L47.9104 206.909L37.9584 201.165L41.8969 194.347C42.6993 192.958 42.3572 191.189 41.0949 190.199C37.2535 187.186 33.777 183.712 30.7621 179.871C29.7719 178.61 28.0042 178.268 26.6151 179.07L19.7927 183.007L14.047 173.06L20.856 169.13C22.2468 168.327 22.8347 166.624 22.2343 165.134C20.4116 160.611 19.142 155.865 18.4617 151.028C18.2378 149.437 16.8767 148.254 15.2697 148.254H7.3978V136.768H15.2697C16.8762 136.768 18.2378 135.585 18.4617 133.995C19.142 129.158 20.4116 124.411 22.2343 119.888C22.8343 118.399 22.2468 116.695 20.856 115.893L14.047 111.963L19.7927 102.015L26.6151 105.952C28.0042 106.755 29.7719 106.413 30.7621 105.151C33.7766 101.31 37.2531 97.836 41.0949 94.823C42.3576 93.8326 42.6993 92.0648 41.8969 90.6757L37.9584 83.8574L47.9104 78.1138L51.8421 84.9209C52.6449 86.3113 54.3486 86.8987 55.8373 86.2989C60.3634 84.4766 65.1116 83.2077 69.9501 82.5275C71.5412 82.3036 72.7248 80.9428 72.7248 79.3362V71.4678H84.2168V79.3362C84.2168 80.9424 85.4 82.3036 86.9915 82.5275C91.83 83.2077 96.5782 84.4766 101.104 86.2989C102.593 86.8991 104.297 86.3113 105.1 84.9209L109.032 78.1138L118.984 83.8574L115.046 90.6757C114.243 92.0648 114.585 93.833 115.848 94.823C119.689 97.836 123.165 101.311 126.18 105.151C127.171 106.413 128.938 106.755 130.327 105.952L137.15 102.015L142.895 111.963L136.086 115.893C134.695 116.695 134.107 118.399 134.708 119.888C136.53 124.41 137.799 129.156 138.48 133.995C138.704 135.585 140.065 136.768 141.672 136.768H149.544V148.254Z" fill="white"/>
<path d="M217.777 34.1761H211.823C211.347 32.8372 210.799 31.521 210.186 30.2375L214.39 26.0434C214.996 25.4388 215.337 24.6181 215.337 23.7617C215.337 22.9054 214.996 22.0851 214.39 21.4801L199.462 6.58926C198.203 5.33457 196.167 5.33457 194.909 6.58926L190.697 10.7903C189.407 10.1759 188.084 9.62887 186.738 9.15234V3.22266C186.738 1.44246 185.295 0 183.514 0H162.402C160.621 0 159.179 1.44246 159.179 3.22266V9.1532C157.832 9.6293 156.51 10.1767 155.22 10.7912L151.008 6.59012C149.75 5.33586 147.713 5.33543 146.455 6.59012L131.526 21.4809C130.92 22.0855 130.579 22.9062 130.579 23.7626C130.579 24.6189 130.919 25.4392 131.526 26.0442L135.731 30.2384C135.116 31.5223 134.57 32.838 134.094 34.1769H128.14C126.36 34.1769 124.916 35.6194 124.916 37.3996V58.4581C124.916 60.2383 126.36 61.6808 128.14 61.6808H134.094C134.569 63.0197 135.116 64.3354 135.731 65.6193L131.526 69.8135C130.92 70.4181 130.579 71.2388 130.579 72.0951C130.579 72.9515 130.919 73.7718 131.526 74.3768L146.455 89.2676C147.713 90.5223 149.749 90.5223 151.008 89.2676L155.22 85.0665C156.51 85.681 157.832 86.228 159.179 86.7045V92.635C159.179 94.4152 160.621 95.8577 162.402 95.8577H183.514C185.295 95.8577 186.738 94.4152 186.738 92.635V86.7045C188.084 86.2284 189.407 85.681 190.697 85.0665L194.909 89.2676C196.167 90.5223 198.204 90.5227 199.462 89.2676L214.39 74.3768C214.996 73.7722 215.337 72.9515 215.337 72.0951C215.337 71.2388 214.996 70.4185 214.39 69.8135L210.186 65.6193C210.799 64.3358 211.346 63.0197 211.823 61.6808H217.777C219.557 61.6808 221 60.2383 221 58.4581V37.3987C221 35.6189 219.557 34.1761 217.777 34.1761ZM214.553 55.2346H209.476C208.041 55.2346 206.779 56.1834 206.38 57.5618C205.666 60.0291 204.671 62.4229 203.423 64.6761C202.726 65.9347 202.948 67.5026 203.966 68.5188L207.55 72.0938L197.186 82.4325L193.591 78.8468C192.576 77.834 191.014 77.6136 189.758 78.3063C187.499 79.5511 185.098 80.5441 182.622 81.2569C181.242 81.6544 180.291 82.9172 180.291 84.3537V89.4107H165.626V84.3537C165.626 82.9172 164.675 81.6544 163.295 81.2569C160.819 80.5441 158.418 79.5511 156.159 78.3063C154.903 77.6132 153.341 77.8336 152.326 78.8468L148.732 82.4325L138.367 72.0938L141.951 68.5188C142.969 67.5026 143.192 65.9343 142.495 64.6761C141.246 62.4216 140.251 60.0282 139.538 57.5622C139.139 56.1838 137.876 55.2346 136.441 55.2346H131.364V40.6214H136.441C137.876 40.6214 139.139 39.6726 139.538 38.2938C140.251 35.8282 141.246 33.4344 142.495 31.1798C143.192 29.9213 142.969 28.3534 141.951 27.3371L138.367 23.7621L148.732 13.4234L152.326 17.0092C153.341 18.022 154.904 18.2428 156.159 17.5497C158.418 16.3049 160.819 15.3119 163.295 14.5991C164.675 14.2016 165.626 12.9387 165.626 11.5023V6.44531H180.291V11.5023C180.291 12.9387 181.242 14.2016 182.622 14.5991C185.098 15.3119 187.499 16.3049 189.758 17.5497C191.014 18.2424 192.576 18.0224 193.591 17.0092L197.186 13.4234L207.55 23.7621L203.966 27.3371C202.948 28.3534 202.726 29.9217 203.423 31.1798C204.671 33.4327 205.666 35.8265 206.38 38.2942C206.779 39.6726 208.041 40.6214 209.476 40.6214H214.553V55.2346Z" fill="white"/>
<path d="M172.958 22.251C168.724 22.251 164.526 23.2998 160.815 25.2846C159.245 26.1237 158.653 28.0767 159.493 29.6459C160.333 31.2151 162.285 31.8081 163.855 30.9676C166.634 29.4818 169.782 28.6963 172.958 28.6963C183.594 28.6963 192.246 37.3236 192.246 47.9278C192.246 58.5325 183.594 67.1598 172.958 67.1598C162.323 67.1598 153.67 58.5325 153.67 47.9278C153.67 44.9127 154.35 42.0278 155.689 39.3517C156.486 37.7601 155.841 35.8239 154.249 35.0277C152.656 34.2319 150.72 34.8756 149.924 36.4676C148.132 40.0469 147.224 43.9029 147.224 47.9282C147.224 62.0864 158.768 73.6055 172.958 73.6055C187.148 73.6055 198.693 62.0864 198.693 47.9282C198.693 33.77 187.148 22.251 172.958 22.251Z" fill="white"/>
<path d="M78.471 96.4159C53.0442 96.4159 32.3579 117.094 32.3579 142.511C32.3579 148.732 33.5776 154.769 35.9831 160.454C36.6764 162.093 38.5678 162.86 40.2075 162.167C41.8471 161.474 42.6138 159.582 41.9202 157.943C39.8525 153.057 38.8042 147.865 38.8042 142.511C38.8042 120.648 56.5985 102.861 78.4706 102.861C100.343 102.861 118.137 120.649 118.137 142.511C118.137 164.374 100.343 182.16 78.4706 182.16C66.747 182.16 55.6857 177.015 48.1236 168.045C46.9766 166.684 44.9432 166.51 43.5817 167.658C42.2206 168.804 42.0469 170.837 43.1945 172.198C51.9844 182.625 64.8422 188.606 78.471 188.606C103.898 188.606 124.584 167.927 124.584 142.511C124.584 117.094 103.898 96.4159 78.471 96.4159Z" fill="white"/>
<path d="M78.471 116.564C81.1167 116.564 83.7255 116.959 86.2243 117.74C87.9241 118.271 89.7313 117.323 90.2621 115.624C90.7929 113.925 89.8456 112.118 88.1467 111.587C85.0248 110.612 81.7696 110.118 78.4714 110.118C60.6032 110.118 46.0667 124.649 46.0667 142.511C46.0667 160.371 60.6036 174.903 78.4714 174.903C96.3397 174.903 110.877 160.372 110.877 142.511C110.877 134.097 107.664 126.124 101.832 120.06C100.598 118.779 98.5573 118.738 97.2749 119.972C95.9915 121.205 95.952 123.246 97.1859 124.528C101.858 129.385 104.43 135.771 104.43 142.511C104.43 156.818 92.7854 168.458 78.4719 168.458C64.1584 168.458 52.5138 156.818 52.5138 142.511C52.5138 128.203 64.1575 116.564 78.471 116.564Z" fill="white"/>
<path d="M217.777 126.53H215.142C214.589 122.622 213.045 119.028 210.773 116.011L212.643 114.142C213.902 112.883 213.902 110.843 212.643 109.584C211.384 108.326 209.343 108.325 208.085 109.584L206.215 111.454C203.197 109.183 199.601 107.639 195.691 107.086V104.453C195.691 102.672 194.248 101.23 192.468 101.23C190.687 101.23 189.244 102.672 189.244 104.453V107.086C185.334 107.639 181.738 109.183 178.721 111.454L176.85 109.584C175.59 108.325 173.549 108.325 172.291 109.584C171.033 110.843 171.033 112.884 172.292 114.142L174.162 116.011C171.89 119.028 170.346 122.622 169.793 126.53H167.158C165.377 126.53 163.935 127.972 163.935 129.752C163.935 131.532 165.377 132.975 167.158 132.975H169.793C170.346 136.883 171.89 140.476 174.162 143.493L172.292 145.362C171.033 146.62 171.033 148.661 172.292 149.92C172.921 150.549 173.746 150.864 174.571 150.864C175.396 150.864 176.221 150.549 176.851 149.92L178.721 148.05C181.739 150.321 185.335 151.865 189.245 152.418V155.051C189.245 156.832 190.688 158.274 192.468 158.274C194.249 158.274 195.692 156.832 195.692 155.051V152.418C199.602 151.865 203.197 150.322 206.215 148.05L208.085 149.92C208.715 150.549 209.54 150.864 210.365 150.864C211.19 150.864 212.015 150.549 212.644 149.92C213.903 148.661 213.903 146.621 212.644 145.363L210.774 143.494C213.046 140.477 214.59 136.883 215.143 132.975H217.777C219.558 132.975 221.001 131.533 221.001 129.753C221.001 127.972 219.557 126.53 217.777 126.53ZM192.467 146.199C183.394 146.199 176.013 138.821 176.013 129.752C176.013 120.683 183.394 113.305 192.467 113.305C201.54 113.305 208.921 120.683 208.921 129.752C208.921 138.821 201.54 146.199 192.467 146.199Z" fill="white"/>
<path d="M192.467 119.073C186.577 119.073 181.785 123.863 181.785 129.752C181.785 135.64 186.577 140.431 192.467 140.431C198.357 140.431 203.149 135.641 203.149 129.752C203.15 123.864 198.357 119.073 192.467 119.073ZM192.467 133.985C190.131 133.985 188.232 132.086 188.232 129.752C188.232 127.417 190.132 125.518 192.467 125.518C194.802 125.518 196.703 127.417 196.703 129.752C196.703 132.086 194.803 133.985 192.467 133.985Z" fill="white"/>
</g>
<defs>
<clipPath id="clip0">
<rect width="220.049" height="220" fill="white" transform="translate(0.95105)"/>
</clipPath>
</defs>
</svg>
