<svg viewBox="0 0 40 40" fill="none" xmlns="http://www.w3.org/2000/svg">
<circle cx="20" cy="20" r="20" fill="url(#paint0_linear_320_9076)"/>
<path fill-rule="evenodd" clip-rule="evenodd" d="M15.2043 9.00903C13.8085 9.08378 12.4885 9.59747 11.3982 10.4902C11.0835 10.7478 10.7512 11.0802 10.4919 11.3966C9.80505 12.2347 9.33892 13.2151 9.13006 14.2607C9.06732 14.5747 9.0278 14.8942 9.00992 15.2318C8.99669 15.4814 8.99669 24.5168 9.00992 24.7663C9.08551 26.1937 9.59048 27.5006 10.4918 28.6016C10.7493 28.9162 11.0817 29.2486 11.3982 29.5079C12.2362 30.1948 13.2165 30.6609 14.262 30.8698C14.576 30.9326 14.8955 30.9721 15.2331 30.99C15.4826 31.0032 24.5174 31.0032 24.7669 30.99C26.1941 30.9144 27.501 30.4094 28.6018 29.508C28.9165 29.2504 29.2488 28.918 29.5081 28.6016C30.195 27.7635 30.6611 26.7831 30.8699 25.7375C30.9327 25.4235 30.9722 25.104 30.9901 24.7663C31.0033 24.5168 31.0033 15.4814 30.9901 15.2318C30.9395 14.2766 30.7061 13.404 30.2774 12.5677C29.7765 11.5905 29.032 10.75 28.1157 10.1271C27.1224 9.45185 25.9882 9.07292 24.7669 9.00823C24.5472 8.99659 15.4223 8.99736 15.2043 9.00903ZM24.7158 11.2219C25.255 11.2582 25.747 11.3803 26.2281 11.5973C27.5958 12.2139 28.5504 13.4972 28.7472 14.984C28.7878 15.2907 28.7877 15.2759 28.7844 20.1093C28.7809 25.2268 28.786 24.795 28.7237 25.1708C28.5512 26.2098 27.9874 27.1659 27.1525 27.8352C26.4576 28.3921 25.6209 28.7153 24.7158 28.7763C24.5123 28.79 15.4877 28.79 15.2842 28.7763C14.745 28.74 14.253 28.6178 13.7719 28.4009C12.8094 27.967 12.0327 27.1903 11.5988 26.2277C11.3819 25.7465 11.2598 25.2544 11.2234 24.7153C11.2097 24.5117 11.2097 15.4865 11.2234 15.2829C11.2598 14.7437 11.3819 14.2517 11.5988 13.7705C12.2559 12.3127 13.6632 11.3339 15.2618 11.2227C15.436 11.2106 24.5365 11.2098 24.7158 11.2219ZM25.5717 12.9952C25.0577 13.0387 24.5914 13.4004 24.4175 13.8903C24.364 14.0411 24.3493 14.1239 24.3438 14.3071C24.3359 14.5643 24.3702 14.7319 24.474 14.9444C24.5996 15.2012 24.7815 15.3967 25.0256 15.5372C25.3526 15.7254 25.7615 15.7665 26.1258 15.6478C26.613 15.489 26.9694 15.0657 27.0488 14.5515C27.068 14.4272 27.0612 14.1953 27.0347 14.0724C26.9749 13.7946 26.8338 13.545 26.6286 13.3541C26.344 13.0892 25.9683 12.9616 25.5717 12.9952ZM19.7796 14.3128C19.1618 14.3463 18.6913 14.4348 18.1512 14.6189C17.0833 14.9829 16.1256 15.6816 15.4455 16.5925C14.8506 17.3894 14.4828 18.2975 14.3569 19.2804C14.3234 19.5421 14.3147 19.6905 14.3147 19.9991C14.3147 20.3077 14.3234 20.4561 14.3569 20.7178C14.4816 21.6912 14.8429 22.59 15.4277 23.3817C16.2373 24.4777 17.4287 25.2546 18.7544 25.5509C20.1814 25.8698 21.6851 25.6268 22.9276 24.8763C24.4277 23.9703 25.4213 22.4486 25.6431 20.7178C25.6766 20.4561 25.6853 20.3077 25.6853 19.9991C25.6853 19.615 25.6631 19.3537 25.5996 18.9931C25.3514 17.5818 24.546 16.2863 23.3824 15.4265C22.5281 14.7953 21.5491 14.4246 20.4887 14.3308C20.3334 14.3171 19.9021 14.3061 19.7796 14.3128ZM20.3881 16.5445C21.0486 16.6224 21.6475 16.8703 22.1627 17.2792C22.3199 17.4039 22.595 17.679 22.7197 17.8362C23.1363 18.3612 23.3838 18.9689 23.4602 19.6541C23.476 19.7962 23.476 20.202 23.4602 20.3441C23.3838 21.0293 23.1363 21.637 22.7197 22.162C22.595 22.3192 22.3199 22.5943 22.1627 22.719C21.7026 23.0841 21.1612 23.327 20.5911 23.4241C20.3682 23.462 20.2472 23.4718 20 23.4718C19.7528 23.4718 19.6318 23.462 19.4089 23.4241C18.8388 23.327 18.2974 23.0841 17.8373 22.719C17.6801 22.5943 17.405 22.3192 17.2803 22.162C16.8637 21.637 16.6162 21.0293 16.5398 20.3441C16.524 20.202 16.524 19.7962 16.5398 19.6541C16.6162 18.9689 16.8637 18.3612 17.2803 17.8362C17.405 17.679 17.6801 17.4039 17.8373 17.2792C18.2251 16.9714 18.6635 16.7535 19.1408 16.6311C19.3449 16.5788 19.5535 16.5463 19.8132 16.5264C19.9096 16.519 20.2669 16.5302 20.3881 16.5445Z" fill="white"/>
<defs>
<linearGradient id="paint0_linear_320_9076" x1="8.5" y1="35.5" x2="35" y2="8" gradientUnits="userSpaceOnUse">
<stop stop-color="#EEA054"/>
<stop offset="0.502762" stop-color="#D64763"/>
<stop offset="1" stop-color="#B62A99"/>
</linearGradient>
</defs>
</svg>
