<svg viewBox="0 0 40 40" fill="none" xmlns="http://www.w3.org/2000/svg">
<circle cx="20" cy="20" r="20" fill="#2F89CE"/>
<path d="M9.3507 20.374L13.9488 22.0885L15.7413 27.8556C15.8192 28.2452 16.2868 28.3232 16.5985 28.0894L19.1703 25.9852C19.4041 25.7514 19.7938 25.7514 20.1055 25.9852L24.7036 29.3363C25.0154 29.5701 25.483 29.4142 25.5609 29.0246L28.99 12.6585C29.0679 12.2689 28.6782 11.8792 28.2886 12.0351L9.3507 19.3608C8.8831 19.5167 8.8831 20.2181 9.3507 20.374ZM15.5075 21.2312L24.5477 15.6979C24.7036 15.62 24.8595 15.8538 24.7036 15.9317L17.2999 22.8678C17.0661 23.1016 16.8323 23.4134 16.8323 23.803L16.5985 25.6734C16.5985 25.9072 16.2089 25.9852 16.1309 25.6734L15.1957 22.2444C14.9619 21.8547 15.1178 21.3871 15.5075 21.2312Z" fill="white"/>
</svg>
