<svg viewBox="0 0 40 40" fill="none" xmlns="http://www.w3.org/2000/svg">
<circle cx="20" cy="20" r="20" fill="#7360F2"/>
<path d="M29.4063 10.4344C28.8047 9.86316 26.37 8.0421 20.9418 8.01769C20.9418 8.01769 14.5425 7.62223 11.4257 10.5711C9.69205 12.358 9.08102 14.9797 9.0147 18.2264C8.94839 21.473 8.86786 27.5562 14.5567 29.2064H14.5614L14.5567 31.7256C14.5567 31.7256 14.5188 32.746 15.1724 32.9511C15.9587 33.205 16.4229 32.4287 17.1761 31.5938C17.5882 31.1349 18.1566 30.4612 18.5876 29.9485C22.4812 30.2854 25.4701 29.514 25.8111 29.4017C26.5974 29.1381 31.0452 28.5522 31.7652 22.469C32.5136 16.1905 31.4052 12.2261 29.4063 10.4344V10.4344ZM30.0647 22.0101C29.4536 27.0876 25.849 27.4098 25.1859 27.6295C24.9017 27.7222 22.2728 28.396 18.9713 28.1763C18.9713 28.1763 16.5082 31.2374 15.7408 32.0332C15.4898 32.292 15.2151 32.2676 15.2198 31.7549C15.2198 31.4181 15.2387 27.5709 15.2387 27.5709C15.234 27.5709 15.234 27.5709 15.2387 27.5709C10.4168 26.1941 10.701 21.0141 10.7531 18.3045C10.8052 15.5949 11.3025 13.3735 12.7709 11.8795C15.4093 9.414 20.8423 9.78016 20.8423 9.78016C25.4322 9.79969 27.63 11.2253 28.1416 11.7037C29.8326 13.1977 30.6947 16.7715 30.0647 22.0101V22.0101ZM23.4806 18.0653C23.4996 18.4851 22.8885 18.5144 22.8696 18.0945C22.8175 17.0205 22.3296 16.4981 21.3254 16.4395C20.9181 16.4151 20.956 15.7853 21.3586 15.8097C22.6801 15.8829 23.4143 16.6641 23.4806 18.0653ZM24.4422 18.6169C24.4896 16.5469 23.2343 14.926 20.8518 14.7454C20.4491 14.7161 20.4918 14.0863 20.8944 14.1156C23.6417 14.3206 25.1053 16.2686 25.0532 18.6316C25.0485 19.0515 24.4327 19.0319 24.4422 18.6169V18.6169ZM26.6684 19.2712C26.6732 19.691 26.0574 19.6959 26.0574 19.276C26.029 15.297 23.457 13.1293 20.3355 13.1049C19.9328 13.1001 19.9328 12.4751 20.3355 12.4751C23.8264 12.4995 26.6353 14.9846 26.6684 19.2712V19.2712ZM26.1332 24.0606V24.0704C25.6216 24.998 24.6648 26.0232 23.6796 25.6961L23.6701 25.6815C22.6707 25.3934 20.3165 24.1436 18.8292 22.923C18.0618 22.2981 17.3608 21.5609 16.8208 20.853C16.3329 20.2232 15.8403 19.4762 15.3619 18.5779C14.353 16.6982 14.1304 15.8585 14.1304 15.8585C13.813 14.843 14.803 13.8568 15.7077 13.3295H15.7172C16.1529 13.0952 16.5698 13.1733 16.8492 13.5199C16.8492 13.5199 17.4366 14.2425 17.6876 14.5989C17.9245 14.9309 18.2418 15.463 18.4076 15.7609C18.6966 16.293 18.5166 16.8349 18.2324 17.0595L17.6639 17.5282C17.375 17.7674 17.4129 18.2117 17.4129 18.2117C17.4129 18.2117 18.256 21.4974 21.406 22.3274C21.406 22.3274 21.837 22.3665 22.0691 22.0687L22.5238 21.4828C22.7417 21.1899 23.2675 21.0043 23.7838 21.3022C24.4801 21.7074 25.3659 22.3372 25.9532 22.9084C26.2848 23.1867 26.3606 23.6114 26.1332 24.0606Z" fill="white"/>
</svg>
