<svg viewBox="0 0 40 40" fill="none" xmlns="http://www.w3.org/2000/svg">
<circle cx="20" cy="20" r="20" fill="#25D366"/>
<path d="M28.5551 11.3422C26.404 9.18594 23.5393 8 20.4949 8C14.2109 8 9.09754 13.1134 9.09754 19.3973C9.09754 21.4047 9.62121 23.3658 10.6172 25.096L9 31L15.0426 29.4136C16.706 30.3223 18.5799 30.7998 20.4897 30.7998H20.4949C26.7737 30.7998 32 25.6864 32 19.4025C32 16.358 30.7063 13.4984 28.5551 11.3422ZM20.4949 28.8797C18.7904 28.8797 17.1219 28.4228 15.669 27.5603L15.325 27.3549L11.7415 28.2944L12.6964 24.7982L12.4705 24.4388C11.5208 22.9295 11.0228 21.1891 11.0228 19.3973C11.0228 14.1761 15.2737 9.92522 20.5 9.92522C23.031 9.92522 25.408 10.9109 27.1946 12.7027C28.9813 14.4944 30.0799 16.8714 30.0748 19.4025C30.0748 24.6288 25.7161 28.8797 20.4949 28.8797ZM25.6904 21.7846C25.408 21.6408 24.0065 20.9529 23.7446 20.8605C23.4828 20.7629 23.2929 20.7167 23.1029 21.0042C22.9129 21.2917 22.3688 21.9283 22.1993 22.1234C22.035 22.3134 21.8656 22.3391 21.5833 22.1953C19.9096 21.3585 18.8109 20.7013 17.7071 18.8069C17.4145 18.3038 17.9998 18.3397 18.544 17.2513C18.6364 17.0614 18.5902 16.8971 18.5183 16.7533C18.4464 16.6096 17.8766 15.208 17.6404 14.6382C17.4094 14.0837 17.1732 14.1607 16.9987 14.1504C16.8344 14.1402 16.6444 14.1402 16.4545 14.1402C16.2645 14.1402 15.9565 14.2121 15.6946 14.4944C15.4328 14.7819 14.6987 15.4699 14.6987 16.8714C14.6987 18.273 15.7203 19.6283 15.8589 19.8183C16.0027 20.0083 17.8663 22.8833 20.7259 24.1205C22.533 24.9009 23.2415 24.9676 24.1451 24.8342C24.6944 24.752 25.829 24.1462 26.0652 23.4788C26.3013 22.8114 26.3013 22.2415 26.2295 22.1234C26.1627 21.9951 25.9728 21.9232 25.6904 21.7846Z" fill="white"/>
</svg>
