<svg viewBox="0 0 40 40" fill="none" xmlns="http://www.w3.org/2000/svg">
<circle cx="20" cy="20" r="20" fill="#FF0000"/>
<path d="M31.52 14.4994C31.389 14.0154 31.1323 13.574 30.7756 13.2195C30.4188 12.8649 29.9744 12.6095 29.4869 12.479C27.6926 12 20.5 12 20.5 12C20.5 12 13.3074 12 11.5131 12.4764C11.0254 12.6066 10.5808 12.8618 10.2239 13.2164C9.86709 13.571 9.61052 14.0126 9.48002 14.4968C9 16.2803 9 20 9 20C9 20 9 23.7197 9.48002 25.5006C9.74442 26.4841 10.5248 27.2586 11.5131 27.521C13.3074 28 20.5 28 20.5 28C20.5 28 27.6926 28 29.4869 27.521C30.4778 27.2586 31.2556 26.4841 31.52 25.5006C32 23.7197 32 20 32 20C32 20 32 16.2803 31.52 14.4994ZM18.2154 23.414V16.586L24.1708 19.9745L18.2154 23.414Z" fill="white"/>
</svg>
