<svg width="33" height="22" viewBox="0 0 33 22" fill="none" xmlns="http://www.w3.org/2000/svg">
<path d="M0 1.1C0 0.492487 0.492487 0 1.1 0H31.9C32.5075 0 33 0.492487 33 1.1V1.1C33 1.70751 32.5075 2.2 31.9 2.2H1.1C0.492488 2.2 0 1.70751 0 1.1V1.1Z" fill="#1F1F1F"/>
<path d="M0 11C0 10.3925 0.492487 9.9 1.1 9.9H31.9C32.5075 9.9 33 10.3925 33 11V11C33 11.6075 32.5075 12.1 31.9 12.1H1.1C0.492488 12.1 0 11.6075 0 11V11Z" fill="#1F1F1F"/>
<path d="M0 20.9C0 20.2925 0.492487 19.8 1.1 19.8H31.9C32.5075 19.8 33 20.2925 33 20.9V20.9C33 21.5075 32.5075 22 31.9 22H1.1C0.492488 22 0 21.5075 0 20.9V20.9Z" fill="#1F1F1F"/>
</svg>
