<svg viewBox="0 0 22 22" fill="none" xmlns="http://www.w3.org/2000/svg">
<g opacity="0.9">
<path d="M8.24996 11H10.0833V16.5H8.24996V11ZM11.9166 16.5H13.75V11H11.9166V16.5ZM21.0833 9.16666H20.0933L19.3875 17.6458C19.3299 18.3347 19.0149 18.9767 18.5053 19.4438C17.9957 19.911 17.3288 20.1691 16.6375 20.1666H5.3533C4.66197 20.1691 3.9951 19.911 3.48549 19.4438C2.97587 18.9767 2.6609 18.3347 2.60329 17.6458L1.90663 9.16666H0.916626V7.33333H4.65663C4.88791 5.81669 5.65494 4.43311 6.81866 3.43339C7.98239 2.43368 9.46579 1.884 11 1.884C12.5341 1.884 14.0175 2.43368 15.1813 3.43339C16.345 4.43311 17.112 5.81669 17.3433 7.33333H21.0833V9.16666ZM6.5083 7.33333H15.4916C15.2812 6.29723 14.7191 5.36573 13.9005 4.69665C13.0819 4.02757 12.0572 3.66207 11 3.66207C9.94272 3.66207 8.91799 4.02757 8.09939 4.69665C7.2808 5.36573 6.71869 6.29723 6.5083 7.33333V7.33333ZM18.2508 9.16666H3.74913L4.43663 17.49C4.4551 17.7202 4.55977 17.9349 4.72972 18.0913C4.89967 18.2476 5.12237 18.3341 5.3533 18.3333H16.6466C16.8776 18.3341 17.1003 18.2476 17.2702 18.0913C17.4402 17.9349 17.5448 17.7202 17.5633 17.49L18.2508 9.16666Z" fill="#1F1F1F"/>
</g>
</svg>
