<svg viewBox="0 0 29 29" fill="none" xmlns="http://www.w3.org/2000/svg">
<path d="M17.0911 11.9572L13.291 15.7586L11.9075 14.3746C11.6719 14.1389 11.2912 14.1389 11.0556 14.3746C10.82 14.6103 10.82 14.991 11.0556 15.2267L12.8681 17.0398C12.9889 17.1607 13.1399 17.2151 13.297 17.2151C13.4541 17.2151 13.6051 17.1546 13.726 17.0398L17.955 12.8093C18.1906 12.5736 18.1906 12.1929 17.955 11.9572C17.7194 11.7215 17.3267 11.7154 17.0911 11.9572Z" fill="#1F1F1F"/>
<path d="M28.9991 2.40836C28.9689 9.68479 27.5673 15.4685 24.7399 20.0374L23.5134 18.9193C23.2657 18.6957 22.9576 18.5446 22.6314 18.4842C23.2234 17.2936 23.5376 15.9761 23.5618 14.6224C23.598 12.1989 22.6857 9.90841 20.9941 8.17995C19.3086 6.43941 17.049 5.46639 14.6204 5.43013H14.5358C12.1373 5.43013 9.87782 6.34271 8.17412 8.00469C6.44626 9.69688 5.47358 11.9572 5.43733 14.3685C5.40108 16.786 6.31334 19.0765 8.00496 20.817C8.27682 21.095 8.53661 21.3368 8.80847 21.5543C10.1436 22.624 11.7325 23.2949 13.394 23.4883C13.7504 23.5366 14.1189 23.5608 14.5056 23.5608C14.8922 23.5608 15.2547 23.5366 15.5931 23.4943C16.5899 23.3734 17.5747 23.0773 18.4869 22.6301C18.5473 22.9504 18.6923 23.2586 18.9219 23.5064L20.4202 25.1563C18.783 26.6007 16.892 27.8698 14.7714 28.9335C14.6868 28.9758 14.5902 29 14.4995 29C14.4089 29 14.3123 28.9758 14.2277 28.9335C4.57944 24.0805 0.0604148 15.6558 0 2.40836C0 2.1364 0.187286 1.89465 0.453111 1.82213C9.77511 -0.607377 19.224 -0.607377 28.546 1.82213C28.8118 1.89465 28.9991 2.1364 28.9991 2.40836Z" fill="#FAD849"/>
<path d="M22.6976 19.8138C22.4922 19.6265 22.1961 19.6204 21.9726 19.7594L21.0422 18.8287C21.8699 17.5898 22.329 16.1333 22.3532 14.6043C22.3834 12.5072 21.592 10.5188 20.1299 9.02002C18.6679 7.51517 16.7044 6.66908 14.608 6.63886C12.5056 6.62073 10.524 7.40035 9.01967 8.86893C7.52138 10.3315 6.67557 12.2896 6.64537 14.3867C6.61516 16.4838 7.40659 18.4661 8.86863 19.9709C9.09821 20.2066 9.32778 20.4182 9.56944 20.6116C10.7234 21.5423 12.1069 22.1224 13.5568 22.2917C13.871 22.334 14.1851 22.3521 14.5053 22.3521C14.8195 22.3521 15.1336 22.334 15.4478 22.2917C16.6561 22.1466 17.8161 21.7175 18.8371 21.0407L19.7675 21.9714C19.6164 22.195 19.6285 22.4911 19.8158 22.6966L24.794 28.1841C25.235 28.6797 25.8633 28.9758 26.5218 29H26.5943C27.2287 29 27.8449 28.7462 28.298 28.299C28.7632 27.8276 29.017 27.1809 28.9988 26.5222C28.9747 25.8634 28.6786 25.2349 28.1893 24.7997L22.6976 19.8138ZM19.1331 19.2578C18.97 19.4089 18.8069 19.56 18.6377 19.6929C17.6711 20.4665 16.5171 20.95 15.2968 21.095C14.7712 21.1615 14.2335 21.1615 13.7018 21.095C12.4693 20.95 11.3033 20.4544 10.3307 19.6688C10.1253 19.5056 9.93193 19.3303 9.73256 19.1309C8.5001 17.8557 7.82949 16.1816 7.85366 14.4048C7.87783 12.628 8.59072 10.9721 9.86547 9.73316C11.1161 8.51236 12.7533 7.84757 14.4932 7.84757H14.5899C16.3661 7.87174 18.0215 8.58488 19.266 9.86007C20.4985 11.1353 21.1691 12.8093 21.1449 14.5861C21.1207 16.3629 20.4018 18.0189 19.1331 19.2578Z" fill="#1F1F1F"/>
</svg>
