<svg viewBox="0 0 20 20" fill="none" xmlns="http://www.w3.org/2000/svg">
<g opacity="0.5" clip-path="url(#clip0_284_6054)">
<path d="M1.38427 17.2877L1.29692 17.3772L1.38427 17.2877C-0.2673 15.6742 -0.298308 13.0275 1.31487 11.3757C1.31504 11.3755 1.31521 11.3753 1.31538 11.3752L10.5046 2.18596C10.5047 2.18581 10.5049 2.18566 10.505 2.18551C12.6479 0.0881551 16.0742 0.0878468 18.2174 2.18492C20.3938 4.31427 20.4319 7.80461 18.303 9.98111C18.3028 9.98128 18.3026 9.98146 18.3024 9.98163L9.11221 19.1719L9.11194 19.1716L9.10565 19.1789C9.08558 19.2024 9.06377 19.2242 9.04034 19.2443L9.12164 19.3392L9.04033 19.2443C8.78919 19.4593 8.41123 19.4301 8.19614 19.1789C7.98107 18.9278 8.01032 18.5498 8.26147 18.3347L8.26171 18.335L8.26855 18.3282L17.4597 9.137L17.4598 9.13699C19.1457 7.45039 19.1452 4.71639 17.4586 3.03045C15.772 1.34451 13.0381 1.34499 11.3521 3.03158L2.16094 12.2228L2.16032 12.2234C1.01519 13.385 1.01519 15.251 2.16032 16.4126C3.31712 17.5861 5.20625 17.5996 6.37974 16.4428L6.38037 16.4422L14.7031 8.11949L14.7031 8.11951L14.7049 8.11757C15.2417 7.55727 15.2417 6.67359 14.7049 6.11329C14.1515 5.53553 13.2344 5.51581 12.6567 6.06929L12.6567 6.06927L12.6548 6.07117L4.69475 14.0312C4.46268 14.2546 4.09539 14.2544 3.86361 14.0305L3.77677 14.1204L3.8636 14.0305C3.626 13.801 3.61917 13.4225 3.84816 13.1847L11.8082 5.22462C12.8414 4.19147 14.5165 4.19147 15.5496 5.22462C16.5828 6.25777 16.5828 7.93289 15.5496 8.96604L7.22795 17.2877C7.22777 17.2879 7.2276 17.2881 7.22742 17.2883C5.60282 18.8749 3.00866 18.8748 1.38427 17.2877Z" fill="#1F1F1F" stroke="#F9F9F9" stroke-width="0.25"/>
</g>
<defs>
<clipPath id="clip0_284_6054">
<rect width="20" height="20" fill="white"/>
</clipPath>
</defs>
</svg>
