<svg viewBox="0 0 20 20" fill="none" xmlns="http://www.w3.org/2000/svg">
<g clip-path="url(#clip0_255_6845)">
<path d="M18.3049 2.09557C16.1128 -0.0491945 12.6086 -0.0487279 10.4171 2.09663L1.22597 11.2878C-0.43597 12.9889 -0.404209 15.7152 1.29692 17.3772C2.97005 19.0118 5.64217 19.0118 7.31531 17.3772L15.638 9.05443C16.72 7.97246 16.72 6.2182 15.638 5.13623C14.5561 4.05427 12.8018 4.05427 11.7198 5.13623L3.75896 13.0971C3.48129 13.3846 3.48926 13.8427 3.77677 14.1204C4.05724 14.3913 4.50185 14.3913 4.78232 14.1204L12.7432 6.15955C13.2711 5.65383 14.109 5.67185 14.6147 6.19975C15.1051 6.71171 15.1051 7.51915 14.6147 8.03111L6.29199 16.3538C5.16766 17.4621 3.35768 17.4492 2.24934 16.3248C1.15219 15.2119 1.15219 13.4241 2.24934 12.3111L11.4405 3.11995C13.0777 1.48218 15.7325 1.48172 17.3702 3.11885C19.008 4.75599 19.0085 7.41084 17.3713 9.04862L8.18016 18.2398C7.87658 18.4998 7.84122 18.9567 8.1012 19.2602C8.36119 19.5638 8.81806 19.5992 9.12164 19.3392C9.14996 19.3149 9.17634 19.2886 9.2006 19.2602L18.3918 10.0691C20.5696 7.84325 20.5307 4.27337 18.3049 2.09557Z" fill="#1F1F1F"/>
</g>
<defs>
<clipPath id="clip0_255_6845">
<rect width="20" height="20" fill="white"/>
</clipPath>
</defs>
</svg>
