<svg width="14" height="14" viewBox="0 0 14 14" fill="none" xmlns="http://www.w3.org/2000/svg">
<mask id="path-1-outside-1_185_5729" maskUnits="userSpaceOnUse" x="0" y="0" width="14" height="14" fill="black">
<rect fill="white" width="14" height="14"/>
<path d="M6.53846 7.46154V13H7.46154V7.46154H13V6.53846H7.46154V1H6.53846V6.53846H1V7.46154H6.53846Z"/>
</mask>
<path d="M6.53846 7.46154V13H7.46154V7.46154H13V6.53846H7.46154V1H6.53846V6.53846H1V7.46154H6.53846Z" fill="#1F1F1F"/>
<path d="M6.53846 13H6.38846V13.15H6.53846V13ZM6.53846 7.46154H6.68846V7.31154H6.53846V7.46154ZM7.46154 13V13.15H7.61154V13H7.46154ZM7.46154 7.46154V7.31154H7.31154V7.46154H7.46154ZM13 7.46154V7.61154H13.15V7.46154H13ZM13 6.53846H13.15V6.38846H13V6.53846ZM7.46154 6.53846H7.31154V6.68846H7.46154V6.53846ZM7.46154 1H7.61154V0.85H7.46154V1ZM6.53846 1V0.85H6.38846V1H6.53846ZM6.53846 6.53846V6.68846H6.68846V6.53846H6.53846ZM1 6.53846V6.38846H0.85V6.53846H1ZM1 7.46154H0.85V7.61154H1V7.46154ZM6.68846 13V7.46154H6.38846V13H6.68846ZM7.46154 12.85H6.53846V13.15H7.46154V12.85ZM7.31154 7.46154V13H7.61154V7.46154H7.31154ZM13 7.31154H7.46154V7.61154H13V7.31154ZM12.85 6.53846V7.46154H13.15V6.53846H12.85ZM7.46154 6.68846H13V6.38846H7.46154V6.68846ZM7.31154 1V6.53846H7.61154V1H7.31154ZM6.53846 1.15H7.46154V0.85H6.53846V1.15ZM6.68846 6.53846V1H6.38846V6.53846H6.68846ZM1 6.68846H6.53846V6.38846H1V6.68846ZM1.15 7.46154V6.53846H0.85V7.46154H1.15ZM6.53846 7.31154H1V7.61154H6.53846V7.31154Z" fill="#1F1F1F" mask="url(#path-1-outside-1_185_5729)"/>
</svg>
