<svg viewBox="0 0 65 45" fill="none" xmlns="http://www.w3.org/2000/svg">
<circle cx="32.1451" cy="23.1429" r="19.2857" fill="white"/>
<path d="M63.3374 7.02946C62.9692 5.66827 62.2472 4.42694 61.2437 3.42972C60.2403 2.43249 58.9905 1.71434 57.6195 1.34713C52.573 2.73346e-07 32.3438 0 32.3438 0C32.3438 0 12.1145 -2.73346e-07 7.06798 1.33997C5.6964 1.70598 4.446 2.42373 3.44234 3.42114C2.43868 4.41856 1.7171 5.66051 1.35006 7.02229C-2.75405e-07 12.0382 0 22.5 0 22.5C0 22.5 -2.75405e-07 32.9618 1.35006 37.9705C2.09368 40.7365 4.28843 42.9148 7.06798 43.6529C12.1145 45 32.3438 45 32.3438 45C32.3438 45 52.573 45 57.6195 43.6529C60.4063 42.9148 62.5938 40.7365 63.3374 37.9705C64.6875 32.9618 64.6875 22.5 64.6875 22.5C64.6875 22.5 64.6875 12.0382 63.3374 7.02946ZM25.9183 32.1019V12.8981L42.6678 22.4283L25.9183 32.1019Z" fill="#E73829"/>
</svg>
