<svg viewBox="0 0 55 55" fill="none" xmlns="http://www.w3.org/2000/svg">
<path d="M8.70117 21.828H1.61133C0.721445 21.828 0 22.5495 0 23.4393V40.6268C0 41.5167 0.721445 42.2382 1.61133 42.2382H9.02043C10.9743 44.9093 14.133 46.535 17.472 46.535H20.1439C20.8916 46.9712 21.7374 47.1942 22.5871 47.1942C22.6423 47.1942 22.6976 47.1926 22.7529 47.1906C22.8607 48.0912 23.221 48.9713 23.8462 49.7163C24.6762 50.7055 25.8416 51.3122 27.128 51.4247C27.2717 51.4372 27.4149 51.4435 27.5576 51.4435C27.926 51.4435 28.2894 51.401 28.6425 51.3195C28.8165 52.0297 29.1512 52.6962 29.6349 53.2728C30.465 54.2619 31.6304 54.8686 32.9166 54.9811C33.0605 54.9937 33.2037 54.9999 33.3462 54.9999C34.4796 54.9999 35.5666 54.6058 36.4452 53.8685L46.4652 45.4607H53.3887C54.2786 45.4607 55 44.7393 55 43.8494V26.6619C55 25.772 54.2786 25.0506 53.3887 25.0506H46.2988V25.0509V11.2793C46.2988 10.8519 46.1291 10.4421 45.8268 10.14L36.1588 0.472012C35.8568 0.169727 35.447 0 35.0195 0H10.3125C9.42262 0 8.70117 0.721445 8.70117 1.61133V21.8283V21.828ZM36.6309 5.5014L40.7974 9.66797H36.6309V5.5014ZM11.9238 3.22266H33.4082V11.2793C33.4082 12.1692 34.1297 12.8906 35.0195 12.8906H43.0762V25.051V25.0507H40.3181L35.8386 20.6449C34.5205 19.3296 32.7694 18.6054 30.907 18.6054H20.9468C18.5078 18.6054 16.2149 19.5552 14.4904 21.2797L13.9421 21.828H11.9238V3.22266ZM11.2645 39.7978C10.9734 39.3124 10.4488 39.0155 9.88281 39.0155H3.22266V25.0507H14.6094C15.0367 25.0507 15.4465 24.8809 15.7487 24.5787L16.769 23.5585C17.885 22.4425 19.3687 21.828 20.9468 21.828H30.907C31.9113 21.828 32.8554 22.2191 33.5655 22.9292C33.5686 22.9323 33.5718 22.9355 33.5749 22.9387L38.9206 28.1963C39.5449 28.8248 39.5437 29.8442 38.9166 30.4712C38.6124 30.7755 38.2077 30.9432 37.7774 30.9432C37.347 30.9432 36.9424 30.7755 36.6381 30.4712L31.6895 25.5227C31.3873 25.2205 30.9775 25.0507 30.5501 25.0507H26.2533C25.8745 25.0507 25.5078 25.1841 25.2175 25.4277L15.333 33.7219C13.2911 35.4351 13.0238 38.4903 14.7372 40.5321C15.5325 41.4799 16.6168 42.0446 17.7547 42.2071C17.7427 42.5764 17.7722 42.9474 17.8448 43.3124H17.4722C14.9438 43.3124 12.5652 41.9658 11.2645 39.7978ZM51.7773 42.2382H45.8784C45.4996 42.2382 45.1329 42.3716 44.8426 42.6152L34.3734 51.4C34.0437 51.6766 33.6251 51.8081 33.1972 51.7708C32.7685 51.7333 32.3801 51.5311 32.1032 51.2013C31.8266 50.8717 31.6948 50.4539 31.7324 50.0252C31.7699 49.5965 31.9721 49.208 32.302 48.9312L34.1566 47.3749C34.8384 46.8029 34.9273 45.7865 34.3552 45.1048C33.7833 44.4231 32.7668 44.3341 32.0852 44.9062L28.5849 47.8434C28.2552 48.1199 27.837 48.2523 27.4086 48.2143C26.9798 48.1768 26.5913 47.9746 26.3146 47.6448C25.7435 46.9642 25.8326 45.9458 26.5131 45.3747L30.0136 42.4373C30.3971 42.1156 30.593 41.6533 30.5891 41.189C30.5866 40.8795 30.4954 40.5691 30.3117 40.2989C30.281 40.2539 30.2479 40.2099 30.2121 40.1673C29.6401 39.4855 28.6236 39.3966 27.942 39.9687L23.6186 43.5964C22.938 44.1674 21.9196 44.0783 21.3486 43.3978C20.7774 42.7172 20.8666 41.6988 21.5472 41.1275L25.8706 37.4998C26.5523 36.9279 26.6413 35.9115 26.0692 35.2298C25.4972 34.5481 24.481 34.459 23.7992 35.0311L19.4758 38.6589C19.146 38.9355 18.7285 39.0674 18.2996 39.0297C17.8709 38.9922 17.4824 38.79 17.2058 38.4603C16.929 38.1306 16.7973 37.7128 16.8348 37.2841C16.8724 36.8553 17.0746 36.4668 17.4043 36.19L26.8396 28.2729H29.8826L34.3591 32.7495C36.2438 34.6343 39.3106 34.6341 41.1955 32.7495C42.4082 31.5366 42.8393 29.8347 42.4913 28.2729H51.7773V42.2382Z" fill="#37C5D9"/>
</svg>
