<svg viewBox="0 0 53 53" fill="none" xmlns="http://www.w3.org/2000/svg">
<path d="M51.4473 15.6309C52.3048 15.6309 53 14.9356 53 14.0781V1.65625C53 0.798726 52.3048 0.103516 51.4473 0.103516H5.90039C5.04287 0.103516 4.34766 0.798726 4.34766 1.65625V12.5254H1.55273C0.695211 12.5254 0 13.2206 0 14.0781V26.5C0 27.3575 0.695211 28.0527 1.55273 28.0527H4.34766V37.3691H1.55273C0.695211 37.3691 0 38.0644 0 38.9219V51.3438C0 52.2013 0.695211 52.8965 1.55273 52.8965H47.0996C47.9571 52.8965 48.6523 52.2013 48.6523 51.3438V40.4746H51.4473C52.3048 40.4746 53 39.7794 53 38.9219V26.5C53 25.6425 52.3048 24.9473 51.4473 24.9473H48.6523V15.6309H51.4473ZM7.45312 3.20898H49.8945V12.5254H41.0957C40.6838 12.5254 40.2889 12.6889 39.9978 12.9802L35.9199 17.058L31.842 12.9801C31.5509 12.6889 31.156 12.5254 30.7441 12.5254H7.45312V3.20898ZM45.5469 49.791H3.10547V40.4746H30.101L34.8219 45.1955C35.1251 45.4987 35.5225 45.6504 35.9199 45.6504C36.3173 45.6504 36.7147 45.4987 37.0178 45.1955L41.7388 40.4746H45.5469V49.791ZM49.8945 37.3691H41.0957C40.6838 37.3691 40.2889 37.5327 39.9978 37.824L35.9199 41.9018L31.842 37.8239C31.5509 37.5327 31.156 37.3691 30.7441 37.3691H7.45312V28.0527H11.2612L15.9822 32.7737C16.2853 33.0769 16.6827 33.2285 17.0801 33.2285C17.4775 33.2285 17.8749 33.0769 18.178 32.7737L22.899 28.0527H49.8945V37.3691ZM45.5469 24.9473H22.2559C21.844 24.9473 21.4492 25.1108 21.158 25.4021L17.0801 29.4799L13.0022 25.402C12.711 25.1108 12.3162 24.9473 11.9043 24.9473H3.10547V15.6309H30.101L34.8219 20.3518C35.1251 20.655 35.5225 20.8066 35.9199 20.8066C36.3173 20.8066 36.7147 20.655 37.0178 20.3518L41.7388 15.6309H45.5469V24.9473Z" fill="#37C5D9"/>
</svg>
