<svg viewBox="0 0 55 55" fill="none" xmlns="http://www.w3.org/2000/svg">
<path d="M49.6146 43.8553C53.1106 39.1493 55 33.4699 55 27.5C55 20.1545 52.1396 13.2487 46.9455 8.05449C41.7513 2.86054 34.8455 0 27.5 0V3.22266C33.9847 3.22266 40.0814 5.74793 44.6667 10.3333C49.2521 14.9188 51.7773 21.0153 51.7773 27.5C51.7773 32.7382 50.1287 37.7226 47.0785 41.8623L46.7091 37.6397L43.4987 37.9205L44.3413 47.5516L53.9725 46.709L53.6917 43.4986L49.6146 43.8553Z" fill="#37C5D9"/>
<path d="M3.22266 27.5C3.22266 22.2618 4.87126 17.2774 7.9215 13.1377L8.29093 17.3603L11.5013 17.0795L10.6587 7.44843L1.02749 8.29094L1.30829 11.5013L5.38527 11.1447C1.88944 15.8507 0 21.5301 0 27.5C0 34.8455 2.86043 41.7513 8.05449 46.9455C13.2487 52.1395 20.1545 55 27.5 55V51.7774C21.0153 51.7774 14.9186 49.2521 10.3333 44.6667C5.74793 40.0813 3.22266 33.9847 3.22266 27.5Z" fill="#37C5D9"/>
<path d="M27.5 20.9473C23.8868 20.9473 20.9473 23.8868 20.9473 27.5C20.9473 31.1132 23.8868 34.0527 27.5 34.0527C31.1132 34.0527 34.0527 31.1132 34.0527 27.5C34.0527 23.8868 31.1132 20.9473 27.5 20.9473ZM27.5 30.8301C25.6638 30.8301 24.1699 29.3362 24.1699 27.5C24.1699 25.6638 25.6638 24.1699 27.5 24.1699C29.3362 24.1699 30.8301 25.6638 30.8301 27.5C30.8301 29.3362 29.3362 30.8301 27.5 30.8301Z" fill="#37C5D9"/>
<path d="M42.4289 20.9551L39.267 21.9825C38.5609 20.4828 37.5766 19.139 36.3807 18.0182L38.3379 15.3243L35.7307 13.43L33.7758 16.1207C32.3606 15.3371 30.785 14.8096 29.1113 14.6017V11.2793H25.8887V14.6017C24.2151 14.8096 22.6394 15.3372 21.2242 16.1207L19.2693 13.43L16.6621 15.3243L18.6193 18.0182C17.4234 19.139 16.439 20.4827 15.733 21.9825L12.5712 20.9551L11.5753 24.02L14.7352 25.0467C14.5827 25.8415 14.502 26.6615 14.502 27.5C14.502 28.3385 14.5827 29.1585 14.7352 29.9533L11.5753 30.98L12.5712 34.0449L15.733 33.0175C16.4391 34.5172 17.4234 35.861 18.6193 36.9818L16.6621 39.6757L19.2693 41.57L21.2242 38.8793C22.6394 39.6629 24.2151 40.1904 25.8887 40.3983V43.7207H29.1113V40.3983C30.785 40.1904 32.3606 39.6628 33.7758 38.8793L35.7307 41.57L38.3379 39.6757L36.3807 36.9818C37.5766 35.861 38.561 34.5173 39.267 33.0175L42.4289 34.0449L43.4248 30.98L40.2648 29.9533C40.4173 29.1585 40.4981 28.3385 40.4981 27.5C40.4981 26.6615 40.4173 25.8415 40.2648 25.0467L43.4248 24.02L42.4289 20.9551ZM27.5 37.2754C22.1098 37.2754 17.7246 32.8902 17.7246 27.5C17.7246 22.1098 22.1098 17.7246 27.5 17.7246C32.8902 17.7246 37.2754 22.1098 37.2754 27.5C37.2754 32.8902 32.8902 37.2754 27.5 37.2754Z" fill="#37C5D9"/>
</svg>
