<svg viewBox="0 0 55 55" fill="none" xmlns="http://www.w3.org/2000/svg">
<path d="M25.6667 53.1667C25.6667 52.6804 25.8598 52.2141 26.2036 51.8703C26.5475 51.5265 27.0138 51.3333 27.5 51.3333H51.3333V3.66667L3.66667 3.66667L3.66667 27.5C3.66667 27.9862 3.47351 28.4525 3.1297 28.7964C2.78588 29.1402 2.31956 29.3333 1.83333 29.3333C1.3471 29.3333 0.880787 29.1402 0.536971 28.7964C0.193154 28.4525 0 27.9862 0 27.5L0 1.83333C0 1.3471 0.193154 0.880787 0.536971 0.536971C0.880787 0.193154 1.3471 0 1.83333 0L53.1667 0C53.6529 0 54.1192 0.193154 54.463 0.536971C54.8068 0.880787 55 1.3471 55 1.83333V53.1667C55 53.6529 54.8068 54.1192 54.463 54.463C54.1192 54.8068 53.6529 55 53.1667 55H27.5C27.0138 55 26.5475 54.8068 26.2036 54.463C25.8598 54.1192 25.6667 53.6529 25.6667 53.1667Z" fill="#37C5D9"/>
<path fill-rule="evenodd" clip-rule="evenodd" d="M31.0377 44.2576C24.262 42.6451 21.5193 41.0175 20.2077 35.6689C25.3945 33.8181 28.2634 35.211 33.341 39.9785C29.3702 32.3524 23.4538 28.8719 13.789 32.2141C16.3221 42.1217 22.4855 45.1432 31.0377 44.2576Z" fill="#37C5D9"/>
<path fill-rule="evenodd" clip-rule="evenodd" d="M34.6766 43.2352C27.8866 37.1645 25.7448 33.5861 27.5642 26.6181C34.6815 27.7166 37.1146 31.1037 39.9883 39.7466C40.1663 28.5045 35.5269 20.8201 22.3312 18.6506C19.08 31.6222 24.289 38.9325 34.6766 43.2352Z" fill="#3B486A"/>
<path d="M42.4213 8.79999V20.8556C35.6603 26.9582 35.4399 32.2281 38.4028 43.3595C30.4095 31.5992 29.9785 20.255 42.4213 8.79999Z" fill="#3B486A"/>
</svg>
