<svg viewBox="0 0 50 50" fill="none" xmlns="http://www.w3.org/2000/svg">
<path d="M48.291 45.5079H37.2943L30.3825 31.3822V29.3521H42.2844V30.8162H41.552C41.1474 30.8162 40.8195 31.1442 40.8195 31.5487C40.8195 31.9532 41.1474 32.2811 41.552 32.2811H42.2844V33.7459H41.552C41.1474 33.7459 40.8195 34.0739 40.8195 34.4784C40.8195 34.8828 41.1474 35.2108 41.552 35.2108H44.4816C44.8862 35.2108 45.2141 34.8828 45.2141 34.4784C45.2141 34.0739 44.8862 33.7459 44.4816 33.7459H43.7492V32.2811H44.4816C44.8862 32.2811 45.2141 31.9532 45.2141 31.5487C45.2141 31.1442 44.8862 30.8162 44.4816 30.8162H43.7492C43.7494 30.0234 43.7489 28.1536 43.7489 27.3731C43.7489 26.1692 43.05 25.0498 41.9683 24.5213L30.3825 18.8614V17.1144H34.6971C35.1017 17.1144 35.4295 16.7865 35.4295 16.382C35.4295 15.9775 35.1017 15.6495 34.6971 15.6495H30.3825V8.25403L41.3253 13.5997C41.9077 13.8843 42.2841 14.487 42.2841 15.1353V15.6495H38.1171C37.7125 15.6495 37.3847 15.9775 37.3847 16.382C37.3847 16.7865 37.7125 17.1144 38.1171 17.1144H42.2844V18.5791H41.552C41.1474 18.5791 40.8195 18.9071 40.8195 19.3116C40.8195 19.716 41.1474 20.044 41.552 20.044H44.4816C44.8862 20.044 45.2141 19.716 45.2141 19.3116C45.2141 18.9071 44.8862 18.5791 44.4816 18.5791H43.7492V16.382L43.7489 16.3763V15.1353C43.7489 13.9314 43.05 12.812 41.9683 12.2835L30.2059 6.53743L27.8651 1.46604L32.5688 1.46594C32.7033 1.46594 32.8128 1.57542 32.8129 1.70999L32.8134 2.93352H32.0812C31.6767 2.93352 31.3488 3.26145 31.3488 3.66594C31.3488 4.07044 31.6767 4.39837 32.0812 4.39837H35.0109C35.4155 4.39837 35.7434 4.07044 35.7434 3.66594C35.7434 3.26145 35.4155 2.93352 35.0109 2.93352H34.2782L34.2777 1.7094C34.2774 0.767407 33.5107 0.00100099 32.5687 0.00109864L17.4317 0.00139161C16.4895 0.00148927 15.7229 0.768189 15.7229 1.71038V2.93108H14.9904C14.5859 2.93108 14.258 3.25901 14.258 3.6635C14.258 4.06799 14.5859 4.39592 14.9904 4.39592H17.9201C18.3246 4.39592 18.6525 4.06799 18.6525 3.6635C18.6525 3.25901 18.3246 2.93108 17.9201 2.93108H17.1877V1.71038C17.1877 1.57581 17.2973 1.46624 17.4318 1.46624L22.1349 1.46614L19.7943 6.53713L15.0792 8.84075C14.7157 9.01829 14.565 9.45686 14.7427 9.82034C14.9202 10.1837 15.3587 10.3345 15.7223 10.1569L19.6168 8.25413V15.6494H7.71592V15.1354C7.71592 14.4871 8.09229 13.8844 8.67471 13.5998L12.6514 11.6571C13.0148 11.4795 13.1655 11.0409 12.988 10.6775C12.8104 10.314 12.3719 10.1633 12.0084 10.3408L8.03164 12.2838C6.95 12.8123 6.25107 13.9317 6.25107 15.1355V16.3817V18.579H5.51865C5.11416 18.579 4.78623 18.907 4.78623 19.3115C4.78623 19.7159 5.11416 20.0439 5.51865 20.0439H8.44834C8.85283 20.0439 9.18076 19.7159 9.18076 19.3115C9.18076 18.907 8.85283 18.579 8.44834 18.579H7.71592V17.1143H19.6169V18.8616L8.03164 24.5216C6.95 25.0501 6.25107 26.1695 6.25107 27.3733V30.8162H5.51865C5.11416 30.8162 4.78623 31.1442 4.78623 31.5487C4.78623 31.9532 5.11416 32.2811 5.51865 32.2811H6.25107V33.7459H5.51865C5.11416 33.7459 4.78623 34.0739 4.78623 34.4784C4.78623 34.8828 5.11416 35.2108 5.51865 35.2108H8.44834C8.85283 35.2108 9.18076 34.8828 9.18076 34.4784C9.18076 34.0739 8.85283 33.7459 8.44834 33.7459H7.71592V32.2811H8.44834C8.85283 32.2811 9.18076 31.9532 9.18076 31.5487C9.18076 31.1442 8.85283 30.8162 8.44834 30.8162H7.71592V29.3521H13.005C13.4095 29.3521 13.7374 29.0241 13.7374 28.6197C13.7374 28.2152 13.4095 27.8872 13.005 27.8872H7.71592V27.3733C7.71592 26.725 8.09229 26.1223 8.67471 25.8377L19.6168 20.4919V27.8872H16.4374C16.0329 27.8872 15.705 28.2152 15.705 28.6197C15.705 29.0241 16.0329 29.3521 16.4374 29.3521H19.6168V31.3833L12.7057 45.5079H1.70898C0.766699 45.5079 0 46.2746 0 47.2169V48.2911C0 49.2334 0.766699 50.0001 1.70898 50.0001H48.291C49.2333 50.0001 50 49.2334 50 48.2911V47.2169C50 46.2746 49.2333 45.5079 48.291 45.5079ZM33.9705 45.5079L31.0818 42.3172C30.8103 42.0172 30.3472 41.9944 30.0474 42.2659C29.7475 42.5373 29.7244 43.0005 29.996 43.3004L31.9946 45.508H18.0057L25 37.7814L27.6978 40.7616C27.8423 40.9213 28.0413 41.0025 28.241 41.0025C28.4163 41.0025 28.5922 40.9399 28.7323 40.813C29.0322 40.5415 29.0553 40.0784 28.7838 39.7785L25.9879 36.69L29.4679 32.8457L35.6635 45.5079H33.9705ZM28.9177 29.3521V30.8201H21.0816V29.3521H28.9177ZM22.1178 27.8872L25 25.0051L27.8823 27.8873L22.1178 27.8872ZM26.0357 23.9693L28.9177 21.0874V26.8512L26.0357 23.9693ZM28.9177 17.1144V18.5865H21.0816V17.1144H28.9177ZM22.118 15.6495L25 12.7676L27.882 15.6495H22.118ZM27.8823 20.0513L25 22.9335L22.1177 20.0513H27.8823ZM26.0357 11.7319L28.9177 8.85003V14.6138L26.0357 11.7319ZM25 10.6961L22.1174 7.8136H27.8826L25 10.6961ZM23.9642 11.7319L21.0816 14.6143V8.84944L23.9642 11.7319ZM23.9642 23.9693L21.0816 26.8517V21.0868L23.9642 23.9693ZM27.9996 32.285L25 35.5987L22.0003 32.285H27.9996ZM42.2841 27.3731V27.8872H30.3825V20.4916L41.3253 25.8375C41.9077 26.1221 42.2841 26.7248 42.2841 27.3731ZM26.2518 1.46604L28.5054 6.34866H21.4946L23.7481 1.46614L26.2518 1.46604ZM20.5321 32.8457L24.0121 36.69L16.0299 45.5079H14.3365L20.5321 32.8457ZM48.5352 48.2911C48.5352 48.4257 48.4257 48.5353 48.291 48.5353H1.70898C1.57441 48.5353 1.46484 48.4257 1.46484 48.2911V47.2169C1.46484 47.0824 1.57441 46.9728 1.70898 46.9728H48.291C48.4257 46.9728 48.5352 47.0824 48.5352 47.2169V48.2911Z" fill="#3B486A"/>
</svg>
