<svg viewBox="0 0 50 50" fill="none" xmlns="http://www.w3.org/2000/svg">
<g clip-path="url(#clip0)">
<path d="M25.0002 7.03125C25.2074 7.03125 25.4062 6.94894 25.5527 6.80243C25.6993 6.65591 25.7816 6.4572 25.7816 6.25V0.78125C25.7816 0.57405 25.6993 0.375336 25.5527 0.228823C25.4062 0.08231 25.2074 0 25.0002 0C24.7929 0 24.5942 0.08231 24.4476 0.228823C24.3011 0.375336 24.2188 0.57405 24.2188 0.78125V6.25C24.2188 6.4572 24.3011 6.65591 24.4476 6.80243C24.5942 6.94894 24.7929 7.03125 25.0002 7.03125Z" fill="#3B486A"/>
<path d="M17.854 7.64841C17.9089 7.79911 18.0088 7.92928 18.1402 8.02127C18.2716 8.11326 18.4281 8.16261 18.5885 8.16263C18.6797 8.16262 18.7701 8.14646 18.8556 8.1149C18.9521 8.07989 19.0407 8.0262 19.1164 7.9569C19.1921 7.88761 19.2534 7.80406 19.2968 7.71106C19.3402 7.61805 19.3648 7.5174 19.3692 7.41488C19.3736 7.31235 19.3578 7.20996 19.3226 7.11357L18.3867 4.54404C18.3134 4.35259 18.1677 4.19763 17.9811 4.11257C17.7946 4.02751 17.5821 4.01917 17.3894 4.08935C17.1967 4.15953 17.0394 4.30261 16.9513 4.48772C16.8632 4.67284 16.8514 4.88515 16.9185 5.07888L17.854 7.64841Z" fill="#3B486A"/>
<path d="M6.00362 14.9346L8.37227 16.3017C8.55179 16.4053 8.76512 16.4334 8.96533 16.3797C9.16554 16.3261 9.33623 16.1951 9.43985 16.0156C9.54347 15.8362 9.57154 15.6229 9.51788 15.4227C9.46421 15.2226 9.33321 15.0519 9.15369 14.9483L6.78505 13.5811C6.69616 13.5298 6.59803 13.4965 6.49628 13.4831C6.39452 13.4698 6.29112 13.4765 6.19199 13.5031C6.09286 13.5297 5.99993 13.5755 5.91851 13.638C5.83709 13.7005 5.76877 13.7783 5.71747 13.8672C5.66616 13.9561 5.63286 14.0542 5.61947 14.1559C5.60608 14.2577 5.61287 14.361 5.63944 14.4601C5.66601 14.5592 5.71185 14.6522 5.77434 14.7336C5.83682 14.815 5.91473 14.8833 6.00362 14.9346Z" fill="#3B486A"/>
<path d="M3.84229 29.512C3.88807 29.512 3.93377 29.5081 3.97888 29.5002L6.6719 29.0252C6.87604 28.9892 7.0575 28.8736 7.17637 28.7038C7.29524 28.534 7.34178 28.324 7.30575 28.1199C7.26972 27.9158 7.15407 27.7344 6.98425 27.6155C6.81443 27.4967 6.60434 27.4501 6.4002 27.4862L3.70718 27.9611C3.51465 27.9949 3.3418 28.0997 3.22273 28.2547C3.10366 28.4097 3.04702 28.6036 3.06398 28.7983C3.08095 28.993 3.17028 29.1743 3.31436 29.3064C3.45845 29.4385 3.64681 29.5118 3.84229 29.5118V29.512Z" fill="#3B486A"/>
<path d="M12.3499 38.8611L10.5917 40.9554C10.5238 41.0337 10.472 41.1247 10.4396 41.2232C10.4072 41.3216 10.3947 41.4256 10.4028 41.5289C10.411 41.6323 10.4396 41.733 10.4871 41.8251C10.5345 41.9173 10.5999 41.9991 10.6793 42.0658C10.7587 42.1325 10.8505 42.1827 10.9495 42.2135C11.0485 42.2443 11.1527 42.2551 11.2559 42.2453C11.3591 42.2354 11.4594 42.2052 11.5508 42.1562C11.6422 42.1073 11.7229 42.0406 11.7883 41.9601L13.5465 39.8659C13.6145 39.7876 13.6662 39.6965 13.6986 39.5981C13.7311 39.4996 13.7436 39.3957 13.7354 39.2923C13.7273 39.189 13.6987 39.0883 13.6512 38.9961C13.6037 38.9039 13.5384 38.8221 13.459 38.7555C13.3796 38.6888 13.2877 38.6386 13.1887 38.6078C13.0897 38.5769 12.9856 38.5661 12.8823 38.576C12.7791 38.5858 12.6789 38.6161 12.5875 38.665C12.4961 38.714 12.4153 38.7806 12.3499 38.8611Z" fill="#3B486A"/>
<path d="M12.35 11.1389C12.4153 11.2194 12.4961 11.286 12.5875 11.335C12.6788 11.3839 12.7791 11.4142 12.8823 11.424C12.9855 11.4339 13.0896 11.4231 13.1886 11.3922C13.2876 11.3614 13.3794 11.3112 13.4588 11.2446C13.5382 11.1779 13.6035 11.0961 13.651 11.0039C13.6984 10.9117 13.727 10.811 13.7352 10.7077C13.7433 10.6043 13.7308 10.5004 13.6984 10.4019C13.666 10.3035 13.6143 10.2124 13.5463 10.1342L10.0307 5.94486C9.96532 5.86439 9.88459 5.79775 9.79321 5.7488C9.70182 5.69985 9.60161 5.66957 9.49841 5.65974C9.3952 5.64991 9.29108 5.66072 9.1921 5.69153C9.09311 5.72235 9.00125 5.77255 8.92187 5.83923C8.84248 5.9059 8.77716 5.9877 8.72971 6.07988C8.68226 6.17205 8.65363 6.27274 8.64548 6.37609C8.63734 6.47944 8.64984 6.58338 8.68227 6.68184C8.7147 6.78031 8.7664 6.87134 8.83436 6.94962L12.35 11.1389Z" fill="#3B486A"/>
<path d="M6.53543 22.5254C6.73078 22.5252 6.919 22.4519 7.06295 22.3198C7.20691 22.1878 7.29616 22.0065 7.31311 21.8119C7.33007 21.6173 7.27349 21.4234 7.15454 21.2684C7.03559 21.1135 6.86289 21.0087 6.67051 20.9748L1.28488 20.0248C1.08079 19.9888 0.870748 20.0354 0.700969 20.1542C0.53119 20.2731 0.415578 20.4545 0.379566 20.6586C0.343555 20.8627 0.390094 21.0727 0.508945 21.2425C0.627796 21.4123 0.809224 21.5279 1.01332 21.5639L6.39855 22.5136C6.44375 22.5214 6.48955 22.5254 6.53543 22.5254Z" fill="#3B486A"/>
<path d="M8.37219 33.6983L3.63586 36.4327C3.45639 36.5363 3.32541 36.7069 3.27176 36.9071C3.21811 37.1072 3.24617 37.3205 3.34977 37.5C3.45337 37.6795 3.62402 37.8104 3.82419 37.8641C4.02435 37.9177 4.23763 37.8897 4.41711 37.7861L9.15344 35.0517C9.24231 35.0004 9.3202 34.9321 9.38267 34.8507C9.44514 34.7693 9.49097 34.6764 9.51754 34.5773C9.54411 34.4782 9.55089 34.3748 9.53751 34.2731C9.52412 34.1713 9.49083 34.0732 9.43953 33.9844C9.38823 33.8955 9.31993 33.8176 9.23853 33.7551C9.15713 33.6927 9.06422 33.6468 8.96511 33.6203C8.866 33.5937 8.76263 33.5869 8.66089 33.6003C8.55916 33.6137 8.46106 33.647 8.37219 33.6983Z" fill="#3B486A"/>
<path d="M31.1457 8.11458C31.2312 8.14615 31.3216 8.16231 31.4128 8.16232C31.5732 8.1623 31.7297 8.11295 31.8611 8.02096C31.9925 7.92897 32.0924 7.7988 32.1473 7.6481L33.0824 5.07888C33.1495 4.88515 33.1377 4.67284 33.0496 4.48772C32.9615 4.30261 32.8042 4.15953 32.6115 4.08935C32.4188 4.01917 32.2063 4.02751 32.0198 4.11257C31.8332 4.19763 31.6875 4.35259 31.6142 4.54404L30.6787 7.11326C30.6435 7.20965 30.6276 7.31204 30.6321 7.41457C30.6365 7.51709 30.6611 7.61774 30.7045 7.71075C30.7478 7.80375 30.8091 7.8873 30.8849 7.95659C30.9606 8.02589 31.0492 8.07958 31.1457 8.11458Z" fill="#3B486A"/>
<path d="M40.5613 16.0156C40.6649 16.1951 40.8356 16.326 41.0358 16.3796C41.236 16.4333 41.4493 16.4052 41.6288 16.3017L43.9975 14.9346C44.0864 14.8833 44.1643 14.815 44.2268 14.7336C44.2893 14.6522 44.3351 14.5592 44.3617 14.4601C44.3883 14.361 44.395 14.2577 44.3817 14.1559C44.3683 14.0542 44.335 13.9561 44.2837 13.8672C44.2323 13.7783 44.164 13.7005 44.0826 13.638C44.0012 13.5755 43.9083 13.5297 43.8091 13.5031C43.71 13.4765 43.6066 13.4698 43.5048 13.4831C43.4031 13.4965 43.305 13.5298 43.2161 13.5811L40.8474 14.9483C40.7585 14.9996 40.6806 15.0679 40.6181 15.1493C40.5556 15.2307 40.5098 15.3236 40.4832 15.4227C40.4566 15.5218 40.4498 15.6252 40.4632 15.7269C40.4766 15.8287 40.5099 15.9268 40.5613 16.0156Z" fill="#3B486A"/>
<path d="M46.2947 27.9613L43.602 27.4864C43.3979 27.4504 43.1878 27.4969 43.018 27.6158C42.8481 27.7346 42.7325 27.916 42.6965 28.1201C42.6604 28.3242 42.707 28.5343 42.8258 28.704C42.9447 28.8738 43.1262 28.9895 43.3303 29.0255L46.0233 29.5005C46.0684 29.5083 46.1141 29.5123 46.1599 29.5123C46.3554 29.5122 46.5438 29.4389 46.6879 29.3069C46.8319 29.1748 46.9213 28.9935 46.9382 28.7988C46.9552 28.6041 46.8986 28.4101 46.7795 28.2551C46.6604 28.1002 46.4876 27.9954 46.295 27.9616L46.2947 27.9613Z" fill="#3B486A"/>
<path d="M37.6506 38.8611C37.5852 38.7806 37.5045 38.714 37.4131 38.665C37.3217 38.6161 37.2215 38.5858 37.1182 38.576C37.015 38.5661 36.9109 38.5769 36.8118 38.6078C36.7128 38.6386 36.621 38.6888 36.5416 38.7555C36.4622 38.8221 36.3968 38.9039 36.3494 38.9961C36.3019 39.0883 36.2733 39.189 36.2651 39.2923C36.257 39.3957 36.2695 39.4996 36.3019 39.5981C36.3343 39.6965 36.3861 39.7876 36.454 39.8659L38.2122 41.9601C38.3466 42.1149 38.5365 42.2107 38.7409 42.2268C38.9453 42.2429 39.1479 42.1781 39.3049 42.0462C39.4619 41.9144 39.5608 41.7261 39.5802 41.5221C39.5997 41.318 39.5381 41.1145 39.4088 40.9554L37.6506 38.8611Z" fill="#3B486A"/>
<path d="M37.0513 11.4177C37.1655 11.418 37.2783 11.3932 37.3818 11.345C37.4853 11.2968 37.577 11.2265 37.6502 11.1389L41.1659 6.94962C41.2338 6.87134 41.2855 6.78031 41.318 6.68184C41.3504 6.58338 41.3629 6.47944 41.3547 6.37609C41.3466 6.27274 41.318 6.17205 41.2705 6.07988C41.2231 5.9877 41.1577 5.9059 41.0784 5.83923C40.999 5.77255 40.9071 5.72235 40.8081 5.69153C40.7092 5.66072 40.605 5.64991 40.5018 5.65974C40.3986 5.66957 40.2984 5.69985 40.207 5.7488C40.1156 5.79775 40.0349 5.86439 39.9695 5.94486L36.4539 10.1342C36.3583 10.248 36.2972 10.3868 36.2777 10.5341C36.2583 10.6815 36.2812 10.8314 36.344 10.9662C36.4067 11.1009 36.5066 11.215 36.6319 11.295C36.7572 11.375 36.9027 11.4176 37.0513 11.4177Z" fill="#3B486A"/>
<path d="M48.7153 20.0248L43.3296 20.9748C43.1373 21.0087 42.9646 21.1135 42.8456 21.2684C42.7267 21.4234 42.6701 21.6173 42.687 21.8119C42.704 22.0065 42.7932 22.1878 42.9372 22.3198C43.0812 22.4519 43.2694 22.5252 43.4647 22.5254C43.5105 22.5254 43.5562 22.5214 43.6013 22.5136L48.9868 21.5637C49.1909 21.5277 49.3724 21.4121 49.4912 21.2423C49.6101 21.0726 49.6566 20.8625 49.6206 20.6584C49.5846 20.4543 49.469 20.2729 49.2992 20.1541C49.1294 20.0352 48.9194 19.9887 48.7153 20.0247V20.0248Z" fill="#3B486A"/>
<path d="M46.3644 36.4327L41.628 33.6983C41.5392 33.647 41.4411 33.6137 41.3393 33.6003C41.2376 33.5869 41.1342 33.5937 41.0351 33.6203C40.936 33.6468 40.8431 33.6927 40.7617 33.7551C40.6803 33.8176 40.612 33.8955 40.5607 33.9844C40.5094 34.0732 40.4761 34.1713 40.4627 34.2731C40.4493 34.3748 40.4561 34.4782 40.4827 34.5773C40.5093 34.6764 40.5551 34.7693 40.6176 34.8507C40.68 34.9321 40.7579 35.0004 40.8468 35.0517L45.5831 37.7861C45.7626 37.8897 45.9759 37.9177 46.1761 37.8641C46.3762 37.8104 46.5469 37.6795 46.6505 37.5C46.7541 37.3205 46.7821 37.1072 46.7285 36.9071C46.6748 36.7069 46.5439 36.5363 46.3644 36.4327Z" fill="#3B486A"/>
<path d="M25.0001 8.59375C20.8575 8.59842 16.8859 10.2461 13.9567 13.1754C11.0274 16.1046 9.37975 20.0762 9.37507 24.2188C9.36859 26.3149 9.78827 28.3904 10.6086 30.3194C11.429 32.2483 12.6329 33.9904 14.1473 35.4397C14.8536 36.102 15.418 36.9009 15.8064 37.7879C16.1947 38.6749 16.3988 39.6316 16.4063 40.5998V44.5312C16.4063 44.7384 16.4886 44.9372 16.6351 45.0837C16.7817 45.2302 16.9804 45.3125 17.1876 45.3125H19.5938C19.7803 46.6135 20.4296 47.8035 21.4226 48.6644C22.4157 49.5253 23.6858 49.9992 25.0001 49.9992C26.3143 49.9992 27.5845 49.5253 28.5775 48.6644C29.5706 47.8035 30.2199 46.6135 30.4063 45.3125H32.8126C33.0198 45.3125 33.2185 45.2302 33.365 45.0837C33.5115 44.9372 33.5938 44.7384 33.5938 44.5312V40.5998C33.6014 39.6316 33.8055 38.6749 34.1938 37.7879C34.5821 36.9009 35.1466 36.102 35.8529 35.4397C37.3672 33.9904 38.5711 32.2483 39.3915 30.3194C40.2119 28.3904 40.6316 26.3149 40.6251 24.2188C40.6204 20.0762 38.9727 16.1046 36.0435 13.1754C33.1142 10.2461 29.1426 8.59842 25.0001 8.59375ZM25.0001 48.4375C24.1 48.4363 23.2278 48.1249 22.5306 47.5556C21.8333 46.9864 21.3537 46.1942 21.1724 45.3125H28.8277C28.6465 46.1942 28.1668 46.9864 27.4696 47.5556C26.7723 48.1249 25.9002 48.4363 25.0001 48.4375ZM17.9688 43.75V41.4062H32.0313V43.75H17.9688ZM21.8751 28.9062H19.9219C19.5357 28.9062 19.158 28.7917 18.8369 28.5771C18.5157 28.3625 18.2653 28.0574 18.1175 27.7006C17.9697 27.3437 17.931 26.951 18.0064 26.5721C18.0817 26.1932 18.2677 25.8452 18.5409 25.5721C18.814 25.2989 19.162 25.1129 19.5409 25.0375C19.9198 24.9622 20.3125 25.0008 20.6694 25.1487C21.0263 25.2965 21.3313 25.5468 21.5459 25.868C21.7605 26.1892 21.8751 26.5668 21.8751 26.9531V28.9062ZM26.5626 39.8438H23.4376V30.4688H26.5626V39.8438ZM34.768 34.3151C33.2292 35.7707 32.2707 37.7351 32.0704 39.8438H28.1251V30.4688H30.0782C30.7735 30.4688 31.4532 30.2626 32.0314 29.8763C32.6095 29.49 33.0601 28.9409 33.3262 28.2985C33.5923 27.6561 33.6619 26.9492 33.5263 26.2673C33.3906 25.5853 33.0558 24.9589 32.5641 24.4672C32.0725 23.9755 31.446 23.6407 30.7641 23.5051C30.0821 23.3694 29.3752 23.439 28.7328 23.7051C28.0904 23.9712 27.5414 24.4218 27.1551 24.9999C26.7688 25.5781 26.5626 26.2578 26.5626 26.9531V28.9062H23.4376V26.9531C23.4376 26.2578 23.2314 25.5781 22.8451 24.9999C22.4588 24.4218 21.9097 23.9712 21.2673 23.7051C20.6249 23.439 19.918 23.3694 19.2361 23.5051C18.5541 23.6407 17.9277 23.9755 17.436 24.4672C16.9444 24.9589 16.6095 25.5853 16.4739 26.2673C16.3382 26.9492 16.4078 27.6561 16.6739 28.2985C16.94 28.9409 17.3906 29.49 17.9688 29.8763C18.5469 30.2626 19.2266 30.4688 19.9219 30.4688H21.8751V39.8438H17.9298C17.7295 37.7351 16.771 35.7707 15.2322 34.3151C13.8695 33.0111 12.7861 31.4436 12.0479 29.708C11.3096 27.9724 10.9318 26.1048 10.9376 24.2188C10.9376 20.4891 12.4192 16.9123 15.0564 14.2751C17.6936 11.6378 21.2705 10.1562 25.0001 10.1562C28.7297 10.1562 32.3065 11.6378 34.9438 14.2751C37.581 16.9123 39.0626 20.4891 39.0626 24.2188C39.0683 26.1048 38.6906 27.9724 37.9523 29.708C37.214 31.4436 36.1306 33.0111 34.768 34.3151ZM28.1251 28.9062V26.9531C28.1251 26.5668 28.2396 26.1892 28.4542 25.868C28.6688 25.5468 28.9739 25.2965 29.3308 25.1487C29.6877 25.0008 30.0804 24.9622 30.4592 25.0375C30.8381 25.1129 31.1861 25.2989 31.4593 25.5721C31.7324 25.8452 31.9184 26.1932 31.9938 26.5721C32.0692 26.951 32.0305 27.3437 31.8827 27.7006C31.7348 28.0574 31.4845 28.3625 31.1633 28.5771C30.8421 28.7917 30.4645 28.9062 30.0782 28.9062H28.1251Z" fill="#3B486A"/>
<path d="M37.0148 20.7656C36.2565 18.1631 34.6767 15.8757 32.5112 14.2451C30.3457 12.6145 27.7107 11.7283 25 11.7188C24.7928 11.7187 24.5941 11.8011 24.4476 11.9476C24.3011 12.0941 24.2188 12.2928 24.2188 12.5C24.2188 12.7072 24.3011 12.9059 24.4476 13.0524C24.5941 13.1989 24.7928 13.2812 25 13.2812C27.372 13.2896 29.6776 14.0651 31.5725 15.4919C33.4674 16.9187 34.8498 18.9202 35.5133 21.1975C35.5728 21.3939 35.7073 21.559 35.8876 21.6571C36.0679 21.7552 36.2796 21.7784 36.4768 21.7216C36.6741 21.6649 36.8411 21.5328 36.9418 21.354C37.0424 21.1751 37.0687 20.9638 37.0148 20.7657V20.7656Z" fill="#3B486A"/>
</g>
<defs>
<clipPath id="clip0">
<rect width="50" height="50" fill="white"/>
</clipPath>
</defs>
</svg>
