<svg viewBox="0 0 50 50" fill="none" xmlns="http://www.w3.org/2000/svg">
<path d="M24.9999 1.5625C19.4682 1.56055 14.1142 3.51596 9.88578 7.08253C5.65736 10.6491 2.82727 15.5968 1.89655 21.0497C0.965831 26.5025 1.99452 32.1088 4.80049 36.8761C7.60646 41.6433 12.0087 45.264 17.2279 47.097L16.9654 48.7923C16.9445 48.9279 16.9596 49.0665 17.0092 49.1944C17.0588 49.3222 17.1412 49.4348 17.2481 49.5207C17.3549 49.6067 17.4825 49.663 17.618 49.6841C17.7535 49.7051 17.8922 49.6902 18.0201 49.6407L25.2825 46.8224C25.4104 46.7728 25.523 46.6904 25.6089 46.5835C25.6948 46.4766 25.7511 46.349 25.7721 46.2134C25.793 46.0779 25.7779 45.9392 25.7283 45.8113C25.6787 45.6835 25.5962 45.5709 25.4893 45.485L19.4178 40.6038C19.3109 40.5177 19.1833 40.4613 19.0477 40.4403C18.912 40.4193 18.7733 40.4343 18.6454 40.484C18.5174 40.5337 18.4049 40.6162 18.319 40.7233C18.2331 40.8303 18.177 40.9581 18.1562 41.0938L17.9582 42.3732C14.8062 41.0954 12.0612 38.9843 10.0172 36.2659C7.97316 33.5475 6.7071 30.3242 6.35464 26.9414C6.00217 23.5586 6.57657 20.1436 8.0163 17.0622C9.45604 13.9808 11.7069 11.3492 14.5278 9.44904C17.3486 7.54891 20.6332 6.45194 24.0298 6.2756C27.4264 6.09926 30.8069 6.85021 33.8094 8.44801C36.8118 10.0458 39.3231 12.4303 41.0742 15.346C42.8253 18.2617 43.7502 21.5989 43.7499 25C43.7499 25.2072 43.8322 25.4059 43.9788 25.5524C44.1253 25.6989 44.324 25.7813 44.5312 25.7813H47.6562C47.8634 25.7813 48.0621 25.6989 48.2086 25.5524C48.3551 25.4059 48.4374 25.2072 48.4374 25C48.4304 18.7861 45.9589 12.8288 41.565 8.43495C37.1711 4.04109 31.2138 1.56953 24.9999 1.5625ZM45.2976 24.2188C45.1564 20.5261 44.0104 16.9419 41.9832 13.8521C39.956 10.7624 37.1244 8.28426 33.7932 6.68453C30.462 5.0848 26.7575 4.42412 23.0787 4.77364C19.3999 5.12316 15.8861 6.46963 12.9158 8.66806C9.94549 10.8665 7.63117 13.8336 6.22209 17.2498C4.81301 20.666 4.36255 24.4018 4.91924 28.055C5.47593 31.7083 7.01867 35.1404 9.38131 37.9818C11.744 40.8233 14.837 42.9664 18.3273 44.1803C18.4355 44.218 18.5506 44.2314 18.6645 44.2197C18.7785 44.2079 18.8884 44.1711 18.9866 44.1121C19.0847 44.053 19.1687 43.9731 19.2325 43.878C19.2963 43.7828 19.3384 43.6748 19.3557 43.5616L19.4938 42.6697L23.4561 45.8549L18.7163 47.6944L18.8726 46.685C18.9012 46.501 18.8631 46.3129 18.7651 46.1545C18.6672 45.9962 18.5159 45.878 18.3385 45.8214C14.525 44.6006 11.1198 42.3561 8.49431 39.3328C5.86882 36.3094 4.12381 32.6233 3.44955 28.6763C2.77528 24.7292 3.19765 20.6728 4.6706 16.9494C6.14355 13.2259 8.61053 9.97833 11.8025 7.56074C14.9946 5.14315 18.7891 3.64836 22.7724 3.23935C26.7556 2.83035 30.7747 3.52284 34.3914 5.24131C38.0081 6.95978 41.0836 9.63826 43.2825 12.9847C45.4814 16.3311 46.7193 20.2171 46.8612 24.2188H45.2976Z" fill="#3B486A"/>
<path d="M35.6477 22.8722L28.4993 21.6362C28.7875 20.483 29.281 19.3912 29.956 18.4128C30.2451 17.9947 30.5068 17.6278 30.7422 17.2981C31.8723 15.7158 32.4945 14.8446 32.4945 13.2813C32.4945 11.0268 29.8063 8.59377 25.4632 8.59377C24.2316 8.52971 23.0017 8.74745 21.8669 9.23041C20.7322 9.71337 19.7225 10.4488 18.9149 11.3808C18.2525 12.1053 17.8014 12.9976 17.6107 13.9606C17.4201 14.9236 17.4971 15.9204 17.8335 16.8427L20.3373 23.6514C19.1943 23.977 18.0023 24.0955 16.8176 24.0014C16.3117 23.9609 15.8639 23.9174 15.4614 23.8778C13.5255 23.6903 12.4582 23.5878 11.1039 24.3691C9.15159 25.4967 8.38862 29.041 10.5599 32.8018C11.1203 33.9005 11.924 34.857 12.9097 35.5982C13.8955 36.3395 15.0374 36.8462 16.2485 37.0796C16.6306 37.1524 17.0187 37.1894 17.4077 37.1903C18.1918 37.2001 18.9682 37.0341 19.6797 36.7044C20.3912 36.3747 21.0198 35.8898 21.5192 35.2852L26.1637 29.7126C27.0182 30.5388 27.717 31.5121 28.2267 32.586C28.4445 33.0445 28.631 33.4549 28.7985 33.8234C29.6038 35.5935 30.0474 36.5685 31.4016 37.3497C31.9123 37.6353 32.4894 37.7808 33.0744 37.7716C33.8204 37.758 34.5546 37.5822 35.2259 37.2566C36.8246 36.4576 38.1354 35.1813 38.9767 33.6045C39.648 32.5697 40.0745 31.3955 40.2236 30.1711C40.3728 28.9467 40.2406 27.7045 39.8373 26.5389C39.5408 25.6031 38.9935 24.7666 38.2548 24.1201C37.5162 23.4737 36.6145 23.042 35.6477 22.8722ZM25.0001 28.125C24.382 28.125 23.7779 27.9417 23.264 27.5984C22.75 27.255 22.3495 26.7669 22.113 26.1959C21.8765 25.6249 21.8146 24.9966 21.9352 24.3904C22.0557 23.7842 22.3534 23.2274 22.7904 22.7903C23.2274 22.3533 23.7843 22.0556 24.3905 21.9351C24.9966 21.8145 25.625 21.8764 26.196 22.1129C26.767 22.3494 27.2551 22.75 27.5985 23.2639C27.9418 23.7778 28.1251 24.382 28.1251 25C28.1242 25.8286 27.7947 26.6229 27.2089 27.2088C26.623 27.7946 25.8286 28.1242 25.0001 28.125ZM20.1005 12.3985C20.7654 11.642 21.5939 11.0469 22.5231 10.6584C23.4523 10.2699 24.4578 10.0982 25.4632 10.1563C28.9846 10.1563 30.932 12.0041 30.932 13.2813C30.932 14.3438 30.5043 14.943 29.471 16.3906C29.2314 16.7266 28.9648 17.0994 28.6707 17.5251C27.9836 18.5358 27.4516 19.6437 27.0925 20.8119C26.1482 20.3361 25.0703 20.1952 24.0355 20.4123C23.0006 20.6293 22.0702 21.1915 21.3967 22.0067L19.2997 16.3044C19.0635 15.6423 19.0133 14.9282 19.1545 14.2396C19.2956 13.5509 19.6228 12.9142 20.1005 12.3985ZM20.3192 34.2842C19.864 34.8196 19.2708 35.2202 18.6041 35.4424C17.9373 35.6645 17.2224 35.6999 16.537 35.5446C15.5493 35.3468 14.6197 34.9266 13.8186 34.316C13.0175 33.7054 12.366 32.9204 11.9135 32.0205C10.1527 28.971 10.7795 26.361 11.8853 25.7224C12.8072 25.1899 13.5394 25.2615 15.3106 25.4334C15.7207 25.4731 16.1765 25.5173 16.6914 25.5592C17.9103 25.6494 19.1359 25.5561 20.3271 25.2823C20.3917 26.3364 20.8103 27.3378 21.5151 28.1243C22.2199 28.9108 23.1696 29.4363 24.2103 29.6156L20.3192 34.2842ZM37.6235 32.8232C36.9309 34.1134 35.8654 35.1647 34.566 35.8399C34.2076 36.0476 33.8062 36.1698 33.3929 36.1969C32.9795 36.2241 32.5655 36.1553 32.1832 35.9961C31.2623 35.4649 30.9575 34.7953 30.2209 33.1758C30.0504 32.8013 29.8604 32.3839 29.6388 31.9162C29.1074 30.8167 28.4145 29.8029 27.5831 28.9084C28.4675 28.3284 29.1284 27.4648 29.4572 26.4595C29.7859 25.4542 29.7629 24.367 29.3921 23.3764L35.3818 24.4121C36.073 24.5387 36.7164 24.8521 37.2421 25.3184C37.7677 25.7847 38.1557 26.386 38.3638 27.0572C38.6862 28.0115 38.7871 29.0266 38.6588 30.0256C38.5305 31.0247 38.1764 31.9814 37.6233 32.8232H37.6235Z" fill="#3B486A"/>
</svg>
