<svg viewBox="0 0 50 50" fill="none" xmlns="http://www.w3.org/2000/svg">
<g clip-path="url(#clip0)">
<path d="M34.4961 29.6188H32.5979C32.4526 28.8292 32.2448 28.0522 31.9771 27.2966L33.6194 26.3485C33.7878 26.2514 33.9104 26.0913 33.9607 25.9037C34.0111 25.716 33.9847 25.5161 33.8876 25.348L31.8496 21.8186C31.6473 21.4683 31.1994 21.3484 30.8492 21.5505L29.2033 22.5006C28.6825 21.891 28.114 21.3226 27.5044 20.8019L28.4545 19.1566C28.5517 18.9883 28.5779 18.7883 28.5277 18.6007C28.4774 18.4131 28.3547 18.253 28.1864 18.156L24.6564 16.1183C24.3062 15.9158 23.8583 16.0359 23.656 16.3862L22.7076 18.0286C21.9517 17.7607 21.1743 17.5529 20.3848 17.4077V15.5101C20.3848 15.1055 20.0568 14.7776 19.6523 14.7776H15.5763C15.1718 14.7776 14.8438 15.1055 14.8438 15.5101V17.4077C14.0544 17.5529 13.277 17.7607 12.521 18.0286L11.5727 16.3862C11.3703 16.036 10.9223 15.9162 10.5722 16.1183L7.04219 18.156C6.87393 18.253 6.75117 18.4131 6.70088 18.6007C6.65059 18.7884 6.67695 18.9884 6.77412 19.1566L7.72422 20.8019C7.11455 21.3226 6.54609 21.8909 6.02529 22.5006L4.37939 21.5505C4.0291 21.3481 3.58115 21.4682 3.37891 21.8185L1.34082 25.3479C1.24365 25.5162 1.21738 25.7161 1.26758 25.9037C1.31787 26.0913 1.44063 26.2514 1.60889 26.3485L3.25146 27.2966C2.9835 28.0524 2.77568 28.8294 2.63057 29.6188H0.732422C0.32793 29.6188 0 29.9466 0 30.3512V34.4265C0 34.8311 0.32793 35.1589 0.732422 35.1589H2.63057C2.77578 35.9483 2.98359 36.7253 3.25146 37.4811L1.60889 38.4292C1.44063 38.5263 1.31787 38.6863 1.26758 38.8739C1.21729 39.0616 1.24365 39.2615 1.34082 39.4298L3.37891 42.9592C3.58125 43.3094 4.029 43.4292 4.37939 43.2272L6.02529 42.2771C6.54609 42.8866 7.11465 43.4551 7.72422 43.9758L6.77412 45.6211C6.67695 45.7895 6.65068 45.9894 6.70088 46.177C6.75117 46.3646 6.87393 46.5246 7.04219 46.6217L10.5722 48.6594C10.9223 48.8614 11.3702 48.7417 11.5727 48.3913L12.521 46.7491C13.2769 47.017 14.0542 47.2247 14.8438 47.3699V49.2676C14.8438 49.6722 15.1718 50 15.5763 50H19.6523C20.0568 50 20.3848 49.6722 20.3848 49.2676V47.3699C21.1744 47.2247 21.9518 47.017 22.7076 46.7491L23.656 48.3913C23.8583 48.7417 24.3063 48.8615 24.6564 48.6594L28.1864 46.6217C28.3547 46.5246 28.4774 46.3646 28.5277 46.177C28.578 45.9893 28.5517 45.7894 28.4545 45.6211L27.5044 43.9758C28.1141 43.4551 28.6825 42.8867 29.2033 42.2771L30.8492 43.2272C31.1993 43.4294 31.6473 43.3094 31.8496 42.9591L33.8876 39.4297C33.9847 39.2614 34.0111 39.0615 33.9607 38.8739C33.9104 38.6863 33.7878 38.5263 33.6194 38.4292L31.9771 37.4811C32.2448 36.7255 32.4526 35.9485 32.5979 35.1589H34.4961C34.9007 35.1589 35.2285 34.8311 35.2285 34.4265V30.3512C35.2285 29.9466 34.9007 29.6188 34.4961 29.6188ZM33.7637 33.6941H31.975C31.61 33.6941 31.3006 33.9629 31.2497 34.3244C31.0949 35.4241 30.8065 36.5028 30.3925 37.5305C30.2561 37.8689 30.3896 38.2562 30.7057 38.4385L32.2528 39.3317L30.9473 41.5925L29.3971 40.6977C29.0812 40.5152 28.6797 40.5931 28.4548 40.8798C27.7698 41.7527 26.9799 42.5423 26.1069 43.2271C25.82 43.4522 25.7424 43.8539 25.9247 44.1696L26.8195 45.7193L24.5582 47.0246L23.6648 45.4775C23.4823 45.1616 23.0951 45.0281 22.7569 45.1644C21.7289 45.5784 20.65 45.8668 19.5503 46.0215C19.1888 46.0724 18.9198 46.3817 18.9198 46.7468V48.5352H16.3086V46.7469C16.3086 46.3818 16.0397 46.0725 15.6781 46.0216C14.5783 45.8669 13.4994 45.5785 12.4715 45.1645C12.133 45.0281 11.746 45.1618 11.5636 45.4776L10.6702 47.0247L8.40889 45.7193L9.30381 44.1697C9.48613 43.854 9.4084 43.4522 9.12158 43.2272C8.24873 42.5424 7.45879 41.7526 6.77373 40.8799C6.54873 40.5932 6.14707 40.5155 5.83145 40.6978L4.28125 41.5926L2.97568 39.3318L4.52285 38.4386C4.83887 38.2563 4.97246 37.8691 4.83604 37.5306C4.42188 36.5026 4.1334 35.4238 3.97881 34.3245C3.92793 33.963 3.61865 33.6942 3.25352 33.6942H1.46484V31.0837H3.25352C3.61855 31.0837 3.92793 30.8149 3.97881 30.4533C4.1334 29.354 4.42188 28.2753 4.83604 27.2473C4.97236 26.9088 4.83887 26.5216 4.52285 26.3393L2.97568 25.4461L4.28125 23.1853L5.83145 24.0801C6.14707 24.2624 6.54873 24.1847 6.77373 23.898C7.45869 23.0251 8.24863 22.2355 9.12158 21.5507C9.4085 21.3256 9.48613 20.9238 9.30381 20.6081L8.40889 19.0585L10.6702 17.7531L11.5636 19.3002C11.746 19.6162 12.1331 19.7497 12.4714 19.6134C13.4998 19.1992 14.5787 18.9109 15.6781 18.7563C16.0396 18.7054 16.3086 18.3961 16.3086 18.031V16.2427H18.9198V18.031C18.9198 18.396 19.1887 18.7054 19.5503 18.7563C20.6497 18.9109 21.7286 19.1992 22.757 19.6134C23.0953 19.7498 23.4825 19.6162 23.6649 19.3002L24.5583 17.7531L26.8196 19.0585L25.9248 20.6081C25.7425 20.9238 25.8201 21.3257 26.107 21.5507C26.9799 22.2355 27.7698 23.0252 28.4549 23.898C28.6799 24.1848 29.0815 24.2625 29.3972 24.0801L30.9474 23.1853L32.2528 25.4461L30.7057 26.3393C30.3896 26.5216 30.2561 26.9089 30.3925 27.2473C30.8065 28.2749 31.0949 29.3536 31.2497 30.4533C31.3006 30.8149 31.6099 31.0837 31.975 31.0837H33.7637V33.6941Z" fill="#3B486A"/>
<path d="M49.2674 7.76729H47.9146C47.8063 7.46299 47.682 7.16387 47.5426 6.87217L48.4979 5.91895C48.6356 5.78154 48.7131 5.59502 48.7131 5.40039C48.7131 5.20576 48.6356 5.01934 48.4979 4.88184L45.1059 1.49756C44.8199 1.2124 44.3572 1.2124 44.0713 1.49756L43.1143 2.45234C42.8211 2.3127 42.5206 2.18838 42.2146 2.08008V0.732422C42.2146 0.327832 41.8868 0 41.4822 0H36.6851C36.2805 0 35.9526 0.327832 35.9526 0.732422V2.08027C35.6467 2.18848 35.3462 2.31289 35.053 2.45254L34.096 1.49775C33.8103 1.2127 33.3474 1.2126 33.0614 1.49775L29.6692 4.88203C29.5315 5.01943 29.4541 5.20596 29.4541 5.40059C29.4541 5.59521 29.5314 5.78164 29.6692 5.91914L30.6247 6.87236C30.4852 7.16416 30.3609 7.46318 30.2527 7.76748H28.8999C28.4954 7.76748 28.1675 8.09531 28.1675 8.4999V13.2859C28.1675 13.6905 28.4954 14.0184 28.8999 14.0184H30.2527C30.3608 14.3227 30.4852 14.6217 30.6247 14.9135L29.6692 15.8667C29.5315 16.0041 29.4541 16.1906 29.4541 16.3853C29.4541 16.5799 29.5314 16.7663 29.6692 16.9038L33.0614 20.2881C33.3474 20.5732 33.8101 20.5732 34.096 20.2881L35.053 19.3333C35.3462 19.4729 35.6467 19.5973 35.9526 19.7056V21.0534C35.9526 21.458 36.2805 21.7858 36.6851 21.7858H41.4822C41.8868 21.7858 42.2146 21.458 42.2146 21.0534V19.7056C42.5206 19.5974 42.8211 19.4729 43.1143 19.3333L44.0713 20.2881C44.3571 20.5732 44.82 20.5733 45.1059 20.2881L48.4979 16.9038C48.6356 16.7664 48.7131 16.5799 48.7131 16.3853C48.7131 16.1906 48.6356 16.0042 48.4979 15.8667L47.5426 14.9135C47.682 14.6218 47.8063 14.3227 47.9146 14.0184H49.2674C49.672 14.0184 49.9998 13.6905 49.9998 13.2859V8.49971C49.9998 8.09521 49.6719 7.76729 49.2674 7.76729ZM48.535 12.5533H47.3813C47.0552 12.5533 46.7685 12.7689 46.6777 13.0822C46.5155 13.643 46.2895 14.187 46.0059 14.6991C45.8475 14.9852 45.8979 15.3415 46.1294 15.5725L46.9438 16.385L44.5887 18.7347L43.7719 17.9197C43.5413 17.6896 43.1862 17.6395 42.901 17.7969C42.3877 18.0798 41.8422 18.3055 41.2796 18.4675C40.9659 18.5578 40.7499 18.8448 40.7499 19.1713V20.3206H37.4176V19.1713C37.4176 18.8448 37.2016 18.5578 36.8879 18.4675C36.3253 18.3055 35.7798 18.0798 35.2665 17.7969C34.9812 17.6394 34.6262 17.6895 34.3956 17.9197L33.5788 18.7347L31.2237 16.385L32.0381 15.5725C32.2695 15.3415 32.32 14.9851 32.1616 14.6991C31.8778 14.1867 31.6518 13.6428 31.4897 13.0823C31.3991 12.769 31.1123 12.5533 30.7861 12.5533H29.6325V9.23213H30.7861C31.1123 9.23213 31.3991 9.0165 31.4897 8.70312C31.6518 8.14277 31.8778 7.59873 32.1616 7.08633C32.32 6.80029 32.2695 6.44394 32.0381 6.21299L31.2237 5.40049L33.5788 3.05078L34.3956 3.86572C34.6263 4.0959 34.9814 4.14609 35.2665 3.98857C35.7798 3.70566 36.3253 3.47998 36.8879 3.31797C37.2016 3.22764 37.4176 2.94062 37.4176 2.61416V1.46484H40.7499V2.61416C40.7499 2.94062 40.9659 3.22764 41.2796 3.31797C41.8422 3.47998 42.3877 3.70566 42.901 3.98857C43.1864 4.146 43.5413 4.096 43.7719 3.86572L44.5887 3.05078L46.9438 5.40049L46.1294 6.21299C45.8979 6.44394 45.8475 6.80039 46.0059 7.08633C46.2895 7.59834 46.5155 8.14238 46.6777 8.70322C46.7685 9.0165 47.0552 9.23213 47.3813 9.23213H48.535V12.5533Z" fill="#3B486A"/>
<path d="M39.0838 5.05707C38.1218 5.05707 37.1677 5.29545 36.3245 5.74652C35.9679 5.93724 35.8333 6.38109 36.0241 6.73773C36.2149 7.09437 36.6585 7.22914 37.0153 7.03812C37.6468 6.70043 38.362 6.52191 39.0838 6.52191C41.5004 6.52191 43.4664 8.48265 43.4664 10.8927C43.4664 13.3029 41.5004 15.2636 39.0838 15.2636C36.6672 15.2636 34.7012 13.3029 34.7012 10.8927C34.7012 10.2075 34.8555 9.5518 35.1598 8.94359C35.3408 8.58187 35.1943 8.14183 34.8325 7.96088C34.4706 7.78002 34.0308 7.92631 33.8498 8.28812C33.4427 9.1016 33.2363 9.97797 33.2363 10.8928C33.2363 14.1106 35.8595 16.7286 39.0838 16.7286C42.3081 16.7286 44.9312 14.1106 44.9312 10.8928C44.9312 7.67504 42.3081 5.05707 39.0838 5.05707Z" fill="#3B486A"/>
<path d="M17.6142 21.9127C11.8366 21.9127 7.13623 26.6123 7.13623 32.3889C7.13623 33.8029 7.41338 35.1748 7.95996 36.4669C8.11748 36.8394 8.54727 37.0136 8.91982 36.8561C9.29238 36.6986 9.4666 36.2687 9.30898 35.8962C8.83916 34.7857 8.60098 33.6057 8.60098 32.3889C8.60098 27.42 12.6442 23.3776 17.6141 23.3776C22.5839 23.3776 26.6271 27.4201 26.6271 32.3889C26.6271 37.3576 22.5839 41.4001 17.6141 41.4001C14.9502 41.4001 12.4368 40.2308 10.7186 38.192C10.4579 37.8827 9.9959 37.8433 9.68652 38.104C9.37725 38.3647 9.33779 38.8267 9.59854 39.136C11.5958 41.5058 14.5174 42.865 17.6142 42.865C23.3918 42.865 28.0921 38.1654 28.0921 32.3889C28.0921 26.6123 23.3917 21.9127 17.6142 21.9127Z" fill="#3B486A"/>
<path d="M17.6145 26.4917C18.2156 26.4917 18.8084 26.5817 19.3762 26.759C19.7624 26.8797 20.173 26.6644 20.2937 26.2783C20.4143 25.8921 20.199 25.4814 19.813 25.3607C19.1036 25.1391 18.364 25.0268 17.6146 25.0268C13.5545 25.0268 10.2515 28.3293 10.2515 32.3888C10.2515 36.4481 13.5546 39.7507 17.6146 39.7507C21.6746 39.7507 24.9777 36.4482 24.9777 32.3888C24.9777 30.4765 24.2479 28.6645 22.9227 27.2865C22.6423 26.9952 22.1785 26.9859 21.8871 27.2663C21.5955 27.5467 21.5865 28.0104 21.8669 28.3019C22.9284 29.4056 23.513 30.857 23.513 32.3888C23.513 35.6405 20.867 38.2859 17.6146 38.2859C14.3623 38.2859 11.7164 35.6405 11.7164 32.3888C11.7164 29.1371 14.3621 26.4917 17.6145 26.4917Z" fill="#3B486A"/>
<path d="M49.2678 28.7567H48.6691C48.5435 27.8686 48.1926 27.0518 47.6764 26.3661L48.1013 25.9413C48.3874 25.6553 48.3874 25.1915 48.1014 24.9056C47.8153 24.6196 47.3516 24.6194 47.0656 24.9055L46.6406 25.3305C45.9549 24.8143 45.1379 24.4634 44.2494 24.3377V23.7393C44.2494 23.3347 43.9216 23.0068 43.517 23.0068C43.1124 23.0068 42.7846 23.3347 42.7846 23.7393V24.3377C41.8962 24.4634 41.0791 24.8143 40.3934 25.3305L39.9683 24.9055C39.682 24.6193 39.2183 24.6194 38.9325 24.9056C38.6465 25.1917 38.6465 25.6554 38.9326 25.9413L39.3576 26.3662C38.8414 27.0519 38.4905 27.8687 38.3648 28.7567H37.7661C37.3615 28.7567 37.0337 29.0846 37.0337 29.4892C37.0337 29.8937 37.3615 30.2216 37.7661 30.2216H38.3648C38.4905 31.1098 38.8414 31.9265 39.3576 32.6121L38.9327 33.0369C38.6467 33.3229 38.6466 33.7866 38.9326 34.0727C39.0756 34.2157 39.2631 34.2872 39.4506 34.2872C39.638 34.2872 39.8254 34.2157 39.9685 34.0728L40.3936 33.6478C41.0793 34.164 41.8963 34.5148 42.7848 34.6405V35.239C42.7848 35.6436 43.1126 35.9714 43.5172 35.9714C43.9218 35.9714 44.2496 35.6436 44.2496 35.239V34.6405C45.138 34.5148 45.955 34.1641 46.6407 33.6478L47.0657 34.0729C47.2088 34.2158 47.3962 34.2873 47.5836 34.2873C47.7711 34.2873 47.9586 34.2158 48.1016 34.0728C48.3876 33.7866 48.3876 33.3229 48.1015 33.037L47.6766 32.6122C48.1928 31.9266 48.5437 31.1099 48.6693 30.2217H49.268C49.6726 30.2217 50.0004 29.8938 50.0004 29.4893C50.0004 29.0847 49.6723 28.7567 49.2678 28.7567ZM43.5169 33.227C41.4554 33.227 39.7781 31.5502 39.7781 29.4892C39.7781 27.428 41.4554 25.7512 43.5169 25.7512C45.5784 25.7512 47.2557 27.428 47.2557 29.4892C47.2557 31.5502 45.5784 33.227 43.5169 33.227Z" fill="#3B486A"/>
<path d="M43.5166 27.0621C42.1782 27.0621 41.0894 28.1508 41.0894 29.4892C41.0894 30.8274 42.1782 31.9161 43.5166 31.9161C44.855 31.9161 45.9438 30.8275 45.9438 29.4892C45.9439 28.1509 44.855 27.0621 43.5166 27.0621ZM43.5166 30.4512C42.9858 30.4512 42.5542 30.0197 42.5542 29.4891C42.5542 28.9585 42.9859 28.5269 43.5166 28.5269C44.0473 28.5269 44.479 28.9585 44.479 29.4891C44.479 30.0197 44.0474 30.4512 43.5166 30.4512Z" fill="#3B486A"/>
</g>
<defs>
<clipPath id="clip0">
<rect width="50" height="50" fill="white"/>
</clipPath>
</defs>
</svg>
