<svg viewBox="0 0 50 50" fill="none" xmlns="http://www.w3.org/2000/svg">
<g clip-path="url(#clip0)">
<path d="M40.6426 16.3637C40.5044 16.0773 40.2156 15.8961 39.8978 15.8961H27.9634L34.8517 1.35311C34.9734 1.09655 34.9552 0.79612 34.8029 0.556109C34.6523 0.316926 34.3883 0.171265 34.1044 0.171265H17.5519C17.153 0.171265 16.8104 0.455967 16.7384 0.84826L12.6003 23.1941C12.5556 23.4357 12.6201 23.6849 12.7782 23.8736C12.9346 24.0631 13.168 24.1723 13.4138 24.1723H22.9654L13.4693 48.7022C13.322 49.0838 13.4751 49.5158 13.8301 49.7186C13.9584 49.793 14.1008 49.8286 14.2406 49.8286C14.4864 49.8286 14.7273 49.7194 14.8895 49.5158L40.5458 17.2385C40.7428 16.9894 40.7808 16.6501 40.6426 16.3637ZM16.9751 44.2314L24.9451 23.6435C25.0436 23.3886 25.0105 23.1022 24.8565 22.8763C24.7018 22.652 24.446 22.5171 24.1729 22.5171H14.4086L18.2405 1.82651H32.7968L25.9085 16.3695C25.7868 16.6261 25.805 16.9265 25.9573 17.1665C26.1079 17.4057 26.3719 17.5513 26.6558 17.5513H38.1829L16.9751 44.2314Z" fill="white"/>
<path d="M8.4481 24.1724H0.171875V25.8272H8.4481V24.1724Z" fill="white"/>
<path d="M49.829 24.1724H41.5527V25.8272H49.829V24.1724Z" fill="white"/>
<path d="M48.8291 0.414882L43.0361 6.20782L44.2066 7.37825L49.9995 1.58531L48.8291 0.414882Z" fill="white"/>
<path d="M5.79587 41.7947L0.00292969 47.5876L1.17335 48.7581L6.96629 42.9651L5.79587 41.7947Z" fill="white"/>
<path d="M44.2057 42.6228L43.0352 43.7931L48.8287 49.5854L49.9993 48.4151L44.2057 42.6228Z" fill="white"/>
<path d="M1.17055 0.413386L0 1.58368L5.79358 7.37598L6.96414 6.20568L1.17055 0.413386Z" fill="white"/>
</g>
<defs>
<clipPath id="clip0">
<rect width="50" height="50" fill="white"/>
</clipPath>
</defs>
</svg>
