<svg viewBox="0 0 50 50" fill="none" xmlns="http://www.w3.org/2000/svg">
<g clip-path="url(#clip0)">
<path d="M21.875 12.5488H13.2813C12.8767 12.5488 12.5488 12.8767 12.5488 13.2812V36.7188C12.5488 37.1233 12.8767 37.4512 13.2813 37.4512H36.7188C37.1233 37.4512 37.4512 37.1233 37.4512 36.7188V23.8281C37.4512 23.4235 37.1233 23.0957 36.7188 23.0957C36.3142 23.0957 35.9863 23.4235 35.9863 23.8281V35.9863H14.0137V14.0137H21.875C22.2796 14.0137 22.6074 13.6858 22.6074 13.2812C22.6074 12.8767 22.2796 12.5488 21.875 12.5488Z" fill="white"/>
<path d="M36.7188 21.1426C37.1233 21.1426 37.4512 20.8147 37.4512 20.4102V13.2812C37.4512 12.8767 37.1233 12.5488 36.7188 12.5488H25.3418C24.9372 12.5488 24.6094 12.8767 24.6094 13.2812C24.6094 13.6858 24.9372 14.0137 25.3418 14.0137H35.9863V20.4102C35.9863 20.8147 36.3142 21.1426 36.7188 21.1426Z" fill="white"/>
<path d="M18.476 26.5614C18.7334 27.0763 19.2507 27.3961 19.8261 27.3961H23.1937L21.2201 31.961C20.9509 32.5836 21.0126 33.2937 21.385 33.8604C21.7574 34.4272 22.3846 34.7656 23.063 34.7656C23.6914 34.7656 24.2917 34.4656 24.6688 33.963L25.9603 32.2422C26.2031 31.9188 26.1376 31.4595 25.8141 31.2167C25.4906 30.9739 25.0313 31.0396 24.7886 31.3629L23.4971 33.0837C23.3952 33.2196 23.2329 33.3008 23.063 33.3008C22.7986 33.3008 22.6576 33.1296 22.6092 33.056C22.5609 32.9824 22.4597 32.7851 22.5646 32.5424L24.9806 26.9543C25.0786 26.7279 25.0559 26.4676 24.9205 26.2613C24.785 26.0553 24.555 25.9312 24.3084 25.9312H19.8261C19.8126 25.9312 19.7986 25.9312 19.7863 25.9065C19.774 25.8818 19.7824 25.8706 19.7906 25.8598L26.5024 16.9162C26.6044 16.7803 26.7667 16.6991 26.9366 16.6991C27.2009 16.6991 27.342 16.8703 27.3903 16.9439C27.4386 17.0175 27.5398 17.2148 27.4349 17.4575L25.0189 23.0456C24.921 23.272 24.9436 23.5323 25.0791 23.7386C25.2145 23.9446 25.4445 24.0688 25.6912 24.0688H30.1734C30.187 24.0688 30.201 24.0688 30.2133 24.0934C30.2256 24.1181 30.2172 24.1293 30.209 24.1401L26.8404 28.6288C26.5976 28.9523 26.6632 29.4115 26.9866 29.6543C27.3101 29.8971 27.7693 29.8314 28.0121 29.5081L31.3806 25.0194C31.726 24.5591 31.7808 23.9533 31.5235 23.4386C31.2662 22.9237 30.7489 22.6039 30.1734 22.6039H26.8058L28.7795 18.039C29.0486 17.4164 28.987 16.7063 28.6145 16.1396C28.2422 15.5728 27.6149 15.2344 26.9366 15.2344C26.3082 15.2344 25.7079 15.5344 25.3307 16.037L18.6189 24.9806C18.2735 25.4409 18.2188 26.0467 18.476 26.5614Z" fill="white"/>
<path d="M47.2808 32.8108C46.0539 32.8108 45.0173 33.6382 44.6976 34.764H42.9978C42.9325 34.764 42.8713 34.7386 42.825 34.6924L40.3809 32.2482V25.7324H44.7313C45.051 26.8582 46.0876 27.6855 47.3145 27.6855C48.7952 27.6855 50 26.4808 50 25C50 23.5192 48.7952 22.3145 47.3145 22.3145C46.0876 22.3145 45.051 23.1418 44.7313 24.2676H40.3809V17.8494L42.8253 15.4051C42.8714 15.359 42.9326 15.3337 42.9979 15.3337H44.6977C45.0174 16.4595 46.054 17.2868 47.2809 17.2868C48.7616 17.2868 49.9664 16.082 49.9664 14.6013C49.9664 13.1205 48.7616 11.9157 47.2809 11.9157C46.054 11.9157 45.0174 12.7431 44.6977 13.8688H42.9979C42.5412 13.8688 42.112 14.0467 41.7895 14.3694L40.3809 15.7779V11.8164C40.3809 10.6049 39.3951 9.61914 38.1836 9.61914H34.1901L35.6323 8.17695C35.9551 7.8541 36.1328 7.425 36.1328 6.96846V5.26875C37.2586 4.94902 38.0859 3.9124 38.0859 2.68555C38.0859 1.20479 36.8812 0 35.4004 0C33.9196 0 32.7148 1.20479 32.7148 2.68555C32.7148 3.9124 33.5422 4.94902 34.668 5.26875V6.96855C34.668 7.03281 34.6419 7.0958 34.5965 7.14121C34.5618 7.17871 32.163 9.56914 32.1213 9.61924H25.7812V5.25488C26.8821 4.91943 27.6855 3.89473 27.6855 2.68555C27.6855 1.20479 26.4808 0 25 0C23.5192 0 22.3145 1.20479 22.3145 2.68555C22.3145 3.93018 23.1657 4.97949 24.3164 5.28262V9.61914H17.9764C17.944 9.57832 15.5269 7.16973 15.5012 7.14111C15.4558 7.0957 15.4297 7.03281 15.4297 6.96846V5.26875C16.5555 4.94902 17.3828 3.9124 17.3828 2.68555C17.3828 1.20479 16.178 0 14.6973 0C13.2165 0 12.0117 1.20479 12.0117 2.68555C12.0117 3.9124 12.8391 4.94902 13.9648 5.26875V6.96855C13.9648 7.4251 14.1426 7.8542 14.4653 8.17705L15.9075 9.61914H11.8164C10.6049 9.61914 9.61914 10.6049 9.61914 11.8164V15.8116L8.17705 14.3696C7.8543 14.0467 7.4251 13.8688 6.96846 13.8688H5.26875C4.94902 12.7431 3.9124 11.9157 2.68555 11.9157C1.20479 11.9157 0 13.1205 0 14.6013C0 16.082 1.20479 17.2868 2.68555 17.2868C3.9124 17.2868 4.94902 16.4595 5.26875 15.3337H6.96855C7.03379 15.3337 7.09502 15.3591 7.14131 15.4053C7.17871 15.4398 9.56934 17.8387 9.61924 17.8803V19.5312C9.61924 19.9358 9.94707 20.2637 10.3517 20.2637C10.7563 20.2637 11.0841 19.9358 11.0841 19.5312V11.8164C11.0841 11.4125 11.4126 11.084 11.8165 11.084H38.1837C38.5876 11.084 38.9161 11.4125 38.9161 11.8164V38.1836C38.9161 38.5875 38.5876 38.916 38.1837 38.916H11.8164C11.4125 38.916 11.084 38.5875 11.084 38.1836V22.9492C11.084 22.5446 10.7562 22.2168 10.3516 22.2168C9.94697 22.2168 9.61914 22.5446 9.61914 22.9492V24.2676H5.26875C4.94902 23.1418 3.9124 22.3145 2.68555 22.3145C1.20479 22.3145 0 23.5192 0 25C0 26.4808 1.20479 27.6855 2.68555 27.6855C3.9124 27.6855 4.94902 26.8582 5.26875 25.7324H9.61914V32.2174C9.57852 32.2496 7.16943 34.6671 7.14102 34.6926C7.09492 34.7387 7.03369 34.764 6.96846 34.764H5.26875C4.94902 33.6382 3.9124 32.8108 2.68555 32.8108C1.20479 32.8108 0 34.0156 0 35.4964C0 36.9771 1.20479 38.1819 2.68555 38.1819C3.9124 38.1819 4.94902 37.3546 5.26875 36.2288H6.96855C7.4252 36.2288 7.85439 36.051 8.17695 35.7282L9.61914 34.286V38.1836C9.61914 39.3951 10.6049 40.3809 11.8164 40.3809H15.9075L14.4653 41.823C14.1426 42.1459 13.9648 42.575 13.9648 43.0315V44.7313C12.8391 45.0511 12.0117 46.0877 12.0117 47.3146C12.0117 48.7953 13.2165 50.0001 14.6973 50.0001C16.178 50.0001 17.3828 48.7953 17.3828 47.3146C17.3828 46.0877 16.5555 45.0511 15.4297 44.7313V43.0315C15.4297 42.9673 15.4558 42.9043 15.5012 42.8589C15.5358 42.8214 17.9347 40.431 17.9764 40.3809H24.3164V44.7174C23.1657 45.0205 22.3145 46.0698 22.3145 47.3145C22.3145 48.7952 23.5192 50 25 50C26.4808 50 27.6855 48.7952 27.6855 47.3145C27.6855 46.1054 26.8821 45.0806 25.7812 44.7451V40.3809H32.1213C32.1536 40.4217 34.5708 42.8303 34.5965 42.8589C34.642 42.9043 34.668 42.9672 34.668 43.0315V44.7313C33.5422 45.0511 32.7148 46.0877 32.7148 47.3146C32.7148 48.7953 33.9196 50.0001 35.4004 50.0001C36.8812 50.0001 38.0859 48.7953 38.0859 47.3146C38.0859 46.0877 37.2586 45.0511 36.1328 44.7313V43.0315C36.1328 42.575 35.9551 42.1459 35.6323 41.823L34.1901 40.3809H38.1836C39.3951 40.3809 40.3809 39.3951 40.3809 38.1836V34.3197L41.7893 35.728C42.112 36.051 42.5412 36.2288 42.9979 36.2288H44.6977C45.0174 37.3546 46.054 38.1819 47.2809 38.1819C48.7616 38.1819 49.9664 36.9771 49.9664 35.4964C49.9664 34.0156 48.7615 32.8108 47.2808 32.8108ZM47.3145 23.7793C47.9876 23.7793 48.5352 24.3269 48.5352 25C48.5352 25.6731 47.9876 26.2207 47.3145 26.2207C46.6413 26.2207 46.0938 25.6731 46.0938 25C46.0938 24.3269 46.6413 23.7793 47.3145 23.7793ZM47.2808 13.3806C47.9539 13.3806 48.5015 13.9281 48.5015 14.6013C48.5015 15.2744 47.9539 15.822 47.2808 15.822C46.6076 15.822 46.0601 15.2744 46.0601 14.6013C46.0601 13.9281 46.6077 13.3806 47.2808 13.3806ZM34.1797 2.68555C34.1797 2.0124 34.7272 1.46484 35.4004 1.46484C36.0735 1.46484 36.6211 2.0124 36.6211 2.68555C36.6211 3.35869 36.0735 3.90625 35.4004 3.90625C34.7272 3.90625 34.1797 3.35869 34.1797 2.68555ZM23.7793 2.68555C23.7793 2.0124 24.3269 1.46484 25 1.46484C25.6731 1.46484 26.2207 2.0124 26.2207 2.68555C26.2207 3.35869 25.6731 3.90625 25 3.90625C24.3269 3.90625 23.7793 3.35869 23.7793 2.68555ZM13.4766 2.68555C13.4766 2.0124 14.0241 1.46484 14.6973 1.46484C15.3704 1.46484 15.918 2.0124 15.918 2.68555C15.918 3.35869 15.3704 3.90625 14.6973 3.90625C14.0241 3.90625 13.4766 3.35869 13.4766 2.68555ZM2.68555 15.822C2.0124 15.822 1.46484 15.2744 1.46484 14.6013C1.46484 13.9281 2.0124 13.3806 2.68555 13.3806C3.35869 13.3806 3.90625 13.9281 3.90625 14.6013C3.90625 15.2744 3.35869 15.822 2.68555 15.822ZM2.68555 26.2207C2.0124 26.2207 1.46484 25.6731 1.46484 25C1.46484 24.3269 2.0124 23.7793 2.68555 23.7793C3.35869 23.7793 3.90625 24.3269 3.90625 25C3.90625 25.6731 3.35869 26.2207 2.68555 26.2207ZM2.68555 36.7171C2.0124 36.7171 1.46484 36.1695 1.46484 35.4964C1.46484 34.8232 2.0124 34.2757 2.68555 34.2757C3.35869 34.2757 3.90625 34.8232 3.90625 35.4964C3.90625 36.1695 3.35869 36.7171 2.68555 36.7171ZM15.918 47.3145C15.918 47.9876 15.3704 48.5352 14.6973 48.5352C14.0241 48.5352 13.4766 47.9876 13.4766 47.3145C13.4766 46.6413 14.0241 46.0938 14.6973 46.0938C15.3704 46.0938 15.918 46.6413 15.918 47.3145ZM26.2207 47.3145C26.2207 47.9876 25.6731 48.5352 25 48.5352C24.3269 48.5352 23.7793 47.9876 23.7793 47.3145C23.7793 46.6413 24.3269 46.0938 25 46.0938C25.6731 46.0938 26.2207 46.6413 26.2207 47.3145ZM36.6211 47.3145C36.6211 47.9876 36.0735 48.5352 35.4004 48.5352C34.7272 48.5352 34.1797 47.9876 34.1797 47.3145C34.1797 46.6413 34.7272 46.0938 35.4004 46.0938C36.0735 46.0938 36.6211 46.6413 36.6211 47.3145ZM47.2808 36.7171C46.6076 36.7171 46.0601 36.1695 46.0601 35.4964C46.0601 34.8232 46.6076 34.2757 47.2808 34.2757C47.9539 34.2757 48.5015 34.8232 48.5015 35.4964C48.5015 36.1695 47.9539 36.7171 47.2808 36.7171Z" fill="white"/>
</g>
<defs>
<clipPath id="clip0">
<rect width="50" height="50" fill="white"/>
</clipPath>
</defs>
</svg>
