<svg viewBox="0 0 31 30" fill="none" xmlns="http://www.w3.org/2000/svg">
<g clip-path="url(#clip0_185_5336)">
<path d="M28.5345 24.548C28.2131 24.6052 27.883 24.6038 27.5564 24.6023C27.5053 24.6021 27.4543 24.6019 27.4035 24.6019H2.77829C2.72719 24.6019 2.67595 24.6021 2.6246 24.6023C2.29835 24.6038 1.96814 24.6053 1.64721 24.548H28.5345ZM28.5345 24.548C28.909 24.4813 29.2576 24.309 29.5273 24.0393L28.5345 24.548ZM1.73569 5.9438L1.73571 5.9438C2.00779 5.89487 2.28662 5.89591 2.61555 5.89714C2.66843 5.89734 2.72259 5.89754 2.77823 5.89754H27.4034C27.4587 5.89754 27.5125 5.89734 27.565 5.89715C27.8943 5.89594 28.1735 5.89492 28.4463 5.94384L28.5346 5.45164L28.4463 5.94384C28.729 5.99451 28.9822 6.12188 29.1734 6.31337L29.1734 6.3134C29.3641 6.50433 29.4924 6.7597 29.5435 7.04216C29.5925 7.31359 29.5915 7.59219 29.5902 7.92079C29.59 7.97385 29.5898 8.02823 29.5898 8.08408V8.08424V8.08472V8.08551V8.08661V8.08802V8.08974V8.09178V8.09412V8.09676V8.09972V8.10297V8.10653V8.11039V8.11456V8.11902V8.12378V8.12883V8.13418V8.13983V8.14577V8.152V8.15852V8.16533V8.17243V8.17982V8.18749V8.19544V8.20368V8.2122V8.221V8.23009V8.23945V8.24908V8.25899V8.26918V8.27964V8.29037V8.30137V8.31265V8.32419V8.336V8.34807V8.36041V8.37301V8.38587V8.399V8.41238V8.42603V8.43993V8.45408V8.46849V8.48316V8.49807V8.51324V8.52866V8.54432V8.56024V8.5764V8.5928V8.60945V8.62634V8.64347V8.66084V8.67845V8.6963V8.71438V8.7327V8.75125V8.77004V8.78905V8.8083V8.82777V8.84748V8.8674V8.88756V8.90793V8.92853V8.94936V8.9704V8.99166V9.01314V9.03483V9.05674V9.07886V9.1012V9.12375V9.1465V9.16947V9.19265V9.21603V9.23961V9.2634V9.2874V9.31159V9.33599V9.36058V9.38537V9.41036V9.43554V9.46092V9.48649V9.51226V9.53821V9.56435V9.59068V9.6172V9.6439V9.67079V9.69786V9.72511V9.75254V9.78015V9.80794V9.83591V9.86405V9.89237V9.92086V9.94952V9.97835V10.0073V10.0365V10.0659V10.0954V10.125V10.1549V10.1848V10.215V10.2453V10.2758V10.3064V10.3372V10.3681V10.3992V10.4305V10.4619V10.4934V10.5251V10.5569V10.5889V10.621V10.6533V10.6857V10.7183V10.751V10.7838V10.8168V10.8499V10.8831V10.9165V10.95V10.9837V11.0174V11.0513V11.0854V11.1195V11.1538V11.1882V11.2227V11.2574V11.2921V11.327V11.362V11.3971V11.4324V11.4677V11.5032V11.5387V11.5744V11.6102V11.6461V11.6821V11.7182V11.7544V11.7907V11.8271V11.8636V11.9003V11.937V11.9738V12.0107V12.0477V12.0848V12.1219V12.1592V12.1966V12.234V12.2716V12.3092V12.3469V12.3847V12.4225V12.4605V12.4985V12.5366V12.5748V12.6131V12.6514V12.6898V12.7283V12.7668V12.8054V12.8441V12.8829V12.9217V12.9606V12.9995V13.0385V13.0776V13.1167V13.1559V13.1952V13.2345V13.2738V13.3132V13.3527V13.3922V13.4317V13.4713V13.511V13.5507V13.5904V13.6302V13.67V13.7099V13.7498V13.7898V13.8297V13.8698V13.9098V13.9499V13.99V14.0302V14.0704V14.1106V14.1508V14.1911V14.2313V14.2717V14.312V14.3523V14.3927V14.4331V14.4735V14.5139V14.5544V14.5948V14.6353V14.6758V14.7163V14.7568V14.7973V14.8378V14.8783V14.9188V14.9593V14.9998V15.0404V15.0809V15.1214V15.1619V15.2024V15.2429V15.2834V15.3239V15.3644V15.4048V15.4453V15.4857V15.5262V15.5666V15.607V15.6473V15.6877V15.728V15.7683V15.8086V15.8489V15.8891V15.9293V15.9695V16.0097V16.0498V16.0899V16.1299V16.1699V16.2099V16.2499V16.2898V16.3296V16.3695V16.4092V16.449V16.4887V16.5283V16.5679V16.6075V16.647V16.6865V16.7259V16.7652V16.8045V16.8438V16.8829V16.9221V16.9611V17.0001V17.0391V17.078V17.1168V17.1555V17.1942V17.2328V17.2714V17.3099V17.3483V17.3866V17.4249V17.463V17.5011V17.5392V17.5771V17.615V17.6528V17.6905V17.7281V17.7656V17.8031V17.8404V17.8777V17.9149V17.952V17.989V18.0259V18.0627V18.0994V18.136V18.1725V18.2089V18.2453V18.2815V18.3176V18.3536V18.3895V18.4253V18.4609V18.4965V18.532V18.5673V18.6025V18.6377V18.6727V18.7075V18.7423V18.7769V18.8115V18.8459V18.8801V18.9143V18.9483V18.9822V19.016V19.0496V19.0831V19.1165V19.1497V19.1829V19.2158V19.2487V19.2814V19.3139V19.3463V19.3786V19.4107V19.4427V19.4746V19.5062V19.5378V19.5692V19.6004V19.6315V19.6625V19.6932V19.7239V19.7543V19.7846V19.8148V19.8448V19.8746V19.9043V19.9338V19.9631V19.9923V20.0213V20.0501V20.0788V20.1073V20.1356V20.1637V20.1917V20.2195V20.2471V20.2745V20.3018V20.3288V20.3557V20.3824V20.4089V20.4353V20.4614V20.4874V20.5131V20.5387V20.5641V20.5893V20.6143V20.639V20.6636V20.688V20.7122V20.7362V20.76V20.7836V20.807V20.8301V20.8531V20.8759V20.8984V20.9208V20.9429V20.9648V20.9865V21.008V21.0292V21.0503V21.0711V21.0917V21.1121V21.1322V21.1521V21.1718V21.1913V21.2106V21.2296V21.2484V21.2669V21.2852V21.3033V21.3212V21.3388V21.3561V21.3733V21.3902V21.4068V21.4232V21.4394V21.4553V21.4709V21.4864V21.5015V21.5164V21.5311V21.5455V21.5597V21.5736V21.5872V21.6006V21.6137V21.6266V21.6392V21.6515V21.6636V21.6754V21.6869V21.6982V21.7092V21.7199V21.7304V21.7406V21.7505V21.7601V21.7695V21.7786V21.7874V21.7959V21.8041V21.8121V21.8198V21.8271V21.8342V21.841V21.8476V21.8538V21.8597V21.8654V21.8707V21.8758V21.8805V21.885V21.8892V21.893V21.8966V21.8998V21.9028V21.9054V21.9078V21.9098V21.9115V21.9129V21.914V21.9148V21.9153C29.5898 21.9154 29.5898 21.9155 30.0899 21.9155H29.5898C29.5898 21.9713 29.59 22.0256 29.5902 22.0786C29.5915 22.4071 29.5925 22.686 29.5435 22.9571L29.5432 22.9587C29.4931 23.2406 29.3658 23.4935 29.1737 23.6856C28.9817 23.8776 28.7283 24.0055 28.4468 24.0556L28.4468 24.0556C28.1734 24.1043 27.8932 24.1033 27.5633 24.1021C27.5113 24.102 27.4581 24.1018 27.4035 24.1018H2.77829C2.72332 24.1018 2.66976 24.102 2.61744 24.1022C2.28823 24.1033 2.00828 24.1044 1.73569 24.0557C1.45344 24.005 1.19984 23.8773 1.00761 23.6854C0.816461 23.4945 0.689406 23.2412 0.638111 22.9572L0.638096 22.9572C0.589151 22.6864 0.59023 22.4085 0.591502 22.0807C0.59171 22.027 0.591924 21.972 0.591924 21.9155V21.9153V21.9148V21.914V21.9129V21.9115V21.9098V21.9078V21.9054V21.9028V21.8998V21.8966V21.893V21.8892V21.885V21.8805V21.8758V21.8707V21.8654V21.8597V21.8538V21.8476V21.841V21.8342V21.8271V21.8197V21.8121V21.8041V21.7959V21.7874V21.7786V21.7695V21.7601V21.7505V21.7406V21.7304V21.7199V21.7092V21.6982V21.6869V21.6754V21.6636V21.6515V21.6392V21.6266V21.6137V21.6006V21.5872V21.5735V21.5596V21.5455V21.5311V21.5164V21.5015V21.4863V21.4709V21.4552V21.4393V21.4232V21.4068V21.3901V21.3732V21.3561V21.3387V21.3211V21.3033V21.2852V21.2669V21.2483V21.2295V21.2105V21.1913V21.1718V21.1521V21.1322V21.112V21.0916V21.071V21.0502V21.0292V21.0079V20.9864V20.9648V20.9428V20.9207V20.8984V20.8758V20.8531V20.8301V20.8069V20.7836V20.76V20.7362V20.7122V20.688V20.6636V20.639V20.6142V20.5892V20.564V20.5387V20.5131V20.4873V20.4614V20.4352V20.4089V20.3824V20.3557V20.3288V20.3017V20.2745V20.247V20.2194V20.1916V20.1637V20.1355V20.1072V20.0787V20.0501V20.0212V19.9922V19.9631V19.9337V19.9042V19.8746V19.8447V19.8147V19.7846V19.7543V19.7238V19.6932V19.6624V19.6315V19.6004V19.5691V19.5377V19.5062V19.4745V19.4427V19.4107V19.3785V19.3463V19.3139V19.2813V19.2486V19.2158V19.1828V19.1497V19.1164V19.0831V19.0496V19.0159V18.9822V18.9483V18.9142V18.8801V18.8458V18.8114V18.7769V18.7422V18.7075V18.6726V18.6376V18.6025V18.5672V18.5319V18.4964V18.4609V18.4252V18.3894V18.3535V18.3175V18.2814V18.2452V18.2089V18.1725V18.136V18.0993V18.0626V18.0258V17.9889V17.9519V17.9148V17.8776V17.8404V17.803V17.7656V17.728V17.6904V17.6527V17.6149V17.577V17.5391V17.5011V17.463V17.4248V17.3865V17.3482V17.3098V17.2713V17.2328V17.1941V17.1555V17.1167V17.0779V17.039V17.0001V16.9611V16.922V16.8829V16.8437V16.8044V16.7651V16.7258V16.6864V16.6469V16.6074V16.5679V16.5283V16.4886V16.4489V16.4092V16.3694V16.3296V16.2897V16.2498V16.2098V16.1698V16.1298V16.0898V16.0497V16.0096V15.9694V15.9292V15.889V15.8488V15.8085V15.7682V15.7279V15.6876V15.6473V15.6069V15.5665V15.5261V15.4857V15.4452V15.4048V15.3643V15.3238V15.2833V15.2428V15.2023V15.1618V15.1213V15.0808V15.0403V14.9998V14.9592V14.9187V14.8782V14.8377V14.7972V14.7567V14.7162V14.6757V14.6352V14.5947V14.5543V14.5138V14.4734V14.433V14.3926V14.3523V14.3119V14.2716V14.2313V14.191V14.1507V14.1105V14.0703V14.0301V13.9899V13.9498V13.9097V13.8697V13.8297V13.7897V13.7497V13.7098V13.6699V13.6301V13.5903V13.5506V13.5109V13.4712V13.4316V13.3921V13.3526V13.3131V13.2737V13.2344V13.1951V13.1558V13.1166V13.0775V13.0384V12.9994V12.9605V12.9216V12.8828V12.844V12.8054V12.7667V12.7282V12.6897V12.6513V12.613V12.5747V12.5365V12.4984V12.4604V12.4225V12.3846V12.3468V12.3091V12.2715V12.2339V12.1965V12.1591V12.1219V12.0847V12.0476V12.0106V11.9737V11.9369V11.9002V11.8636V11.827V11.7906V11.7543V11.7181V11.682V11.646V11.6101V11.5743V11.5386V11.5031V11.4676V11.4323V11.397V11.3619V11.3269V11.292V11.2573V11.2226V11.1881V11.1537V11.1194V11.0853V11.0512V11.0174V10.9836V10.9499V10.9164V10.8831V10.8498V10.8167V10.7837V10.7509V10.7182V10.6856V10.6532V10.621V10.5888V10.5568V10.525V10.4933V10.4618V10.4304V10.3991V10.368V10.3371V10.3063V10.2757V10.2452V10.2149V10.1848V10.1548V10.1249V10.0953V10.0658V10.0364V10.0073V9.97827V9.94944V9.92078V9.89229V9.86397V9.83583V9.80786V9.78008V9.75246V9.72503V9.69778V9.67071V9.64383V9.61712V9.59061V9.56428V9.53814V9.51218V9.48642V9.46085V9.43547V9.41029V9.3853V9.36051V9.33592V9.31152V9.28733V9.26333V9.23954V9.21596V9.19258V9.1694V9.14644V9.12368V9.10113V9.0788V9.05667V9.03477V9.01307V8.9916V8.97034V8.94929V8.92847V8.90787V8.8875V8.86734V8.84742V8.82772V8.80824V8.789V8.76998V8.7512V8.73265V8.71433V8.69624V8.6784V8.66079V8.64342V8.62629V8.6094V8.59275V8.57635V8.56019V8.54428V8.52861V8.51319V8.49803V8.48311V8.46845V8.45404V8.43988V8.42598V8.41234V8.39896V8.38583V8.37297V8.36037V8.34803V8.33596V8.32415V8.31261V8.30134V8.29034V8.27961V8.26915V8.25896V8.24905V8.23942V8.23006V8.22098V8.21218V8.20366V8.19542V8.18746V8.17979V8.17241V8.16531V8.1585V8.15198V8.14575V8.13981V8.13417V8.12882V8.12376V8.119V8.11454V8.11038V8.10652V8.10296V8.09971V8.09675V8.09411V8.09177V8.08974V8.08801V8.0866V8.0855V8.08471V8.08424C0.591924 8.08414 0.591924 8.08408 0.091825 8.08408H0.591924C0.591924 8.02774 0.591713 7.97291 0.591507 7.91941C0.590244 7.59136 0.589172 7.31307 0.638115 7.04205L0.638116 7.04205L0.638288 7.04109C0.688804 6.75819 0.815743 6.5059 1.00796 6.3136C1.19979 6.12169 1.45225 5.99475 1.73569 5.9438Z" stroke="white" stroke-width="1.0002"/>
<path d="M8.28086 11.857C8.53772 11.5357 8.71201 11.1044 8.66601 10.6636C8.29 10.6823 7.83118 10.9117 7.56552 11.2332C7.32699 11.5085 7.1159 11.9579 7.17093 12.3802C7.59306 12.4168 8.01473 12.1693 8.28086 11.857Z" fill="white"/>
<path d="M8.66132 12.4624C8.04837 12.4259 7.52719 12.8103 7.23452 12.8103C6.94167 12.8103 6.4934 12.4808 6.00855 12.4897C5.37755 12.4989 4.79203 12.8557 4.47181 13.4232C3.8132 14.5584 4.29798 16.2422 4.93848 17.1668C5.2495 17.6242 5.62434 18.1278 6.11826 18.1097C6.58494 18.0915 6.76784 17.8076 7.33509 17.8076C7.90192 17.8076 8.06666 18.1097 8.5607 18.1006C9.07297 18.0914 9.39325 17.6429 9.70426 17.1851C10.0611 16.6637 10.2072 16.1602 10.2164 16.1326C10.2072 16.1235 9.22851 15.7481 9.21948 14.6223C9.21022 13.6797 9.9878 13.2314 10.0244 13.2035C9.58529 12.554 8.8992 12.4807 8.66132 12.4624Z" fill="white"/>
<path d="M13.9985 11.187C15.3308 11.187 16.2584 12.1054 16.2584 13.4424C16.2584 14.7842 15.3117 15.7072 13.9651 15.7072H12.4901V18.053H11.4243V11.187H13.9985ZM12.4901 14.8127H13.7129C14.6408 14.8127 15.1688 14.3131 15.1688 13.4471C15.1688 12.5812 14.6407 12.0863 13.7177 12.0863H12.4901V14.8127Z" fill="white"/>
<path d="M16.5371 16.6304C16.5371 15.7548 17.208 15.2172 18.3977 15.1506L19.7679 15.0697V14.6843C19.7679 14.1276 19.392 13.7945 18.7641 13.7945C18.1692 13.7945 17.798 14.0799 17.7077 14.5272H16.7371C16.7942 13.6231 17.5649 12.957 18.8021 12.957C20.0154 12.957 20.7909 13.5994 20.7909 14.6033V18.0529H19.8059V17.2298H19.7823C19.4921 17.7865 18.8592 18.1386 18.2026 18.1386C17.2223 18.1387 16.5371 17.5296 16.5371 16.6304ZM19.7679 16.1784V15.7834L18.5354 15.8595C17.9216 15.9024 17.5743 16.1736 17.5743 16.6018C17.5743 17.0395 17.9359 17.325 18.4878 17.325C19.2064 17.3251 19.7679 16.8302 19.7679 16.1784Z" fill="white"/>
<path d="M21.7204 19.8943V19.0616C21.7965 19.0806 21.9677 19.0806 22.0534 19.0806C22.5292 19.0806 22.7862 18.8808 22.9431 18.367C22.9431 18.3574 23.0336 18.0624 23.0336 18.0577L21.2256 13.0474H22.3389L23.6047 17.1204H23.6236L24.8894 13.0474H25.9742L24.0994 18.3146C23.6713 19.5279 23.1764 19.9181 22.1392 19.9181C22.0534 19.9181 21.7965 19.9086 21.7204 19.8943Z" fill="white"/>
</g>
<defs>
<clipPath id="clip0_185_5336">
<rect width="30" height="30" fill="white" transform="translate(0.0908203)"/>
</clipPath>
</defs>
</svg>
