<svg viewBox="0 0 51 20" fill="none" xmlns="http://www.w3.org/2000/svg">

<path d="M24.0759 9.77101V15.6335H22.2031V1.15576H27.1701C27.7629 1.14346 28.3524 1.24788 28.9044 1.463C29.4565 1.67812 29.9601 1.99968 30.3864 2.40912C30.8169 2.79369 31.1596 3.26534 31.3913 3.79235C31.623 4.31936 31.7385 4.88953 31.7299 5.46454C31.7422 6.04262 31.6285 6.61651 31.3966 7.14688C31.1647 7.67725 30.8201 8.15155 30.3864 8.53729C29.5178 9.35977 28.4457 9.77062 27.1701 9.76985H24.0759V9.77101ZM24.0759 2.93818V7.99205H27.2166C27.5609 8.00218 27.9036 7.94084 28.2226 7.81194C28.5417 7.68305 28.8302 7.48944 29.0696 7.2435C29.3078 7.01355 29.4971 6.7385 29.6264 6.43463C29.7556 6.13076 29.8223 5.80423 29.8223 5.47436C29.8223 5.14448 29.7556 4.81795 29.6264 4.51408C29.4971 4.21021 29.3078 3.93517 29.0696 3.70521C28.8332 3.45409 28.5457 3.25573 28.2263 3.1233C27.9068 2.99086 27.5626 2.92737 27.2166 2.93703H24.0759V2.93818Z" fill="white"/>
<path d="M36.0452 5.4043C37.4295 5.4043 38.5221 5.77164 39.3232 6.50633C40.1243 7.24102 40.5244 8.24832 40.5236 9.52825V15.6333H38.7323V14.2587H38.6509C37.8754 15.3907 36.844 15.9568 35.5567 15.9568C34.4578 15.9568 33.5385 15.6333 32.7987 14.9864C32.4437 14.6895 32.1598 14.3177 31.9678 13.898C31.7759 13.4783 31.6806 13.0214 31.689 12.5606C31.689 11.5355 32.0791 10.7204 32.8592 10.1151C33.6393 9.50977 34.6808 9.20634 35.9836 9.2048C37.0956 9.2048 38.0115 9.40696 38.7311 9.81127V9.38616C38.7332 9.07198 38.6649 8.76126 38.5311 8.47654C38.3973 8.19183 38.2014 7.94025 37.9576 7.74005C37.4623 7.29632 36.8169 7.05421 36.1499 7.06196C35.1038 7.06196 34.276 7.50016 33.6665 8.37655L32.017 7.34498C32.9243 6.05119 34.2671 5.4043 36.0452 5.4043ZM33.6223 12.601C33.621 12.8377 33.6767 13.0713 33.7848 13.2822C33.8928 13.4932 34.0501 13.6755 34.2434 13.8139C34.6576 14.1375 35.1717 14.3089 35.6986 14.2991C36.4889 14.2978 37.2464 13.9854 37.8052 13.4304C38.4256 12.8505 38.7358 12.1701 38.7358 11.3892C38.1518 10.9272 37.3376 10.6961 36.293 10.6961C35.5323 10.6961 34.8979 10.8783 34.39 11.2425C33.877 11.6122 33.6223 12.0615 33.6223 12.601Z" fill="white"/>
<path d="M50.8067 5.72803L44.5532 20.0001H42.62L44.9406 15.0063L40.8286 5.72803H42.8642L45.8363 12.8439H45.877L48.7676 5.72803H50.8067Z" fill="white"/>
<path d="M16.5083 8.50757C16.509 7.94079 16.4608 7.375 16.3641 6.81641H8.46582V10.0197H12.9896C12.897 10.5313 12.7011 11.019 12.4136 11.4534C12.1261 11.8878 11.753 12.2599 11.3169 12.5472V14.6265H14.0167C15.5975 13.1791 16.5083 11.0385 16.5083 8.50757Z" fill="white"/>
<path d="M8.46541 16.6351C10.7255 16.6351 12.6286 15.8981 14.0163 14.6274L11.3165 12.5481C10.565 13.054 9.59722 13.3428 8.46541 13.3428C6.28088 13.3428 4.42671 11.8804 3.76368 9.90967H0.982422V12.0525C1.6795 13.43 2.74839 14.588 4.06977 15.3972C5.39114 16.2064 6.91299 16.635 8.46541 16.6351Z" fill="white"/>
<path d="M3.76388 9.90949C3.41336 8.87682 3.41336 7.75852 3.76388 6.72585V4.58301H0.982627C0.396221 5.74182 0.0908203 7.02076 0.0908203 8.31767C0.0908203 9.61458 0.396221 10.8935 0.982627 12.0523L3.76388 9.90949Z" fill="white"/>
<path d="M8.46541 3.29278C9.65979 3.2734 10.8139 3.72155 11.6782 4.54036L14.0686 2.16649C12.5529 0.752648 10.5448 -0.0235731 8.46541 0.000545687C6.91299 0.00061595 5.39114 0.429176 4.06977 1.23838C2.74839 2.04759 1.6795 3.20559 0.982422 4.5831L3.76368 6.72594C4.42671 4.75522 6.28088 3.29278 8.46541 3.29278Z" fill="white"/>

</svg>
