<svg viewBox="0 0 47 30" fill="none" xmlns="http://www.w3.org/2000/svg">
<g clip-path="url(#clip0_185_5348)">
<path d="M17.9773 14.7591C17.9757 12.8345 18.4182 10.9347 19.2712 9.20364C20.1241 7.47255 21.3653 5.95546 22.9006 4.76718C20.999 3.29354 18.7153 2.37717 16.3105 2.1228C13.9057 1.86844 11.4769 2.28634 9.30155 3.32874C7.12623 4.37114 5.29221 5.99599 4.00909 8.01759C2.72598 10.0392 2.04553 12.376 2.04553 14.7608C2.04553 17.1457 2.72598 19.4825 4.00909 21.5041C5.29221 23.5257 7.12623 25.1505 9.30155 26.1929C11.4769 27.2353 13.9057 27.6532 16.3105 27.3989C18.7153 27.1445 20.999 26.2281 22.9006 24.7545C21.3648 23.5658 20.1234 22.0482 19.2704 20.3164C18.4174 18.5847 17.9752 16.6843 17.9773 14.7591Z" fill="white"/>
<path opacity="0.4" d="M43.7574 14.7592C43.7573 17.1442 43.0767 19.4812 41.7934 21.5028C40.51 23.5245 38.6757 25.1493 36.5001 26.1916C34.3245 27.2338 31.8954 27.6515 29.4905 27.3967C27.0856 27.142 24.8019 26.2252 22.9004 24.7511C24.4351 23.5617 25.6759 22.0442 26.5291 20.313C27.3823 18.5819 27.8256 16.6822 27.8256 14.7574C27.8256 12.8326 27.3823 10.933 26.5291 9.2018C25.6759 7.47061 24.4351 5.9531 22.9004 4.76376C24.8019 3.28966 27.0856 2.37285 29.4905 2.11812C31.8954 1.86339 34.3245 2.28102 36.5001 3.32327C38.6757 4.36553 40.51 5.99035 41.7934 8.01201C43.0767 10.0337 43.7573 12.3706 43.7574 14.7557V14.7592Z" fill="white"/>
<path opacity="0.7" d="M19.2709 9.20367C18.418 10.9348 17.9755 12.8345 17.9771 14.7591C17.975 16.6843 18.4172 18.5847 19.2702 20.3165C20.1231 22.0482 21.3645 23.5623 22.9004 24.751C24.4351 23.5616 25.6759 22.0441 26.5291 20.3129C27.3822 18.5818 27.8256 16.6821 27.8256 14.7573C27.8256 12.8325 27.3822 10.9329 26.5291 9.20171C25.6759 7.47052 24.4351 5.95301 22.9004 4.76367C21.365 5.95195 20.1239 7.47257 19.2709 9.20367Z" fill="white"/>
</g>
<defs>
<clipPath id="clip0_185_5348">
<rect width="46.3636" height="30" fill="white"/>
</clipPath>
</defs>
</svg>
