<svg viewBox="0 0 48 30" fill="none" xmlns="http://www.w3.org/2000/svg">

<path opacity="0.4" d="M42.089 7.97461H33.3599C33.8684 10.8561 36.6651 13.5681 39.7161 13.5681H46.6655C46.7503 13.3138 46.7502 12.8901 46.7502 12.6358C46.7502 10.0933 44.6315 7.97461 42.089 7.97461Z" fill="white"/>
<path d="M34.1226 14.0767V21.1108H38.36V17.3819H42.089C44.123 17.3819 45.9027 15.9411 46.496 14.0767H34.1226Z" fill="white"/>
<path d="M19.2067 7.97461V21.026H22.9357C22.9357 21.026 23.8679 21.026 24.3764 20.0938C26.9189 15.0936 27.6816 13.5681 27.6816 13.5681H28.1901V21.026H32.4276V7.97461H28.6986C28.6986 7.97461 27.7664 8.05936 27.2579 8.90686C25.1391 13.2291 23.9526 15.4326 23.9526 15.4326H23.4441V7.97461H19.2067Z" fill="white"/>
<path d="M1.40918 21.1119V8.06055H5.64665C5.64665 8.06055 6.83315 8.06054 7.51114 9.92503C9.20613 14.8405 9.37564 15.5185 9.37564 15.5185C9.37564 15.5185 9.71462 14.332 11.2401 9.92503C11.9181 8.06054 13.1046 8.06055 13.1046 8.06055H17.3421V21.1119H13.1046V14.0778H12.5961L10.2231 21.1119H8.35864L5.98567 14.0778H5.47716V21.1119H1.40918Z" fill="white"/>

</svg>
