<svg viewBox="0 0 47 30" fill="none" xmlns="http://www.w3.org/2000/svg">

<path d="M18.1792 8.42181L12.7375 21.63H9.18814L6.51354 11.0926C6.48994 10.845 6.40401 10.6078 6.26404 10.4038C6.12408 10.1999 5.93481 10.0361 5.71452 9.92839C4.66272 9.41642 3.55238 9.03974 2.40912 8.80702L2.48482 8.42181H8.19568C8.5687 8.42125 8.92965 8.55637 9.21342 8.8028C9.49718 9.04922 9.68509 9.39074 9.74325 9.76575L11.1562 17.4099L14.6467 8.42181H18.1792ZM32.0821 17.3158C32.0821 13.8318 27.3468 13.6349 27.3805 12.077C27.3805 11.6062 27.8347 11.1011 28.8019 10.9727C29.9386 10.8624 31.0835 11.0664 32.1157 11.5634L32.7045 8.76421C31.7007 8.38307 30.6386 8.186 29.5673 8.18213C26.245 8.18213 23.9153 9.97975 23.8985 12.5478C23.8985 14.4481 25.5806 15.5096 26.8338 16.143C28.087 16.7765 28.5832 17.2045 28.5748 17.7866C28.5748 18.6426 27.5319 19.062 26.5646 19.0791C25.3622 19.0986 24.1749 18.8039 23.1163 18.2231L22.5107 21.1164C23.7012 21.5868 24.968 21.8249 26.245 21.8184C29.7691 21.8184 32.0821 20.0464 32.1325 17.2986L32.0821 17.3158ZM40.8965 21.5787H44L41.2413 8.42181H38.3733C38.0694 8.41897 37.7716 8.50875 37.5183 8.67962C37.265 8.85048 37.0677 9.0946 36.9519 9.38054L31.9054 21.6215H35.4295L36.1276 19.6527H40.4339L40.8965 21.5787ZM37.1453 16.8963L38.9115 11.9315L39.9292 16.8963H37.1453ZM23.0237 8.33621L20.2482 21.5444H16.8839L19.6595 8.33621H23.0237Z" fill="white"/>

</svg>
