<svg viewBox="0 0 97 20" fill="none" xmlns="http://www.w3.org/2000/svg">
<path fill-rule="evenodd" clip-rule="evenodd" d="M17.5644 0.101931C15.3828 0.422667 13.5816 1.33403 12.0145 2.91027C10.401 4.53295 9.58518 6.05193 9.13773 8.26577C8.97181 9.08747 8.96138 8.96357 8.94947 6.0245L8.93689 2.91348H4.87183H0.806641L1.59169 5.42237C2.02348 6.80232 3.04951 10.0839 3.87176 12.7149L5.36678 17.4985H7.1519H8.93689L8.95027 14.1867C8.95923 11.9908 9.00232 11.0554 9.07832 11.4102C9.52524 13.4986 9.93723 14.516 10.8578 15.8053C13.8791 20.0365 19.6667 21.2539 24.124 18.5957C25.8149 17.5873 27.6147 15.473 28.3232 13.6626C29.3178 11.1216 29.1792 7.91907 27.9712 5.52272C26.0536 1.71899 21.7639 -0.515454 17.5644 0.101931ZM40.916 5.43869C40.3858 5.61318 39.7755 5.95465 39.5861 6.18293C39.321 6.50232 39.1773 6.43488 39.1773 5.99105V5.58963H37.9061H36.6349V10.2729V14.9561H37.8973H39.1595L39.2019 11.8388C39.2478 8.45778 39.2839 8.28517 40.0512 7.78232C40.479 7.50213 41.4761 7.51685 41.9738 7.81082C42.7455 8.2667 42.7901 8.48414 42.7901 11.7988V14.8223H44.1281H45.4662L45.4667 11.7782C45.4671 8.96103 45.4873 8.70104 45.7373 8.29119C46.2141 7.50909 47.3147 7.24482 48.1003 7.72385C48.8384 8.17384 48.8725 8.33361 48.9452 11.6778L49.0121 14.7554H50.2833H51.5544V11.4102C51.5544 7.74419 51.4977 7.38719 50.786 6.57659C50.1017 5.79729 49.3152 5.42223 48.2175 5.35172C47.0805 5.27879 46.3618 5.53236 45.5005 6.31044C45.2062 6.57632 44.9212 6.79389 44.8671 6.79389C44.8131 6.79389 44.6488 6.64135 44.5021 6.45496C43.8921 5.67928 41.9002 5.11488 40.916 5.43869ZM56.3447 5.565C54.8888 6.08097 53.8194 7.15851 53.4126 8.5192C53.0999 9.56517 53.1996 11.4626 53.612 12.3134C54.4948 14.1352 56.7481 15.2868 58.7824 14.9557C60.4763 14.6801 61.7794 13.749 62.489 12.3077C62.8852 11.5027 62.9225 11.3179 62.9245 10.1476C62.9264 9.04278 62.8785 8.76513 62.5748 8.1159C62.0802 7.05923 61.3721 6.33292 60.3414 5.82513C59.5696 5.44485 59.3012 5.38437 58.2483 5.35359C57.3447 5.32723 56.8654 5.38049 56.3447 5.565ZM68.6966 5.582C68.3368 5.72691 67.9003 5.979 67.7265 6.14225L67.4106 6.43917V5.94743V5.45582H66.0725H64.7344V10.1439V14.8319L66.039 14.7937L67.3437 14.7554L67.4106 11.6778C67.4708 8.91085 67.5038 8.56135 67.7389 8.21412C68.3754 7.27412 70.0198 7.22782 70.8226 8.12714C71.0698 8.40412 71.0953 8.66919 71.1572 11.5911L71.2241 14.7554L72.5287 14.7937L73.8333 14.8319V11.6892C73.8333 9.95856 73.7688 8.2461 73.6898 7.87773C73.5044 7.01293 72.9344 6.23672 72.1452 5.77415C71.2939 5.27531 69.6813 5.18539 68.6966 5.582ZM79.2238 5.50827C76.9182 6.2608 75.566 8.25493 75.7461 10.637C76.0497 14.6517 80.7977 16.4495 84.4078 13.9168C84.7994 13.6421 85.1376 13.3571 85.1591 13.2835C85.1808 13.2099 84.8404 12.8897 84.4028 12.5719L83.6072 11.9942L83.1622 12.3336C82.1056 13.1394 80.5887 13.3325 79.4905 12.8009C78.9854 12.5563 78.2489 11.7528 78.2489 11.4461C78.2489 11.3896 79.8434 11.3433 81.7923 11.3433H85.3356L85.4223 10.9981C85.5703 10.4083 85.3943 8.89386 85.1006 8.23004C84.7162 7.36096 83.5834 6.20126 82.6937 5.76598C81.8063 5.33178 80.1431 5.20827 79.2238 5.50827ZM86.1775 5.68998C86.2134 5.8187 87.0332 7.89646 87.9996 10.3073C88.9658 12.7179 89.7563 14.7562 89.7563 14.8369C89.7563 14.9174 89.4252 15.7318 89.0204 16.6464C88.6156 17.5611 88.2844 18.3377 88.2844 18.3722C88.2844 18.4069 88.9071 18.4351 89.6679 18.4351C90.9729 18.4351 91.0592 18.418 91.1882 18.134C91.5156 17.4133 96.3129 5.62375 96.3129 5.53971C96.3129 5.48833 95.7059 5.46358 94.964 5.48459L93.6151 5.52272L92.4562 8.38178L91.2971 11.241L91.0757 10.7234C90.9538 10.4388 90.4195 9.13725 89.8884 7.83089L88.9228 5.45582H87.5176C86.2436 5.45582 86.1184 5.47763 86.1775 5.68998ZM20.645 6.62757C22.4352 7.55552 23.2287 9.77498 22.4035 11.5468C21.069 14.4127 17.2347 14.515 15.6899 11.7259C15.3473 11.1073 15.2931 10.871 15.2958 10.0053C15.3006 8.44293 15.9678 7.38411 17.4055 6.6566C18.1554 6.27713 18.3279 6.24167 19.1731 6.29318C19.7639 6.32918 20.3074 6.45255 20.645 6.62757ZM59.0476 7.85043C60.115 8.34458 60.6938 9.3674 60.5148 10.4429C60.2852 11.8216 59.8387 12.3783 58.7214 12.6791C56.9933 13.1445 55.6457 12.0168 55.6385 10.0989C55.6342 8.96183 56.0903 8.25131 57.1083 7.80989C57.737 7.53732 58.4013 7.55124 59.0476 7.85043ZM81.4181 7.7387C81.8193 7.89004 82.6025 8.57981 82.814 8.96825C82.9332 9.18703 82.7925 9.20242 80.6621 9.20242C78.1716 9.20242 78.1126 9.1806 78.6732 8.46768C79.2406 7.74659 80.5303 7.40405 81.4181 7.7387Z" fill="white"/>
</svg>
