<svg viewBox="0 0 50 64" fill="none" xmlns="http://www.w3.org/2000/svg">
<path d="M24.3557 6.10352e-05C18.2989 0.172169 9.19243 0.860586 0.515463 4.17362C0.128865 4.3027 0 4.68995 0 5.07719C0 15.6187 1.84708 33.6467 2.96392 39.5843C2.96392 39.6273 2.96392 39.6704 3.00687 39.6704C7.30241 54.9879 22.3797 61.786 24.6993 62.7756C24.9141 62.8617 25.1288 62.8617 25.3007 62.7756C27.6633 61.786 42.6976 55.0309 46.9932 39.6704C46.9932 39.6273 46.9932 39.5843 47.036 39.5843C48.1529 33.6467 50 14.8442 50 5.07719C50 4.68995 49.8712 4.34573 49.4845 4.17362C40.8075 0.860586 31.7439 0.172169 25.6872 6.10352e-05C25.5155 6.10352e-05 25.3007 6.10352e-05 25.0429 6.10352e-05C24.8282 6.10352e-05 24.5275 6.10352e-05 24.3557 6.10352e-05Z" fill="#F08A00"/>
<path d="M25.3679 59.8176C27.7733 58.785 41.0035 52.5462 44.8266 38.6917C44.8266 38.6487 44.8266 38.6487 44.8696 38.6056C45.9005 33.1843 47.5758 16.318 47.6617 7.06727C47.6617 6.68003 47.4039 6.29279 47.0602 6.16371C39.4572 3.28094 30.3077 2.59253 25.196 2.59253H24.8523C21.9743 2.59253 10.7201 3.28094 2.9881 6.16371C2.6015 6.29279 2.38672 6.68003 2.38672 7.06727C2.47263 15.9738 4.14789 33.1843 5.17881 38.6056C5.17881 38.6487 5.17881 38.6487 5.17881 38.6917C8.95889 52.5462 22.1892 58.785 24.5946 59.8176C24.8523 59.9037 25.1101 59.9037 25.3679 59.8176Z" fill="#1E73B7"/>
<path d="M24.8277 3.05487C22.0356 3.05487 10.9531 3.70026 3.39301 6.54001C3.00641 6.66909 2.83458 6.92725 2.87754 7.31449C3.13528 9.72397 9.96517 20.9969 19.4153 28.8277C29.6817 37.3039 42.9548 38.8529 43.814 38.8529C44.1147 38.8529 44.5013 38.5947 44.5442 38.3366C45.5322 33.0873 47.1215 16.4792 47.2074 7.44356C47.2074 7.05633 46.9927 6.71212 46.6061 6.54001C39.1748 3.70026 30.1972 3.01184 25.1714 3.01184L24.8277 3.05487Z" fill="url(#paint0_linear_255_7139)"/>
<path d="M33.4714 10.7211C34.4593 10.549 35.4043 10.592 36.3493 10.8071C37.2944 11.0222 38.1535 11.4095 38.9267 11.9258C39.6998 12.4851 40.3442 13.1306 40.8597 13.948C41.3751 14.7655 41.7188 15.6261 41.8906 16.6157C42.0625 17.6053 42.0194 18.5519 41.8476 19.4554C41.6329 20.402 41.2463 21.2625 40.7308 22.037C40.1723 22.8115 39.5281 23.4999 38.7119 24.0162C37.8958 24.5325 37.0367 24.8767 36.0487 25.0488C34.76 25.264 33.5143 25.1779 32.3116 24.7046C31.1088 24.2744 30.0779 23.5429 29.2188 22.5533C28.4026 21.5637 27.8442 20.402 27.6295 19.1112C27.4576 18.1216 27.5006 17.175 27.7154 16.2284C27.9301 15.3249 28.3167 14.4644 28.8751 13.6899C29.4335 12.9154 30.1209 12.27 30.8941 11.7537C31.6243 11.2374 32.4834 10.8932 33.4714 10.7211ZM33.6862 11.9258C32.6122 12.0979 31.6672 12.5282 30.8512 13.2166C30.035 13.905 29.4335 14.7655 29.047 15.7551C28.6604 16.7447 28.5744 17.8204 28.7463 18.8961C29.0041 20.359 29.6913 21.5637 30.8512 22.5533C31.0659 22.7254 31.2806 22.8975 31.5384 23.0266C32.87 23.8441 34.2875 24.1023 35.748 23.8441C36.8219 23.672 37.7669 23.1987 38.626 22.5103C39.4422 21.8219 40.0435 20.9613 40.4301 19.9287C40.8167 18.8961 40.9026 17.8634 40.6879 16.7878C40.5591 15.9703 40.2583 15.2388 39.8288 14.5504C39.3992 13.862 38.8408 13.3026 38.1964 12.8724C37.5521 12.4421 36.8648 12.1409 36.0917 11.9688C35.3184 11.7967 34.5023 11.7537 33.6862 11.9258ZM37.638 16.2715L37.3373 16.3145C37.1226 16.3575 36.9077 16.2715 36.7789 16.0563C36.3923 15.3249 35.7051 14.9376 34.76 14.8946C34.2875 14.8946 33.858 15.0237 33.4714 15.2388C33.0847 15.497 32.7841 15.8412 32.5693 16.3145C32.3546 16.7878 32.2256 17.3041 32.2256 17.9495C32.2256 18.853 32.4405 19.5845 32.87 20.1438C33.2996 20.6601 33.9009 20.9613 34.6742 20.9613C35.1896 20.9613 35.6621 20.8322 36.1346 20.5311C36.4783 20.2729 36.736 19.9287 36.9077 19.5415C36.9937 19.3263 37.2514 19.1973 37.5092 19.2833L37.8529 19.4124C38.0676 19.4984 38.1964 19.7136 38.1105 19.9287C37.9817 20.3159 37.7669 20.6171 37.5092 20.9183C37.1655 21.3055 36.736 21.6067 36.2635 21.8219C35.7909 22.037 35.2326 22.123 34.6742 22.123C33.9009 22.123 33.2566 21.9509 32.6552 21.6067C32.0968 21.2625 31.6243 20.7462 31.3237 20.1008C31.0229 19.4554 30.8512 18.6809 30.8941 17.7774C30.8941 17.218 30.98 16.6587 31.1947 16.1854C31.3666 15.7121 31.6243 15.2819 31.968 14.9376C32.3116 14.5934 32.7412 14.2923 33.2137 14.1201C33.6862 13.948 34.2446 13.862 34.8459 13.862C35.6621 13.862 36.3493 14.0771 36.9508 14.5074C37.3804 14.8086 37.7239 15.1958 37.9388 15.7121C38.0676 15.9272 37.8958 16.2284 37.638 16.2715Z" fill="white"/>
<defs>
<linearGradient id="paint0_linear_255_7139" x1="24.721" y1="2.9721" x2="27.9659" y2="49.2989" gradientUnits="userSpaceOnUse">
<stop stop-color="#60BCEC"/>
<stop offset="1" stop-color="#1E73B7"/>
</linearGradient>
</defs>
</svg>
