<svg viewBox="0 0 122 50" fill="none" xmlns="http://www.w3.org/2000/svg">
<g clip-path="url(#clip0_257_8470)">
<path d="M98.1241 0H23.088C10.3369 0 0 10.9645 0 24.4898C0 38.0152 10.3369 48.9797 23.088 48.9797H98.1241C110.875 48.9797 121.212 38.0152 121.212 24.4898C121.212 10.9645 110.875 0 98.1241 0Z" fill="#8BD5F5"/>
<path d="M21.8787 21.9025C24.3687 21.9025 26.8426 21.9025 29.3326 21.9025C30.6171 21.9025 31.1405 22.4578 31.1405 23.8543C31.1405 25.5032 31.1405 27.169 31.1405 28.8179C31.1405 30.1976 30.6329 30.7696 29.3326 30.8032C28.27 30.837 27.2232 30.8032 26.1606 30.8032C22.3228 30.8032 18.5006 30.8032 14.6627 30.8032C12.9341 30.8032 12.5059 30.3322 12.5059 28.5319C12.5059 26.9838 12.5059 25.4528 12.5059 23.9047C12.5059 22.4073 12.9975 21.9025 14.4248 21.9025C16.9147 21.9025 19.4047 21.9025 21.8787 21.9025Z" fill="#1C1C19"/>
<path d="M21.8468 36.76C19.1506 36.76 16.4704 36.76 13.7744 36.76C12.8863 36.76 12.5215 36.4572 12.5215 35.7503C12.5215 35.0437 12.9021 34.7072 13.7585 34.7072C19.1665 34.7072 24.5745 34.7072 29.9825 34.7072C30.7913 34.7072 31.2671 35.0943 31.2671 35.7335C31.2671 36.3729 30.8072 36.76 29.9985 36.76C27.2706 36.76 24.5586 36.76 21.8468 36.76Z" fill="#1C1C19"/>
<path d="M16.6446 33.747C15.6139 33.747 14.583 33.747 13.5679 33.747C12.9495 33.747 12.553 33.4609 12.5212 32.7711C12.4895 32.0308 12.9019 31.6943 13.5521 31.6943C15.6139 31.6774 17.6596 31.6774 19.7213 31.6943C20.3557 31.6943 20.7998 31.9971 20.8157 32.7206C20.8157 33.4441 20.4033 33.747 19.7372 33.747C18.7063 33.747 17.6755 33.747 16.6446 33.747Z" fill="#1C1C19"/>
<path d="M21.7677 28.6658C19.5474 28.6658 17.343 28.649 15.1227 28.6826C14.5517 28.6994 14.4249 28.4975 14.4407 27.9255C14.4883 26.7813 14.4724 25.6372 14.4407 24.4761C14.4407 24.0723 14.5517 23.9546 14.9324 23.9546C19.5156 23.9714 24.1149 23.9714 28.6982 23.9546C29.0947 23.9546 29.1899 24.106 29.1899 24.4929C29.174 25.6708 29.158 26.8485 29.1899 28.0264C29.2056 28.5647 29.0471 28.6826 28.5712 28.6658C26.3035 28.649 24.0356 28.6658 21.7677 28.6658Z" fill="#8BD5F5"/>
<path d="M86.1241 23.9721C87.0439 23.9721 87.9635 23.9553 88.8991 23.9721C89.8826 23.9889 90.5486 24.6115 90.628 25.6547C90.6597 26.1762 90.6597 26.7147 90.5803 27.2362C90.4695 28.0776 89.8511 28.6497 89.0577 28.6497C87.1073 28.6665 85.1564 28.6497 83.2059 28.6665C82.7776 28.6665 82.6826 28.4982 82.6826 28.0776C82.6985 26.8997 82.7142 25.722 82.6826 24.5441C82.6665 24.0394 82.857 23.9385 83.285 23.9385C84.2206 23.9889 85.1726 23.9721 86.1241 23.9721Z" fill="#8BD5F5"/>
<path d="M16.3759 14.1038C16.3759 14.695 16.2077 15.1317 15.8713 15.4136C15.5377 15.6958 15.0332 15.8368 14.358 15.8368H12.6973V9.88928H16.0421V10.5035H13.3569V12.4277H14.2378C14.737 12.4277 15.1431 12.4888 15.4562 12.6108C15.7692 12.7301 16.0007 12.9078 16.1507 13.1437C16.3007 13.3797 16.3759 13.6997 16.3759 14.1038ZM13.3569 15.2388H14.2843C14.7758 15.2388 15.1328 15.1506 15.3553 14.9743C15.5804 14.7981 15.6928 14.5079 15.6928 14.1038C15.6928 13.7187 15.5791 13.4447 15.3513 13.282C15.1238 13.1193 14.7267 13.0379 14.1602 13.0379H13.3569V15.2388Z" fill="#1F1F1F"/>
<path d="M19.5664 9.88928H20.1834V13.1966C20.1834 13.8068 20.1652 14.3587 20.129 14.8523H20.16L23.3419 9.88928H24.0637V15.8368H23.4428V12.562C23.4428 12.0168 23.4649 11.4446 23.5088 10.8453H23.4738L20.2881 15.8368H19.5664V9.88928Z" fill="#1F1F1F"/>
<path d="M31.2024 11.6223C31.2024 12.2243 31.0059 12.6881 30.6127 13.0135C30.222 13.3363 29.662 13.4976 28.9324 13.4976H28.265V15.8368H27.6055V9.88928H29.0761C30.4937 9.88928 31.2024 10.4669 31.2024 11.6223ZM28.265 12.9037H28.8588C29.4433 12.9037 29.8664 12.8047 30.1276 12.6067C30.389 12.4087 30.5196 12.0914 30.5196 11.6548C30.5196 11.2616 30.3967 10.9687 30.1509 10.7761C29.9052 10.5836 29.5223 10.4873 29.0023 10.4873H28.265V12.9037Z" fill="#1F1F1F"/>
<path d="M35.9223 12.7776L33.6909 9.88928H34.4283L36.636 12.7694V9.88928H37.2724V12.7694L39.4842 9.88928H40.2216L37.9865 12.7694L40.2913 15.8368H39.5307L37.2724 12.8223V15.8368H36.636V12.8223L34.3815 15.8368H33.6094L35.9223 12.7776Z" fill="#1F1F1F"/>
<path d="M46.6465 15.8368L45.9405 13.9452H43.6668L42.9681 15.8368H42.3008L44.5435 9.86487H45.0984L47.3297 15.8368H46.6465ZM45.7347 13.3227L45.0752 11.4799C44.9897 11.2467 44.9018 10.9606 44.8112 10.6216C44.7543 10.8819 44.6729 11.168 44.5668 11.4799L43.8994 13.3227H45.7347Z" fill="#1F1F1F"/>
<path d="M58.2296 15.8368H57.4303L54.8075 12.8223V15.8368H54.1475V9.88928H54.8075V12.7694L57.3643 9.88928H58.1212L55.6105 12.7776L58.2296 15.8368Z" fill="#1F1F1F"/>
<path d="M65.9251 12.8548C65.9251 13.8068 65.6948 14.5553 65.2342 15.1004C64.7764 15.6456 64.1386 15.9182 63.3215 15.9182C62.4858 15.9182 61.8403 15.651 61.3851 15.1167C60.9323 14.5797 60.7061 13.823 60.7061 12.8467C60.7061 11.8785 60.9336 11.1286 61.3888 10.597C61.8444 10.0628 62.4909 9.79565 63.3292 9.79565C64.1441 9.79565 64.7804 10.0669 65.2383 10.6093C65.6962 11.1517 65.9251 11.9002 65.9251 12.8548ZM61.4044 12.8548C61.4044 13.6603 61.5673 14.2719 61.8936 14.6895C62.2218 15.1045 62.6979 15.3119 63.3215 15.3119C63.9501 15.3119 64.4245 15.1045 64.7454 14.6895C65.0664 14.2746 65.2265 13.663 65.2265 12.8548C65.2265 12.0548 65.0664 11.4487 64.7454 11.0364C64.4273 10.6215 63.9551 10.414 63.3292 10.414C62.7006 10.414 62.2218 10.6228 61.8936 11.0405C61.5673 11.4554 61.4044 12.0602 61.4044 12.8548Z" fill="#1F1F1F"/>
<path d="M73.4868 15.8368H72.8271V13.0379H69.8392V15.8368H69.1797V9.88928H69.8392V12.4196H72.8271V9.88928H73.4868V15.8368Z" fill="#1F1F1F"/>
<path d="M78.7804 15.8368H78.1209V10.5035H76.3242V9.88928H80.5771V10.5035H78.7804V15.8368Z" fill="#1F1F1F"/>
<path d="M86.5822 15.8368H83.4199V9.88928H86.5822V10.5035H84.0796V12.4196H86.4311V13.0298H84.0796V15.2185H86.5822V15.8368Z" fill="#1F1F1F"/>
<path d="M94.1375 15.8368H93.478V13.0379H90.4901V15.8368H89.8301V9.88928H90.4901V12.4196H93.478V9.88928H94.1375V15.8368Z" fill="#1F1F1F"/>
<path d="M99.4308 15.8368H98.7713V10.5035H96.9746V9.88928H101.227V10.5035H99.4308V15.8368Z" fill="#1F1F1F"/>
<path d="M107.638 15.8368L106.932 13.9452H104.658L103.959 15.8368H103.292L105.535 9.86487H106.09L108.321 15.8368H107.638ZM106.726 13.3227L106.066 11.4799C105.981 11.2467 105.893 10.9606 105.803 10.6216C105.746 10.8819 105.664 11.168 105.558 11.4799L104.891 13.3227H106.726Z" fill="#1F1F1F"/>
<path d="M59.2311 21.8358L60.6717 23.1887L48.9383 37.2466L47.498 35.8937L59.2311 21.8358Z" fill="white"/>
<path d="M47.4629 23.2291L48.8962 21.8676L60.7061 35.8532L59.2727 37.2147L47.4629 23.2291Z" fill="white"/>
<path d="M39.6338 24.3212H41.558V36.9742H39.6338V24.3212Z" fill="white"/>
<path d="M46.7541 22.28V24.3209H34.248V22.28H46.7541Z" fill="white"/>
<path d="M66.9551 24.3212H68.879V36.9742H66.9551V24.3212Z" fill="white"/>
<path d="M74.0744 22.28V24.3209H61.5684V22.28H74.0744Z" fill="white"/>
<path d="M75.1315 33.9125C74.3345 33.9125 73.6885 34.5978 73.6885 35.4431C73.6885 36.2884 74.3345 36.9737 75.1315 36.9737C75.9285 36.9737 76.5745 36.2884 76.5745 35.4431C76.5745 34.5978 75.9285 33.9125 75.1315 33.9125Z" fill="#1F1F1F"/>
<path d="M80.6152 22.28H82.5395V36.974H80.6152V22.28Z" fill="#1F1F1F"/>
<path d="M85.7324 30.637L87.1536 29.2614L92.9291 35.9753L91.5079 37.3506L85.7324 30.637Z" fill="#1F1F1F"/>
<path fill-rule="evenodd" clip-rule="evenodd" d="M88.8887 24.3209H82.5395V28.8106H88.8887C89.7384 28.8106 90.4277 28.0797 90.4277 27.1781V25.9535C90.4277 25.0518 89.7384 24.3209 88.8887 24.3209ZM80.6152 22.28V30.8515H88.8887C90.8011 30.8515 92.3516 29.2068 92.3516 27.1781V25.9535C92.3516 23.9247 90.8011 22.28 88.8887 22.28H80.6152Z" fill="#1F1F1F"/>
<path fill-rule="evenodd" clip-rule="evenodd" d="M97.7384 22.28V32.28C97.7384 33.9708 99.0307 35.3414 100.625 35.3414H103.126C104.719 35.3414 106.012 33.9708 106.012 32.28V22.28H107.936V32.28C107.936 35.0979 105.782 37.3821 103.126 37.3821H100.625C97.9679 37.3821 95.8145 35.0979 95.8145 32.28V22.28H97.7384Z" fill="#1F1F1F"/>
</g>
<defs>
<clipPath id="clip0_257_8470">
<rect width="121.212" height="50" fill="white"/>
</clipPath>
</defs>
</svg>
