<svg viewBox="0 0 130 17" fill="none" xmlns="http://www.w3.org/2000/svg">
<g clip-path="url(#clip0_257_8428)">
<path d="M3.22036 10.1394V15.6553H0V0H6.09722C7.27085 0 8.30138 0.215045 9.18876 0.645138C10.0833 1.07523 10.7703 1.68812 11.2498 2.48378C11.7293 3.27228 11.969 4.17189 11.969 5.1826C11.969 6.71661 11.443 7.92803 10.391 8.81688C9.3462 9.69858 7.89704 10.1394 6.04355 10.1394H3.22036ZM3.22036 7.52661H6.09722C6.94881 7.52661 7.59647 7.3259 8.04017 6.92449C8.49102 6.52305 8.71644 5.9496 8.71644 5.20412C8.71644 4.43711 8.49102 3.81707 8.04017 3.34396C7.58931 2.87087 6.96671 2.62715 6.17236 2.61281H3.22036V7.52661Z" fill="#46A6FA"/>
<path d="M19.0527 7.39758L21.8972 0H25.3753L19.9115 12.9135L19.4713 13.7629C18.6626 15.1751 17.4245 15.8811 15.7572 15.8811L14.63 15.8381L14.5978 13.2468C14.7696 13.2755 15.0487 13.2898 15.4351 13.2898C15.886 13.2898 16.2474 13.211 16.5194 13.0533C16.7985 12.8956 17.0311 12.6053 17.217 12.1824L17.6142 11.1609L12.1289 0H15.5961L19.0527 7.39758Z" fill="#46A6FA"/>
<path d="M31.4036 9.47281H29.5464V15.8705H26.3262V0.215088H29.5464V6.48367H31.0171L34.8385 0.215088H38.7674L33.9476 7.62343L39.272 15.8705H35.4291L31.4036 9.47281Z" fill="#333C47"/>
<path d="M52.013 8.39755C52.013 9.93871 51.741 11.2899 51.1972 12.4512C50.6533 13.6124 49.8733 14.5084 48.857 15.1392C47.848 15.77 46.6888 16.0854 45.3791 16.0854C44.0837 16.0854 42.928 15.7737 41.9117 15.15C40.8956 14.5264 40.1084 13.6375 39.5503 12.4834C38.9921 11.3222 38.7094 9.98889 38.7021 8.48357V7.70941C38.7021 6.16823 38.9777 4.81344 39.5288 3.64503C40.0869 2.46945 40.8706 1.56984 41.8796 0.946203C42.8957 0.315401 44.0551 0 45.3577 0C46.66 0 47.8159 0.315401 48.8249 0.946203C49.841 1.56984 50.6247 2.46945 51.1757 3.64503C51.7339 4.81344 52.013 6.16465 52.013 7.69865V8.39755ZM48.7498 7.68789C48.7498 6.04637 48.4563 4.79912 47.8695 3.9461C47.2827 3.09307 46.4453 2.66657 45.3577 2.66657C44.2771 2.66657 43.4433 3.08949 42.8565 3.93535C42.2697 4.77402 41.9726 6.00695 41.9655 7.63413V8.39755C41.9655 9.99606 42.2589 11.2361 42.8457 12.1178C43.4325 12.9995 44.2771 13.4404 45.3791 13.4404C46.4597 13.4404 47.2898 13.0175 47.8695 12.1716C48.4492 11.3186 48.7425 10.0785 48.7498 8.4513V7.68789Z" fill="#333C47"/>
<path d="M66.074 15.8705H62.8536V9.161H56.5739V15.8705H53.3535V0.215088H56.5739V6.55895H62.8536V0.215088H66.074V15.8705Z" fill="#333C47"/>
<path d="M79.3405 2.8279H74.553V15.8705H71.3326V2.8279H66.6094V0.215088H79.3405V2.8279Z" fill="#333C47"/>
<path d="M89.591 9.08574H83.4079V13.2791H90.6645V15.8705H80.1875V0.215088H90.643V2.8279H83.4079V6.55895H89.591V9.08574Z" fill="#333C47"/>
<path d="M96.6546 9.47281H94.7974V15.8705H91.5771V0.215088H94.7974V6.48367H96.2681L100.089 0.215088H104.018L99.1985 7.62343L104.523 15.8705H100.68L96.6546 9.47281Z" fill="#333C47"/>
<path d="M116.695 10.6555C116.573 12.3401 115.951 13.6662 114.827 14.6339C113.711 15.6015 112.237 16.0854 110.405 16.0854C108.401 16.0854 106.823 15.4116 105.671 14.064C104.526 12.7092 103.953 10.8527 103.953 8.49431V7.53737C103.953 6.03205 104.218 4.70592 104.747 3.55901C105.277 2.4121 106.032 1.53399 107.013 0.924698C108 0.308233 109.145 0 110.448 0C112.251 0 113.704 0.483854 114.806 1.45156C115.908 2.41927 116.545 3.77765 116.717 5.52668H113.496C113.418 4.51597 113.135 3.7848 112.648 3.33322C112.169 2.87445 111.435 2.64506 110.448 2.64506C109.374 2.64506 108.569 3.03215 108.032 3.80632C107.503 4.57331 107.231 5.76682 107.217 7.38682V8.56958C107.217 10.2613 107.471 11.4978 107.979 12.2791C108.494 13.0605 109.303 13.4511 110.405 13.4511C111.399 13.4511 112.14 13.2253 112.627 12.7737C113.12 12.315 113.403 11.6089 113.475 10.6555H116.695Z" fill="#333C47"/>
<path d="M129.253 2.8279H124.465V15.8705H121.245V2.8279H116.521V0.215088H129.253V2.8279Z" fill="#333C47"/>
</g>
<defs>
<clipPath id="clip0_257_8428">
<rect width="129.818" height="17" fill="white"/>
</clipPath>
</defs>
</svg>
