<svg viewBox="0 0 50 50" fill="none" xmlns="http://www.w3.org/2000/svg">
<path d="M24.2721 0.000450587C10.9227 0.0814861 -0.0804623 11.5075 0.00044334 25.2836C0.0813489 39.0595 11.2463 50.0806 25.1621 49.9995C39.0778 49.9185 50 38.8976 50 24.9594C50 10.7782 38.7542 -0.0805851 24.2721 0.000450587ZM25.243 45.3805C13.9163 45.4615 4.53115 36.1425 4.61206 24.9594C4.69296 13.6955 13.9971 4.61949 25.4047 4.61949C36.0844 4.61949 45.3074 13.9386 45.3074 24.8784C45.3885 36.1425 36.408 45.2994 25.243 45.3805Z" fill="#E11E27"/>
<path d="M29.6123 17.7483C31.7159 20.5036 33.4957 19.8552 35.7612 18.7207C33.7386 12.8052 28.8034 10.212 22.3309 11.5086C15.7775 12.8862 12.2986 18.7207 12.9458 27.2295C13.4313 33.7933 18.0429 38.4125 24.2725 38.7366C30.7449 39.0606 34.6286 36.3053 35.6802 30.39C34.3857 29.9847 33.0104 29.4985 31.5542 29.0123C30.8259 30.1468 30.3404 31.0381 29.6934 31.8486C26.7808 35.5762 21.8454 35.252 19.7419 31.1192C17.7193 27.2295 17.6383 23.0156 19.58 19.0448C21.6027 15.0741 26.9425 14.1827 29.6123 17.7483Z" fill="#E11E27"/>
</svg>
