<svg viewBox="0 0 19 24" fill="none" xmlns="http://www.w3.org/2000/svg">
<path d="M9.25515 0C6.9536 0.0654011 3.49312 0.327 0.195876 1.58595C0.0489685 1.635 0 1.78216 0 1.92931C0 5.93507 0.70189 12.7857 1.12629 15.042C1.12629 15.0584 1.12629 15.0747 1.14261 15.0747C2.77491 20.8954 8.5043 23.4787 9.38575 23.8547C9.46735 23.8874 9.54895 23.8874 9.61425 23.8547C10.512 23.4787 16.2251 20.9117 17.8574 15.0747C17.8574 15.0584 17.8574 15.042 17.8737 15.042C18.2981 12.7857 19 5.64077 19 1.92931C19 1.78216 18.951 1.65135 18.8041 1.58595C15.5068 0.327 12.0627 0.0654011 9.76115 0C9.6959 0 9.61425 0 9.5163 0C9.4347 0 9.32045 0 9.25515 0Z" fill="#F08A00"/>
<path d="M9.63909 22.7309C10.5531 22.3385 15.5806 19.9677 17.0334 14.703C17.0334 14.6867 17.0334 14.6867 17.0497 14.6703C17.4415 12.6102 18.0781 6.20103 18.1107 2.68575C18.1107 2.5386 18.0128 2.39145 17.8822 2.3424C14.993 1.24695 11.5162 0.985352 9.57379 0.985352H9.44319C8.34954 0.985352 4.07292 1.24695 1.13477 2.3424C0.987865 2.39145 0.90625 2.5386 0.90625 2.68575C0.938895 6.07023 1.57549 12.6102 1.96724 14.6703C1.96724 14.6867 1.96724 14.6867 1.96724 14.703C3.40367 19.9677 8.43119 22.3385 9.34524 22.7309C9.44319 22.7636 9.54114 22.7636 9.63909 22.7309Z" fill="#1E73B7"/>
<path d="M9.43531 1.16088C8.37431 1.16088 4.16298 1.40613 1.29013 2.48524C1.14322 2.53429 1.07792 2.63239 1.09425 2.77954C1.19219 3.69514 3.78754 7.97887 7.37861 10.9546C11.2798 14.1755 16.3236 14.7641 16.6501 14.7641C16.7644 14.7641 16.9113 14.666 16.9276 14.5679C17.303 12.5732 17.907 6.26212 17.9396 2.82859C17.9396 2.68144 17.858 2.55064 17.7111 2.48524C14.8872 1.40613 11.4757 1.14453 9.56591 1.14453L9.43531 1.16088Z" fill="url(#paint0_linear_255_6942)"/>
<path d="M12.7192 4.07405C13.0946 4.00865 13.4537 4.025 13.8128 4.10675C14.172 4.1885 14.4984 4.33565 14.7922 4.53185C15.086 4.7444 15.3309 4.98965 15.5268 5.3003C15.7226 5.61095 15.8532 5.93795 15.9185 6.314C15.9838 6.69005 15.9675 7.04975 15.9022 7.3931C15.8206 7.7528 15.6737 8.0798 15.4778 8.3741C15.2656 8.6684 15.0208 8.93 14.7106 9.1262C14.4005 9.3224 14.074 9.4532 13.6986 9.5186C13.2089 9.60035 12.7355 9.56765 12.2785 9.3878C11.8214 9.2243 11.4297 8.94635 11.1032 8.5703C10.7931 8.19425 10.5809 7.7528 10.4993 7.2623C10.434 6.88625 10.4503 6.52655 10.5319 6.16685C10.6135 5.8235 10.7604 5.4965 10.9726 5.2022C11.1848 4.9079 11.446 4.66265 11.7398 4.46645C12.0173 4.27025 12.3438 4.13945 12.7192 4.07405ZM12.8008 4.53185C12.3927 4.59725 12.0336 4.76075 11.7235 5.02235C11.4134 5.28395 11.1848 5.61095 11.0379 5.987C10.891 6.36305 10.8584 6.7718 10.9237 7.18055C11.0216 7.73645 11.2828 8.19425 11.7235 8.5703C11.8051 8.6357 11.8867 8.7011 11.9847 8.75015C12.4907 9.0608 13.0293 9.1589 13.5843 9.0608C13.9924 8.9954 14.3515 8.81555 14.678 8.55395C14.9881 8.29235 15.2166 7.96535 15.3635 7.57295C15.5104 7.18055 15.5431 6.78815 15.4615 6.3794C15.4125 6.06875 15.2982 5.7908 15.135 5.5292C14.9718 5.2676 14.7596 5.05505 14.5147 4.89155C14.2699 4.72805 14.0087 4.6136 13.7149 4.5482C13.4211 4.4828 13.111 4.46645 12.8008 4.53185ZM14.3025 6.1832L14.1883 6.19955C14.1067 6.2159 14.025 6.1832 13.9761 6.10145C13.8292 5.8235 13.568 5.67635 13.2089 5.66C13.0293 5.66 12.8661 5.70905 12.7192 5.7908C12.5723 5.8889 12.458 6.0197 12.3764 6.19955C12.2948 6.3794 12.2458 6.5756 12.2458 6.82085C12.2458 7.1642 12.3275 7.44215 12.4907 7.6547C12.6539 7.8509 12.8824 7.96535 13.1763 7.96535C13.3721 7.96535 13.5517 7.9163 13.7312 7.80185C13.8618 7.70375 13.9598 7.57295 14.025 7.4258C14.0577 7.34405 14.1556 7.295 14.2536 7.3277L14.3842 7.37675C14.4658 7.40945 14.5147 7.4912 14.4821 7.57295C14.4331 7.7201 14.3515 7.83455 14.2536 7.949C14.123 8.09615 13.9598 8.2106 13.7802 8.29235C13.6006 8.3741 13.3885 8.4068 13.1763 8.4068C12.8824 8.4068 12.6376 8.3414 12.4091 8.2106C12.1969 8.0798 12.0173 7.8836 11.9031 7.63835C11.7888 7.3931 11.7235 7.0988 11.7398 6.75545C11.7398 6.5429 11.7725 6.33035 11.8541 6.1505C11.9194 5.97065 12.0173 5.80715 12.1479 5.67635C12.2785 5.54555 12.4417 5.4311 12.6213 5.3657C12.8008 5.3003 13.013 5.2676 13.2415 5.2676C13.5517 5.2676 13.8128 5.34935 14.0414 5.51285C14.2046 5.6273 14.3352 5.77445 14.4168 5.97065C14.4658 6.0524 14.4005 6.16685 14.3025 6.1832Z" fill="white"/>
<defs>
<linearGradient id="paint0_linear_255_6942" x1="9.39476" y1="1.12943" x2="10.6278" y2="18.7336" gradientUnits="userSpaceOnUse">
<stop stop-color="#60BCEC"/>
<stop offset="1" stop-color="#1E73B7"/>
</linearGradient>
</defs>
</svg>
