<svg width="24" height="24" viewBox="0 0 24 24" fill="none" xmlns="http://www.w3.org/2000/svg">
<path d="M11.6506 0.000216282C5.24288 0.0391133 -0.0386219 5.52361 0.000212803 12.1361C0.0390475 18.7486 5.39822 24.0387 12.0778 23.9998C18.7573 23.9609 24 18.6709 24 11.9805C24 5.17353 18.602 -0.0386809 11.6506 0.000216282ZM12.1166 21.7826C6.6798 21.8215 2.17495 17.3484 2.21379 11.9805C2.25262 6.57384 6.71862 2.21735 12.1943 2.21735C17.3205 2.21735 21.7475 6.69054 21.7475 11.9416C21.7865 17.3484 17.4758 21.7437 12.1166 21.7826Z" fill="#E11E27"/>
<path d="M14.2144 8.51914C15.2242 9.84166 16.0785 9.53044 17.1659 8.98588C16.1951 6.14644 13.8262 4.9017 10.7194 5.52406C7.57377 6.18532 5.90386 8.98588 6.21453 13.0701C6.44757 16.2207 8.66115 18.4379 11.6514 18.5935C14.7581 18.749 16.6223 17.4265 17.127 14.5871C16.5057 14.3926 15.8456 14.1592 15.1466 13.9259C14.797 14.4704 14.564 14.8982 14.2534 15.2873C12.8553 17.0765 10.4864 16.9209 9.47667 14.9372C8.50581 13.0701 8.46693 11.0474 9.39897 9.14146C10.3698 7.2355 12.933 6.80764 14.2144 8.51914Z" fill="#E11E27"/>
</svg>
