<svg viewBox="0 0 59 24" fill="none" xmlns="http://www.w3.org/2000/svg">
<path d="M47.0996 0H11.0823C4.96169 0 0 5.26294 0 11.7551C0 18.2473 4.96169 23.5103 11.0823 23.5103H47.0996C53.2201 23.5103 58.1818 18.2473 58.1818 11.7551C58.1818 5.26294 53.2201 0 47.0996 0Z" fill="#8BD5F5"/>
<path d="M10.5019 10.5132C11.6971 10.5132 12.8846 10.5132 14.0798 10.5132C14.6963 10.5132 14.9475 10.7797 14.9475 11.4501C14.9475 12.2415 14.9475 13.0411 14.9475 13.8326C14.9475 14.4949 14.7039 14.7694 14.0798 14.7855C13.5697 14.8018 13.0673 14.7855 12.5572 14.7855C10.715 14.7855 8.88042 14.7855 7.03822 14.7855C6.20847 14.7855 6.00293 14.5594 6.00293 13.6953C6.00293 12.9522 6.00293 12.2173 6.00293 11.4743C6.00293 10.7555 6.23892 10.5132 6.92404 10.5132C8.11918 10.5132 9.31438 10.5132 10.5019 10.5132Z" fill="#1C1C19"/>
<path d="M10.4869 17.6451C9.19271 17.6451 7.90623 17.6451 6.61214 17.6451C6.18584 17.6451 6.01074 17.4997 6.01074 17.1604C6.01074 16.8212 6.19345 16.6597 6.60452 16.6597C9.20034 16.6597 11.7962 16.6597 14.392 16.6597C14.7803 16.6597 15.0086 16.8455 15.0086 17.1523C15.0086 17.4592 14.7879 17.6451 14.3997 17.6451C13.0903 17.6451 11.7886 17.6451 10.4869 17.6451Z" fill="#1C1C19"/>
<path d="M7.98981 16.1984C7.49504 16.1984 7.00021 16.1984 6.513 16.1984C6.21613 16.1984 6.02581 16.0611 6.01059 15.73C5.99536 15.3746 6.19329 15.2131 6.50539 15.2131C7.49504 15.205 8.47701 15.205 9.46661 15.2131C9.77112 15.2131 9.98428 15.3585 9.99192 15.7057C9.99192 16.053 9.79395 16.1984 9.47424 16.1984C8.97941 16.1984 8.48464 16.1984 7.98981 16.1984Z" fill="#1C1C19"/>
<path d="M10.4492 13.7594C9.38347 13.7594 8.32536 13.7514 7.25959 13.7675C6.98554 13.7756 6.92464 13.6786 6.93225 13.4041C6.95509 12.8548 6.94747 12.3057 6.93225 11.7484C6.93225 11.5546 6.98554 11.498 7.16824 11.498C9.3682 11.5061 11.5758 11.5061 13.7758 11.498C13.9662 11.498 14.0118 11.5707 14.0118 11.7564C14.0042 12.3218 13.9966 12.8871 14.0118 13.4525C14.0194 13.7109 13.9433 13.7675 13.7149 13.7594C12.6264 13.7514 11.5378 13.7594 10.4492 13.7594Z" fill="#8BD5F5"/>
<path d="M41.3399 11.5064C41.7814 11.5064 42.2228 11.4983 42.6719 11.5064C43.1439 11.5145 43.4637 11.8133 43.5018 12.314C43.517 12.5643 43.517 12.8228 43.4789 13.0731C43.4257 13.477 43.1288 13.7516 42.748 13.7516C41.8118 13.7597 40.8754 13.7516 39.9391 13.7597C39.7335 13.7597 39.6879 13.6789 39.6879 13.477C39.6956 12.9116 39.7031 12.3463 39.6879 11.7809C39.6802 11.5387 39.7717 11.4902 39.9771 11.4902C40.4262 11.5145 40.8831 11.5064 41.3399 11.5064Z" fill="#8BD5F5"/>
<path d="M7.86046 6.77003C7.86046 7.05383 7.77973 7.26341 7.61828 7.39876C7.45813 7.53418 7.21598 7.60189 6.8919 7.60189H6.09473V4.74707H7.70024V5.04191H6.41136V5.96553H6.83417C7.07381 5.96553 7.26875 5.99483 7.419 6.0534C7.56926 6.11068 7.68038 6.19595 7.75238 6.30919C7.82438 6.42246 7.86046 6.57607 7.86046 6.77003ZM6.41136 7.31484H6.85652C7.09243 7.31484 7.26379 7.27252 7.37057 7.1879C7.47864 7.10328 7.5326 6.964 7.5326 6.77003C7.5326 6.58518 7.47798 6.45369 7.36868 6.37559C7.25944 6.29748 7.06885 6.25843 6.79692 6.25843H6.41136V7.31484Z" fill="#1F1F1F"/>
<path d="M9.3916 4.74707H9.68775V6.33458C9.68775 6.62748 9.67902 6.89239 9.66164 7.12932H9.67655L11.2038 4.74707H11.5503V7.60189H11.2523V6.02997C11.2523 5.7683 11.2629 5.49364 11.284 5.20595H11.2672L9.738 7.60189H9.3916V4.74707Z" fill="#1F1F1F"/>
<path d="M14.9775 5.57891C14.9775 5.8679 14.8832 6.0905 14.6945 6.24671C14.5069 6.40163 14.2381 6.47908 13.8879 6.47908H13.5676V7.60189H13.251V4.74707H13.9569C14.6373 4.74707 14.9775 5.02434 14.9775 5.57891ZM13.5676 6.19399H13.8526C14.1332 6.19399 14.3362 6.14647 14.4616 6.05145C14.587 5.95641 14.6497 5.80411 14.6497 5.59452C14.6497 5.40576 14.5908 5.26518 14.4728 5.17274C14.3548 5.08032 14.171 5.03411 13.9214 5.03411H13.5676V6.19399Z" fill="#1F1F1F"/>
<path d="M17.243 6.13346L16.1719 4.74707H16.5259L17.5856 6.12955V4.74707H17.8911V6.12955L18.9527 4.74707H19.3067L18.2338 6.12955L19.3402 7.60189H18.9751L17.8911 6.15494V7.60189H17.5856V6.15494L16.5034 7.60189H16.1328L17.243 6.13346Z" fill="#1F1F1F"/>
<path d="M22.3907 7.6019L22.0517 6.69389H20.9604L20.625 7.6019H20.3047L21.3812 4.73535H21.6475L22.7186 7.6019H22.3907ZM21.953 6.39513L21.6364 5.51057C21.5954 5.39861 21.5532 5.26128 21.5097 5.09856C21.4824 5.22353 21.4433 5.36086 21.3924 5.51057L21.072 6.39513H21.953Z" fill="#1F1F1F"/>
<path d="M27.9497 7.60189H27.566L26.307 6.15494V7.60189H25.9902V4.74707H26.307V6.12955L27.5343 4.74707H27.8977L26.6925 6.13346L27.9497 7.60189Z" fill="#1F1F1F"/>
<path d="M31.6438 6.17056C31.6438 6.62748 31.5333 6.98677 31.3122 7.24843C31.0924 7.51011 30.7863 7.64095 30.3941 7.64095C29.9929 7.64095 29.6831 7.51273 29.4646 7.25624C29.2473 6.99848 29.1387 6.6353 29.1387 6.16664C29.1387 5.70192 29.2479 5.34197 29.4664 5.08682C29.6851 4.83037 29.9954 4.70215 30.3978 4.70215C30.7889 4.70215 31.0944 4.83233 31.3142 5.09268C31.5339 5.35303 31.6438 5.71232 31.6438 6.17056ZM29.4739 6.17056C29.4739 6.5572 29.5521 6.85073 29.7087 7.05122C29.8662 7.25038 30.0947 7.34997 30.3941 7.34997C30.6958 7.34997 30.9235 7.25038 31.0776 7.05122C31.2316 6.85203 31.3085 6.55848 31.3085 6.17056C31.3085 5.78653 31.2316 5.49559 31.0776 5.2977C30.9249 5.09854 30.6982 4.99896 30.3978 4.99896C30.0961 4.99896 29.8662 5.0992 29.7087 5.29966C29.5521 5.49882 29.4739 5.78912 29.4739 6.17056Z" fill="#1F1F1F"/>
<path d="M35.2735 7.60189H34.9568V6.25843H33.5226V7.60189H33.2061V4.74707H33.5226V5.96162H34.9568V4.74707H35.2735V7.60189Z" fill="#1F1F1F"/>
<path d="M37.8137 7.60189H37.4972V5.04191H36.6348V4.74707H38.6761V5.04191H37.8137V7.60189Z" fill="#1F1F1F"/>
<path d="M41.5599 7.60189H40.042V4.74707H41.5599V5.04191H40.3586V5.96162H41.4874V6.25452H40.3586V7.30509H41.5599V7.60189Z" fill="#1F1F1F"/>
<path d="M45.1867 7.60189H44.8701V6.25843H43.4359V7.60189H43.1191V4.74707H43.4359V5.96162H44.8701V4.74707H45.1867V7.60189Z" fill="#1F1F1F"/>
<path d="M47.7268 7.60189H47.4103V5.04191H46.5479V4.74707H48.5892V5.04191H47.7268V7.60189Z" fill="#1F1F1F"/>
<path d="M51.6663 7.6019L51.3271 6.69389H50.2358L49.9004 7.6019H49.5801L50.6566 4.73535H50.923L51.994 7.6019H51.6663ZM51.2284 6.39513L50.9118 5.51057C50.8709 5.39861 50.8286 5.26128 50.7852 5.09856C50.758 5.22353 50.7188 5.36086 50.6679 5.51057L50.3474 6.39513H51.2284Z" fill="#1F1F1F"/>
<path d="M28.4307 10.481L29.1222 11.1303L23.4902 17.8781L22.7988 17.2287L28.4307 10.481Z" fill="white"/>
<path d="M22.7822 11.1501L23.4702 10.4966L29.139 17.2097L28.451 17.8632L22.7822 11.1501Z" fill="white"/>
<path d="M19.0244 11.6743H19.948V17.7478H19.0244V11.6743Z" fill="white"/>
<path d="M22.4424 10.6943V11.674H16.4395V10.6943H22.4424Z" fill="white"/>
<path d="M32.1387 11.6743H33.0622V17.7478H32.1387V11.6743Z" fill="white"/>
<path d="M35.5556 10.6943V11.674H29.5527V10.6943H35.5556Z" fill="white"/>
<path d="M36.0637 16.2778C35.6812 16.2778 35.3711 16.6068 35.3711 17.0125C35.3711 17.4183 35.6812 17.7472 36.0637 17.7472C36.4463 17.7472 36.7564 17.4183 36.7564 17.0125C36.7564 16.6068 36.4463 16.2778 36.0637 16.2778Z" fill="#1F1F1F"/>
<path d="M38.6953 10.6943H39.619V17.7474H38.6953V10.6943Z" fill="#1F1F1F"/>
<path d="M41.1514 14.7057L41.8336 14.0454L44.6058 17.2681L43.9236 17.9282L41.1514 14.7057Z" fill="#1F1F1F"/>
<path fill-rule="evenodd" clip-rule="evenodd" d="M42.6666 11.674H39.6189V13.829H42.6666C43.0744 13.829 43.4053 13.4782 43.4053 13.0454V12.4576C43.4053 12.0248 43.0744 11.674 42.6666 11.674ZM38.6953 10.6943V14.8087H42.6666C43.5845 14.8087 44.3288 14.0192 44.3288 13.0454V12.4576C44.3288 11.4838 43.5845 10.6943 42.6666 10.6943H38.6953Z" fill="#1F1F1F"/>
<path fill-rule="evenodd" clip-rule="evenodd" d="M46.9147 10.6943V15.4943C46.9147 16.3059 47.535 16.9638 48.3001 16.9638H49.5005C50.2656 16.9638 50.8859 16.3059 50.8859 15.4943V10.6943H51.8094V15.4943C51.8094 16.8469 50.7757 17.9434 49.5005 17.9434H48.3001C47.0249 17.9434 45.9912 16.8469 45.9912 15.4943V10.6943H46.9147Z" fill="#1F1F1F"/>
</svg>
