<svg viewBox="0 0 123 16" fill="none" xmlns="http://www.w3.org/2000/svg">
<path d="M3.03092 9.54298V14.7344H0V0H5.73856C6.84316 0 7.81306 0.202396 8.64825 0.607188C9.49017 1.01198 10.1368 1.58881 10.588 2.33767C11.0393 3.0798 11.2649 3.92649 11.2649 4.87775C11.2649 6.32151 10.7699 7.46167 9.7798 8.29824C8.79642 9.12807 7.43251 9.54298 5.68804 9.54298H3.03092ZM3.03092 7.08387H5.73856C6.54006 7.08387 7.14961 6.89497 7.56721 6.51716C7.99155 6.13934 8.20371 5.59962 8.20371 4.89799C8.20371 4.1761 7.99155 3.59254 7.56721 3.14726C7.14288 2.70199 6.5569 2.47261 5.80928 2.45911H3.03092V7.08387Z" fill="#46A6FA"/>
<path d="M17.9315 6.96243L20.6088 0H23.8822L18.7398 12.1539L18.3256 12.9534C17.5644 14.2824 16.3992 14.9469 14.8299 14.9469L13.769 14.9065L13.7387 12.4676C13.9004 12.4946 14.1631 12.5081 14.5268 12.5081C14.9512 12.5081 15.2912 12.4339 15.5472 12.2855C15.8099 12.137 16.0288 11.8638 16.2038 11.4657L16.5776 10.5044L11.415 0H14.6783L17.9315 6.96243Z" fill="#46A6FA"/>
<path d="M29.5561 8.91579H27.8082V14.9371H24.7773V0.202637H27.8082V6.10248H29.1923L32.789 0.202637H36.4867L31.9504 7.17519L36.9616 14.9371H33.3448L29.5561 8.91579Z" fill="#333C47"/>
<path d="M48.9536 7.90358C48.9536 9.35408 48.6976 10.6258 48.1858 11.7187C47.6739 12.8117 46.9398 13.655 45.9833 14.2487C45.0336 14.8423 43.9426 15.1392 42.71 15.1392C41.4908 15.1392 40.4031 14.8458 39.4466 14.2588C38.4902 13.6719 37.7493 12.8353 37.224 11.7491C36.6987 10.6562 36.4326 9.40131 36.4258 7.98454V7.25591C36.4258 5.8054 36.6851 4.5303 37.2038 3.43062C37.7291 2.32419 38.4667 1.4775 39.4163 0.890544C40.3727 0.296848 41.4639 0 42.6898 0C43.9155 0 45.0034 0.296848 45.9531 0.890544C46.9094 1.4775 47.647 2.32419 48.1656 3.43062C48.691 4.5303 48.9536 5.80202 48.9536 7.24579V7.90358ZM45.8824 7.23567C45.8824 5.69071 45.6061 4.51681 45.0539 3.71398C44.5016 2.91113 43.7135 2.50972 42.6898 2.50972C41.6728 2.50972 40.888 2.90775 40.3357 3.70385C39.7835 4.49319 39.5039 5.6536 39.4972 7.18506V7.90358C39.4972 9.40806 39.7733 10.5752 40.3256 11.405C40.8779 12.2348 41.6728 12.6498 42.71 12.6498C43.727 12.6498 44.5083 12.2517 45.0539 11.4556C45.5995 10.6528 45.8755 9.48564 45.8824 7.95417V7.23567Z" fill="#333C47"/>
<path d="M62.1871 14.9371H59.1561V8.62232H53.2458V14.9371H50.2148V0.202637H53.2458V6.17333H59.1561V0.202637H62.1871V14.9371Z" fill="#333C47"/>
<path d="M74.6737 2.66175H70.1678V14.9371H67.1368V2.66175H62.6914V0.202637H74.6737V2.66175Z" fill="#333C47"/>
<path d="M84.321 8.55148H78.5017V12.4982H85.3314V14.9371H75.4707V0.202637H85.3111V2.66175H78.5017V6.17333H84.321V8.55148Z" fill="#333C47"/>
<path d="M90.9682 8.91579H89.2203V14.9371H86.1895V0.202637H89.2203V6.10248H90.6044L94.2011 0.202637H97.8988L93.3625 7.17519L98.3737 14.9371H94.7569L90.9682 8.91579Z" fill="#333C47"/>
<path d="M109.83 10.0287C109.716 11.6142 109.13 12.8623 108.072 13.7731C107.022 14.6838 105.634 15.1392 103.91 15.1392C102.024 15.1392 100.539 14.5051 99.4545 13.2367C98.3768 11.9616 97.8379 10.2143 97.8379 7.99465V7.09399C97.8379 5.67722 98.0872 4.42911 98.5855 3.34966C99.084 2.27021 99.7945 1.44376 100.717 0.870304C101.647 0.290102 102.724 0 103.95 0C105.648 0 107.015 0.455392 108.052 1.36617C109.089 2.27696 109.689 3.55543 109.851 5.20159H106.82C106.746 4.25033 106.48 3.56217 106.021 3.13715C105.57 2.70537 104.88 2.48947 103.95 2.48947C102.94 2.48947 102.182 2.85379 101.677 3.58241C101.179 4.30429 100.923 5.42759 100.909 6.9523V8.06548C100.909 9.65767 101.148 10.8215 101.627 11.5568C102.112 12.2922 102.873 12.6599 103.91 12.6599C104.846 12.6599 105.543 12.4474 106.001 12.0223C106.466 11.5906 106.732 10.926 106.799 10.0287H109.83Z" fill="#333C47"/>
<path d="M121.65 2.66175H117.144V14.9371H114.113V2.66175H109.668V0.202637H121.65V2.66175Z" fill="#333C47"/>
</svg>
