<svg viewBox="0 0 20 20" fill="none" xmlns="http://www.w3.org/2000/svg">
<g clip-path="url(#clip0_1366_12925)">
<path d="M8.3859 15.7354C7.41602 15.7354 6.62695 16.5244 6.62695 17.4943C6.62695 18.4642 7.41602 19.2533 8.3859 19.2533C9.35579 19.2533 10.1449 18.4642 10.1449 17.4943C10.1448 16.5244 9.35575 15.7354 8.3859 15.7354ZM8.3859 18.2711C7.95754 18.2711 7.60906 17.9225 7.60906 17.4942C7.60906 17.0659 7.95758 16.7174 8.3859 16.7174C8.81422 16.7174 9.16274 17.0659 9.16274 17.4942C9.16274 17.9226 8.81422 18.2711 8.3859 18.2711Z" fill="white"/>
<path d="M14.5568 15.7354C13.5869 15.7354 12.7979 16.5244 12.7979 17.4943C12.7979 18.4642 13.5869 19.2533 14.5568 19.2533C15.5267 19.2533 16.3157 18.4642 16.3157 17.4943C16.3157 16.5244 15.5266 15.7354 14.5568 15.7354ZM14.5568 18.2711C14.1284 18.2711 13.78 17.9225 13.78 17.4942C13.78 17.0659 14.1285 16.7174 14.5568 16.7174C14.9852 16.7174 15.3336 17.0659 15.3336 17.4942C15.3336 17.9226 14.9851 18.2711 14.5568 18.2711Z" fill="white"/>
<path d="M14.9891 6.47498H7.95199C7.68078 6.47498 7.46094 6.69482 7.46094 6.96603C7.46094 7.23725 7.68082 7.45709 7.95199 7.45709H14.9891C15.2603 7.45709 15.4801 7.23725 15.4801 6.96603C15.4801 6.69478 15.2603 6.47498 14.9891 6.47498Z" fill="white"/>
<path d="M14.6058 9.02496H8.33481C8.06359 9.02496 7.84375 9.24481 7.84375 9.51602C7.84375 9.78723 8.06359 10.0071 8.33481 10.0071H14.6058C14.877 10.0071 15.0969 9.78723 15.0969 9.51602C15.0969 9.24485 14.877 9.02496 14.6058 9.02496Z" fill="white"/>
<path d="M19.778 4.28682C19.5907 4.05698 19.3132 3.92518 19.0167 3.92518H3.72084L3.41193 2.42561C3.34744 2.1128 3.13408 1.85014 2.84107 1.72291L0.685721 0.787364C0.436893 0.679278 0.147713 0.793458 0.0397832 1.04221C-0.0682637 1.29104 0.045916 1.58026 0.294627 1.68819L2.45002 2.62377L4.82603 14.1574C4.91963 14.6116 5.32416 14.9413 5.78795 14.9413H17.5522C17.8235 14.9413 18.0433 14.7215 18.0433 14.4503C18.0433 14.1791 17.8235 13.9592 17.5522 13.9592H5.78799L5.49896 12.5563H17.6432C18.1069 12.5563 18.5115 12.2266 18.6051 11.7723L19.9786 5.10534C20.0384 4.81503 19.9653 4.51663 19.778 4.28682ZM17.6432 11.5742H5.29666L3.92318 4.90726L19.0167 4.90729L17.6432 11.5742Z" fill="white"/>
</g>
<defs>
<clipPath id="clip0_1366_12925">
<rect width="20" height="20" fill="white"/>
</clipPath>
</defs>
</svg>
