<svg viewBox="0 0 24 25" fill="none" xmlns="http://www.w3.org/2000/svg">
<g clip-path="url(#clip0)">
<path d="M23.75 23.75H0V25H23.75V23.75Z" fill="#37C5D9"/>
<path d="M2.08333 22.9167H7.29167C7.5793 22.9167 7.8125 22.6835 7.8125 22.3958V13.0208C7.8125 12.7332 7.5793 12.5 7.29167 12.5H2.08333C1.7957 12.5 1.5625 12.7332 1.5625 13.0208V22.3958C1.5625 22.6835 1.7957 22.9167 2.08333 22.9167ZM2.60417 13.5417H6.77083V21.875H2.60417V13.5417Z" fill="#37C5D9"/>
<path d="M16.6673 22.9167H21.8757C22.1633 22.9167 22.3965 22.6835 22.3965 22.3958V6.77083C22.3965 6.4832 22.1633 6.25 21.8757 6.25H16.6673C16.3797 6.25 16.1465 6.4832 16.1465 6.77083V22.3958C16.1465 22.6835 16.3797 22.9167 16.6673 22.9167ZM17.1882 7.29167H21.3548V21.875H17.1882V7.29167Z" fill="#37C5D9"/>
<path d="M9.37435 22.9167H14.5827C14.8703 22.9167 15.1035 22.6835 15.1035 22.3958V0.520833C15.1035 0.233203 14.8703 0 14.5827 0H9.37435C9.08672 0 8.85352 0.233203 8.85352 0.520833V22.3958C8.85352 22.6835 9.08672 22.9167 9.37435 22.9167ZM9.89518 1.04167H14.0618V21.875H9.89518V1.04167Z" fill="#37C5D9"/>
</g>
<defs>
<clipPath id="clip0">
<rect width="23.75" height="25" fill="white"/>
</clipPath>
</defs>
</svg>
