<svg viewBox="0 0 19 20" fill="none" xmlns="http://www.w3.org/2000/svg">
<path fill-rule="evenodd" clip-rule="evenodd" d="M7.49967 18.3333H11.6663C11.8964 18.3333 12.083 18.1468 12.083 17.9167V0.416667C12.083 0.186563 11.8964 0 11.6663 0H10.75H8H7.49967C7.26957 0 7.08301 0.186563 7.08301 0.416667V17.9167C7.08301 18.1468 7.26957 18.3333 7.49967 18.3333ZM17.5004 18.3333H13.3337C13.1036 18.3333 12.9171 18.1468 12.9171 17.9167V5.41665C12.9171 5.18655 13.1036 4.99999 13.3337 4.99999H17.5004C17.7305 4.99999 17.9171 5.18655 17.9171 5.41665V17.9167C17.9171 18.1468 17.7305 18.3333 17.5004 18.3333ZM1.66667 18.3334H5.83333C6.06344 18.3334 6.25 18.1468 6.25 17.9167V17.0001V10.5001V10.4167C6.25 10.1866 6.06344 10.0001 5.83333 10.0001H5.75H1.75H1.66667C1.43656 10.0001 1.25 10.1866 1.25 10.4167V10.5001V17.0001V17.9167C1.25 18.1468 1.43656 18.3334 1.66667 18.3334ZM19 18.9999H0V19.9999H19V18.9999Z" fill="#3B486A"/>
</svg>
