<svg viewBox="0 0 19 20" fill="none" xmlns="http://www.w3.org/2000/svg">
<path d="M19 19H0V20H19V19Z" fill="#3B486A"/>
<path d="M1.66667 18.3333H5.83333C6.06344 18.3333 6.25 18.1468 6.25 17.9167V10.4167C6.25 10.1866 6.06344 10 5.83333 10H1.66667C1.43656 10 1.25 10.1866 1.25 10.4167V17.9167C1.25 18.1468 1.43656 18.3333 1.66667 18.3333ZM2.08333 10.8333H5.41667V17.5H2.08333V10.8333Z" fill="#3B486A"/>
<path d="M13.3337 18.3333H17.5003C17.7304 18.3333 17.917 18.1468 17.917 17.9167V5.41667C17.917 5.18656 17.7304 5 17.5003 5H13.3337C13.1036 5 12.917 5.18656 12.917 5.41667V17.9167C12.917 18.1468 13.1036 18.3333 13.3337 18.3333ZM13.7503 5.83333H17.0837V17.5H13.7503V5.83333Z" fill="#3B486A"/>
<path d="M7.49967 18.3333H11.6663C11.8964 18.3333 12.083 18.1468 12.083 17.9167V0.416667C12.083 0.186563 11.8964 0 11.6663 0H7.49967C7.26957 0 7.08301 0.186563 7.08301 0.416667V17.9167C7.08301 18.1468 7.26957 18.3333 7.49967 18.3333ZM7.91634 0.833333H11.2497V17.5H7.91634V0.833333Z" fill="#3B486A"/>
</svg>
