<svg viewBox="0 0 12 12" fill="none" xmlns="http://www.w3.org/2000/svg">
<path d="M1.87584 10.9975L6 6.8659L10.1242 10.9975C10.3605 11.2342 10.7437 11.2342 10.98 10.9975C11.2161 10.7609 11.2161 10.3775 10.98 10.141L6.85541 6.00896L10.9979 1.85904C11.234 1.62249 11.234 1.2391 10.9979 1.00255C10.7616 0.765822 10.3784 0.765822 10.1421 1.00255L6 5.15203L1.85794 1.00254C1.62164 0.765819 1.23839 0.765819 1.0021 1.00254C0.765968 1.23909 0.765968 1.62249 1.0021 1.85904L5.1446 6.00896L1.01999 10.141C0.783864 10.3775 0.783864 10.7609 1.01999 10.9975C1.25629 11.2342 1.63954 11.2342 1.87584 10.9975Z" fill="#C5C6C6" stroke="#C5C6C6" stroke-width="0.35"/>
</svg>
