<svg viewBox="0 0 24 24" fill="none" xmlns="http://www.w3.org/2000/svg">
<g clip-path="url(#clip0_1088_36113)">
<path d="M12.9589 -0.05H3.35891C3.06635 -0.05 2.82891 0.187448 2.82891 0.48V23.52C2.82891 23.8126 3.06635 24.05 3.35891 24.05H20.6389C20.9315 24.05 21.1689 23.8126 21.1689 23.52V8.16C21.1689 7.87343 21.0729 7.53112 20.9047 7.15397C20.7361 6.77609 20.4934 6.35963 20.1963 5.92371C19.6019 5.05184 18.7871 4.09858 17.9037 3.2152C17.0203 2.33183 16.0671 1.51702 15.1952 0.922646C14.7593 0.625471 14.3428 0.382791 13.9649 0.214241C13.5878 0.0460136 13.2455 -0.05 12.9589 -0.05ZM20.1089 22.99H3.88891V1.01H12.9589C13.1575 1.01 13.4192 1.09206 13.729 1.24521C14.0375 1.39774 14.3886 1.61819 14.7642 1.88904C15.5153 2.43066 16.3607 3.17109 17.1543 3.96463C17.9478 4.75818 18.6882 5.60358 19.2299 6.35468C19.5007 6.73029 19.7212 7.08136 19.8737 7.38989C20.0268 7.69968 20.1089 7.96145 20.1089 8.16V22.99Z" fill="#37C5D9" stroke="#37C5D9" stroke-width="0.1"/>
<path d="M20.3515 6.66984H14.4495V0.767842C14.4495 0.474239 14.2119 0.237842 13.9195 0.237842C13.6269 0.237842 13.3895 0.475293 13.3895 0.767842V7.19984C13.3895 7.49244 13.6269 7.72984 13.9195 7.72984H20.3515C20.6451 7.72984 20.8815 7.49238 20.8815 7.19984C20.8815 6.90729 20.644 6.66984 20.3515 6.66984Z" fill="#37C5D9" stroke="#37C5D9" stroke-width="0.1"/>
</g>
<defs>
<clipPath id="clip0_1088_36113">
<rect width="24" height="24" fill="white"/>
</clipPath>
</defs>
</svg>
