<svg viewBox="0 0 20 20" fill="none" xmlns="http://www.w3.org/2000/svg">
<path fill-rule="evenodd" clip-rule="evenodd" d="M14.3291 1.72127C12.9985 1.71416 11.7203 2.17876 10.7121 3.01453C10.4562 3.22673 10.2176 3.46285 9.99998 3.72125C9.784 3.4614 9.54665 3.22404 9.29159 3.01088C8.28544 2.17001 7.00369 1.70554 5.67085 1.72127C2.53892 1.72127 0 4.26019 0 7.39213C0 8.21861 0.22212 9.04209 0.599339 9.84463C1.13833 10.9913 1.99397 12.0953 2.97075 13.1042C5.74969 15.9746 9.50911 18.0755 9.74684 18.2023C9.7676 18.2161 9.78922 18.2281 9.81147 18.2382C9.92014 18.2877 10.0437 18.2922 10.1551 18.2519C10.1892 18.2395 10.2221 18.223 10.2532 18.2023C10.5232 18.0582 15.3382 15.4049 18.0975 11.9265C18.38 11.5704 18.641 11.2056 18.8733 10.8339C19.5627 9.73115 20 8.56814 20 7.39213C20 4.26019 17.461 1.72127 14.3291 1.72127Z" fill="#37C5D9"/>
</svg>
