<svg viewBox="0 0 15 15" fill="none" xmlns="http://www.w3.org/2000/svg">
<path d="M13.8158 9.87632C12.8905 9.87632 11.9842 9.73185 11.1253 9.44842C10.706 9.30394 10.23 9.41526 9.95448 9.69632L8.25159 10.9824C6.29764 9.93949 5.04711 8.68974 4.01844 6.75001L5.26974 5.08737C5.58474 4.77237 5.69765 4.31131 5.56265 3.87948C5.27685 3.015 5.1316 2.1079 5.1316 1.18421C5.1316 0.531304 4.60029 0 3.94738 0H1.18421C0.531304 0 0 0.531304 0 1.18421C0 8.80184 6.19816 15 13.8158 15C14.4687 15 15 14.4687 15 13.8158V11.0605C15 10.4076 14.4687 9.87632 13.8158 9.87632Z" fill="white"/>
</svg>
