<svg width="55" height="50" viewBox="0 0 55 50" fill="none" xmlns="http://www.w3.org/2000/svg">
<path d="M54.9006 41.2445C54.6425 40.0568 53.9124 39.042 52.8445 38.3867C51.7765 37.7318 50.508 37.5204 49.271 37.7908L43.5382 39.046V36.8049C44.6879 35.7693 45.8851 34.417 46.7365 33.1811C48.2295 31.0139 49.2861 28.634 49.8769 26.1088C50.5794 23.1045 50.5945 19.9241 49.9201 16.9102C49.7959 16.3557 49.2248 16.0017 48.6449 16.1209C48.0646 16.2393 47.6953 16.7854 47.8191 17.3404C48.4292 20.0661 48.4158 22.9432 47.7801 25.6602C47.2463 27.9418 46.2913 30.0922 44.9422 32.0507C44.5423 32.6314 44.0573 33.2405 43.5382 33.8223V22.436C43.5382 21.8686 43.0573 21.4088 42.464 21.4088H33.9663V10.439C33.9663 9.87321 33.4875 9.41376 32.8959 9.41176L23.324 9.38086C23.3227 9.38086 23.3219 9.38086 23.3206 9.38086C23.0361 9.38086 22.7634 9.4884 22.5624 9.6806C22.3601 9.87321 22.2464 10.1348 22.2464 10.4081V16.1145H13.7475C13.1546 16.1145 12.6733 16.5743 12.6733 17.1417V27.3142H10.2798V25.919C10.2798 25.352 9.79889 24.8922 9.20556 24.8922H8.10364C7.91607 23.9047 7.80739 22.9015 7.7818 21.8999C7.71885 19.4647 8.12253 17.0819 8.98106 14.8172C9.18122 14.2891 9.40865 13.7627 9.65664 13.2531C9.90716 12.7386 9.67385 12.1275 9.13632 11.888C8.59837 11.6492 7.95929 11.8715 7.7092 12.3859C7.43435 12.9501 7.18258 13.5328 6.96144 14.117C6.01143 16.6229 5.56496 19.2588 5.63378 21.9505C5.65937 22.9344 5.75756 23.9191 5.92415 24.8922H1.07422C0.480881 24.8922 0 25.352 0 25.9194V43.9755C0 44.5429 0.480881 45.0028 1.07422 45.0028H9.20556C9.79889 45.0028 10.2798 44.5429 10.2798 43.9755V42.9989H14.3207L30.6895 49.1382C32.2178 49.7116 33.8186 50.0001 35.4278 50.0001C36.5008 50.0001 37.5784 49.8717 38.6396 49.6137L51.4694 46.4955C53.9048 45.9036 55.4117 43.5971 54.9006 41.2445ZM41.3902 23.4633V39.5163L38.5183 40.1451C38.2095 40.2125 37.8973 40.2658 37.5834 40.3076C36.3867 40.4653 35.1656 40.432 33.9814 40.2077C33.9764 40.2065 33.9713 40.2056 33.9663 40.2044V38.6467C34.7854 37.4782 35.0569 35.9968 34.6276 34.6445C34.508 34.2673 34.3381 33.9034 34.122 33.5675C34.0729 33.4913 34.0217 33.4166 33.9684 33.3436C33.968 33.3424 33.9672 33.3416 33.9663 33.3404V23.4629H41.3902V23.4633ZM24.3948 11.4389L31.8183 11.4626V31.7089L27.6695 30.0669L24.3948 28.7704V11.4389ZM14.8217 18.169H22.2452V27.9193L20.9129 27.392C20.7824 27.3403 20.6426 27.3138 20.5021 27.3138H14.8217V18.169ZM8.13134 42.9483H2.14844V26.9462H7.21657C7.21867 26.9462 7.22119 26.9466 7.22371 26.9466C7.2258 26.9466 7.22748 26.9462 7.22958 26.9462H8.13134V42.9483ZM50.9402 44.5044L38.1105 47.6226C35.8957 48.1607 33.6008 48.0231 31.4738 47.2258L14.9161 41.0154C14.7911 40.9685 14.6581 40.9448 14.5238 40.9448H10.2798V29.3687H20.2881L27.2386 32.1198L31.042 33.6253C32.3877 34.159 33.0318 35.6685 32.48 36.9538C32.3693 37.2118 32.232 37.457 32.0499 37.6757C31.3773 38.4874 30.2699 38.8454 29.2343 38.6046C29.2259 38.6026 29.2175 38.6006 29.2091 38.5986C29.147 38.5837 29.0853 38.5665 29.0241 38.5472L21.7962 35.89C21.7374 35.8684 21.7064 35.8571 21.7064 35.8571C21.1529 35.6533 20.5314 35.9177 20.3183 36.4474C20.1055 36.9767 20.3816 37.5713 20.9355 37.7748C20.9355 37.7748 25.0108 39.2731 28.1185 40.4191C28.1811 40.4424 28.2432 40.4641 28.3057 40.4841L30.692 41.3617C31.4134 41.6269 32.1313 41.891 32.882 42.0743C34.1568 42.3857 35.4799 42.5109 36.7941 42.4423C37.5352 42.4038 38.2749 42.3059 38.9984 42.1478L42.704 41.3368C42.7078 41.336 42.7115 41.3344 42.7153 41.3336L49.7506 39.7935C50.4199 39.6471 51.1068 39.7614 51.6842 40.1158C52.2625 40.4705 52.6573 41.0198 52.797 41.6626C53.074 42.9359 52.2583 44.1842 50.9402 44.5044Z" fill="#3B486A"/>
<path d="M13.737 7.30623C13.9938 7.30623 14.2514 7.21876 14.4566 7.0414C16.3734 5.38578 18.6624 4.06522 21.0773 3.22216C23.6936 2.30888 26.5617 1.91925 29.3719 2.09581C31.3831 2.2222 33.3536 2.6327 35.2285 3.31565C35.7824 3.51749 36.4034 3.25185 36.6145 2.72138C36.826 2.19131 36.5477 1.59784 35.993 1.396C33.9184 0.640016 31.7381 0.185784 29.5129 0.0457419C26.4069 -0.149273 23.235 0.281686 20.3405 1.29247C17.6688 2.22501 15.1364 3.68602 13.0169 5.51659C12.5763 5.89699 12.5419 6.54664 12.9397 6.96757C13.1516 7.19228 13.4437 7.30623 13.737 7.30623Z" fill="#3B486A"/>
<path d="M38.1226 14.6372C38.3261 14.8061 38.5771 14.8888 38.8267 14.8888C39.1268 14.8888 39.4255 14.7692 39.6383 14.5357L48.4762 4.80698C48.8657 4.37883 48.8178 3.72998 48.3701 3.35801C47.9219 2.98604 47.2438 3.03138 46.8548 3.45953L38.0165 13.1882C37.6271 13.6164 37.6749 14.2652 38.1226 14.6372Z" fill="#3B486A"/>
<path d="M46.0428 10.2456C44.5557 10.2456 43.3459 11.4025 43.3459 12.8245C43.3459 14.2466 44.5557 15.4035 46.0428 15.4035C47.5299 15.4035 48.7397 14.2462 48.7397 12.8245C48.7397 11.4025 47.5299 10.2456 46.0428 10.2456ZM46.0428 13.349C45.7403 13.349 45.4944 13.1138 45.4944 12.8245C45.4944 12.5356 45.7403 12.3001 46.0428 12.3001C46.3449 12.3001 46.5913 12.5356 46.5913 12.8245C46.5913 13.1138 46.3449 13.349 46.0428 13.349Z" fill="#3B486A"/>
<path d="M40.0776 7.95865C41.5647 7.95865 42.7745 6.8018 42.7745 5.37971C42.7745 3.95763 41.5647 2.80078 40.0776 2.80078C38.5905 2.80078 37.3807 3.95763 37.3807 5.37971C37.3807 6.8018 38.5905 7.95865 40.0776 7.95865ZM40.0776 4.85486C40.3801 4.85486 40.626 5.0904 40.626 5.37971C40.626 5.66862 40.3801 5.90417 40.0776 5.90417C39.775 5.90417 39.5291 5.66862 39.5291 5.37971C39.5291 5.0904 39.775 4.85486 40.0776 4.85486Z" fill="#3B486A"/>
<path d="M9.91809 9.72023C10.0901 10.1151 10.5135 10.3759 10.9621 10.3534C11.4056 10.3314 11.7942 10.0445 11.9314 9.64158C12.0699 9.2351 11.9188 8.77204 11.5634 8.51242C11.2013 8.24839 10.6927 8.23194 10.3134 8.4731C9.89249 8.74074 9.72381 9.27442 9.91809 9.72023Z" fill="#3B486A"/>
</svg>
