<svg width="74" height="40" viewBox="0 0 74 40" fill="none" xmlns="http://www.w3.org/2000/svg">
<path d="M63.5828 39.9999C62.3306 40.0008 61.1063 39.6303 60.0647 38.9353C59.023 38.2403 58.211 37.2519 57.7311 36.0953C57.2513 34.9387 57.1253 33.6657 57.369 32.4375C57.6127 31.2092 58.2153 30.0808 59.1004 29.1951C59.9855 28.3093 61.1134 27.706 62.3415 27.4613C63.5696 27.2167 64.8426 27.3418 65.9996 27.8208C67.1566 28.2998 68.1455 29.1111 68.8413 30.1522C69.5371 31.1933 69.9085 32.4174 69.9085 33.6696C69.9077 35.3475 69.2411 36.9564 68.0551 38.1433C66.8691 39.3301 65.2607 39.9978 63.5828 39.9999ZM63.5828 29.6485C62.7873 29.6476 62.0094 29.8827 61.3476 30.324C60.6857 30.7653 60.1696 31.3929 59.8645 32.1276C59.5595 32.8623 59.4792 33.6709 59.6338 34.4513C59.7885 35.2316 60.1711 35.9485 60.7332 36.5113C61.2954 37.0741 62.0119 37.4576 62.792 37.6131C63.5722 37.7686 64.3809 37.6892 65.1159 37.385C65.851 37.0808 66.4792 36.5654 66.9213 35.9041C67.3633 35.2427 67.5993 34.4651 67.5993 33.6696C67.5989 32.6041 67.1757 31.5822 66.4227 30.8284C65.6697 30.0745 64.6483 29.6502 63.5828 29.6485Z" fill="#3B486A"/>
<path d="M30.2242 39.9999C28.9719 40.0011 27.7474 39.6309 26.7056 38.936C25.6638 38.2412 24.8515 37.253 24.3714 36.0964C23.8913 34.9398 23.7651 33.6668 24.0086 32.4384C24.2522 31.2101 24.8546 30.0815 25.7397 29.1956C26.6247 28.3097 27.7527 27.7062 28.9808 27.4614C30.2089 27.2167 31.482 27.3417 32.6391 27.8206C33.7962 28.2996 34.7852 29.1109 35.481 30.1521C36.1769 31.1932 36.5483 32.4173 36.5483 33.6696C36.5471 35.3471 35.8806 36.9556 34.695 38.1423C33.5095 39.329 31.9016 39.997 30.2242 39.9999ZM30.2242 29.6485C29.4286 29.6473 28.6506 29.8821 27.9885 30.3232C27.3264 30.7643 26.8101 31.3919 26.5048 32.1266C26.1995 32.8612 26.119 33.6699 26.2735 34.4503C26.4279 35.2307 26.8104 35.9478 27.3725 36.5108C27.9346 37.0737 28.6511 37.4573 29.4313 37.613C30.2115 37.7686 31.0203 37.6894 31.7554 37.3852C32.4905 37.081 33.1189 36.5656 33.561 35.9042C34.0031 35.2429 34.2391 34.4652 34.2391 33.6696C34.2383 32.6045 33.8152 31.5831 33.0626 30.8294C32.31 30.0756 31.2893 29.651 30.2242 29.6485Z" fill="#3B486A"/>
<path d="M71.9114 34.8236H68.754C68.4477 34.8236 68.1541 34.7019 67.9375 34.4854C67.721 34.2689 67.5994 33.9752 67.5994 33.669C67.5994 33.3627 67.721 33.0691 67.9375 32.8525C68.1541 32.636 68.4477 32.5144 68.754 32.5144H71.585V26.3919C71.5843 25.5642 71.3723 24.7503 70.9692 24.0273L64.719 12.8216C64.6656 12.7259 64.5877 12.6463 64.4933 12.5908C64.3988 12.5353 64.2913 12.506 64.1818 12.506H55.6639V32.519H58.4134C58.7196 32.519 59.0133 32.6406 59.2298 32.8572C59.4464 33.0737 59.568 33.3674 59.568 33.6736C59.568 33.9798 59.4464 34.2735 59.2298 34.49C59.0133 34.7065 58.7196 34.8282 58.4134 34.8282H54.5093C54.2031 34.8282 53.9094 34.7065 53.6929 34.49C53.4764 34.2735 53.3547 33.9798 53.3547 33.6736V11.3514C53.3547 11.0452 53.4764 10.7515 53.6929 10.535C53.9094 10.3184 54.2031 10.1968 54.5093 10.1968H64.1818C64.7026 10.1965 65.2142 10.3354 65.6634 10.599C66.1127 10.8626 66.4834 11.2414 66.7373 11.6962L72.9859 22.9035C73.58 23.9703 73.8921 25.1709 73.8927 26.3919V32.8423C73.8919 33.3675 73.6829 33.871 73.3115 34.2424C72.9401 34.6137 72.4366 34.8228 71.9114 34.8236Z" fill="#3B486A"/>
<path d="M25.0532 34.8248H13.9829C13.6767 34.8248 13.383 34.7031 13.1665 34.4866C12.95 34.2701 12.8283 33.9764 12.8283 33.6702V24.7906C12.8283 24.4844 12.95 24.1907 13.1665 23.9742C13.383 23.7576 13.6767 23.636 13.9829 23.636C14.2891 23.636 14.5828 23.7576 14.7993 23.9742C15.0159 24.1907 15.1375 24.4844 15.1375 24.7906V32.5156H25.0532C25.3594 32.5156 25.6531 32.6372 25.8696 32.8538C26.0861 33.0703 26.2078 33.364 26.2078 33.6702C26.2078 33.9764 26.0861 34.2701 25.8696 34.4866C25.6531 34.7031 25.3594 34.8248 25.0532 34.8248Z" fill="#3B486A"/>
<path d="M13.9829 20.6942C13.6767 20.6942 13.383 20.5726 13.1665 20.3561C12.95 20.1395 12.8283 19.8458 12.8283 19.5396V11.7869C12.8283 11.4807 12.95 11.187 13.1665 10.9705C13.383 10.754 13.6767 10.6323 13.9829 10.6323C14.2891 10.6323 14.5828 10.754 14.7993 10.9705C15.0159 11.187 15.1375 11.4807 15.1375 11.7869V19.5442C15.1363 19.8497 15.0141 20.1422 14.7977 20.3577C14.5813 20.5732 14.2883 20.6942 13.9829 20.6942Z" fill="#3B486A"/>
<path d="M54.5093 34.8242H35.3938C35.0875 34.8242 34.7939 34.7026 34.5773 34.486C34.3608 34.2695 34.2392 33.9758 34.2392 33.6696C34.2392 33.3634 34.3608 33.0697 34.5773 32.8532C34.7939 32.6366 35.0875 32.515 35.3938 32.515H53.3547V2.3092H15.1375V7.0646C15.1375 7.37081 15.0159 7.66449 14.7993 7.88102C14.5828 8.09755 14.2891 8.21919 13.9829 8.21919C13.6767 8.21919 13.383 8.09755 13.1665 7.88102C12.95 7.66449 12.8283 7.37081 12.8283 7.0646V2.09675C12.8291 1.54064 13.0505 1.00756 13.4439 0.61448C13.8372 0.221395 14.3705 0.000407107 14.9266 0H53.5671C54.123 0.000814422 54.6558 0.221982 55.0489 0.615023C55.4419 1.00806 55.6631 1.54091 55.6639 2.09675V33.6696C55.6639 33.9758 55.5422 34.2695 55.3257 34.486C55.1092 34.7026 54.8155 34.8242 54.5093 34.8242Z" fill="#3B486A"/>
<path d="M18.5474 25.9452H3.89325C3.58703 25.9452 3.29335 25.8235 3.07682 25.607C2.86029 25.3905 2.73865 25.0968 2.73865 24.7906C2.73865 24.4844 2.86029 24.1907 3.07682 23.9742C3.29335 23.7576 3.58703 23.636 3.89325 23.636H18.5474C18.8536 23.636 19.1473 23.7576 19.3638 23.9742C19.5804 24.1907 19.702 24.4844 19.702 24.7906C19.702 25.0968 19.5804 25.3905 19.3638 25.607C19.1473 25.8235 18.8536 25.9452 18.5474 25.9452Z" fill="#3B486A"/>
<path d="M30.2242 20.6915H9.77557C9.46935 20.6915 9.17567 20.5699 8.95915 20.3534C8.74262 20.1368 8.62097 19.8432 8.62097 19.5369C8.62097 19.2307 8.74262 18.937 8.95915 18.7205C9.17567 18.504 9.46935 18.3823 9.77557 18.3823H30.2242C30.5305 18.3823 30.8241 18.504 31.0407 18.7205C31.2572 18.937 31.3788 19.2307 31.3788 19.5369C31.3788 19.8432 31.2572 20.1368 31.0407 20.3534C30.8241 20.5699 30.5305 20.6915 30.2242 20.6915Z" fill="#3B486A"/>
<path d="M9.13978 14.5983H1.1546C0.848378 14.5983 0.554702 14.4766 0.338173 14.2601C0.121645 14.0436 0 13.7499 0 13.4437C0 13.1374 0.121645 12.8438 0.338173 12.6272C0.554702 12.4107 0.848378 12.2891 1.1546 12.2891H9.13978C9.446 12.2891 9.73968 12.4107 9.95621 12.6272C10.1727 12.8438 10.2944 13.1374 10.2944 13.4437C10.2944 13.7499 10.1727 14.0436 9.95621 14.2601C9.73968 14.4766 9.446 14.5983 9.13978 14.5983Z" fill="#3B486A"/>
<path d="M21.9436 8.21958H7.84832C7.5421 8.21958 7.24843 8.09794 7.0319 7.88141C6.81537 7.66488 6.69373 7.37121 6.69373 7.06499C6.69373 6.75877 6.81537 6.4651 7.0319 6.24857C7.24843 6.03205 7.5421 5.9104 7.84832 5.9104H21.9436C22.2499 5.9104 22.5435 6.03205 22.7601 6.24857C22.9766 6.4651 23.0982 6.75877 23.0982 7.06499C23.0982 7.37121 22.9766 7.66488 22.7601 7.88141C22.5435 8.09794 22.2499 8.21958 21.9436 8.21958Z" fill="#3B486A"/>
</svg>
