<svg width="50" height="50" viewBox="0 0 50 50" fill="none" xmlns="http://www.w3.org/2000/svg">
<path d="M49.3723 12.0516L25.5086 0.119745C25.1887 -0.0399149 24.8114 -0.0399149 24.4921 0.119745L0.628411 12.0516C0.243183 12.2442 0 12.6374 0 13.0681V36.9318C0 37.3625 0.243183 37.7556 0.627843 37.9483L24.4915 49.8801C24.6518 49.9602 24.8256 50 25.0001 50C25.1745 50 25.3484 49.9602 25.5086 49.8801L49.3723 37.9483C49.757 37.7556 50.0001 37.3625 50.0001 36.9318V13.0681C50.0001 12.6374 49.757 12.2442 49.3723 12.0516ZM25.0001 2.40668L46.3229 13.0681L41.7615 15.3488L20.4393 4.68737L25.0001 2.40668ZM32.6706 19.8942L11.3478 9.23284L17.8978 5.95783L39.2206 16.6192L32.6706 19.8942ZM33.5228 22.009L40.341 18.5999V27.0528L38.1603 25.4954C37.9132 25.3187 37.6041 25.2488 37.3047 25.3005C37.0052 25.3533 36.7387 25.5232 36.5654 25.7732L33.5228 30.1693V22.009ZM8.80684 10.5033L30.1291 21.1647L25.0001 23.7295L3.67728 13.0681L8.80684 10.5033ZM2.27273 14.9067L23.8637 25.7022V47.0244L2.27273 36.2289V14.9067ZM26.1364 47.025V25.7022L31.2501 23.1454V33.8068C31.2501 34.3039 31.5728 34.7431 32.0473 34.8914C32.1598 34.9267 32.2734 34.9431 32.3865 34.9431C32.7524 34.9431 33.1046 34.7659 33.3211 34.4539L37.7785 28.0158L40.8177 30.1863C41.1643 30.4335 41.62 30.467 41.9979 30.2715C42.3757 30.0772 42.6138 29.6869 42.6138 29.2613V17.4635L47.7274 14.9067V36.2289L26.1364 47.025Z" fill="#3B486A"/>
</svg>
